<?xml version="1.0" encoding="UTF-8"?>
<svg id="_레이어_2" data-name="레이어 2" xmlns="http://www.w3.org/2000/svg" viewBox="0 0 168.51 118.47">
  <defs>
    <style>
      .cls-1 {
        stroke-width: 0px;
      }
    </style>
  </defs>
  <path class="cls-1" d="m12.66,8.45c.7.39,1.53.84,1.85,1.62.35.88-.18,1.87-.67,2.59-.96,1.43-2.47,2.43-4.15,2.78l.13.48c2.61-.83,5.27-1.5,7.97-1.99.32-.06.18-.54-.13-.48-2.7.49-5.36,1.16-7.97,1.99-.31.1-.18.55.13.48,1.92-.41,3.64-1.63,4.64-3.32.5-.83.9-1.86.47-2.81-.38-.85-1.24-1.36-2.02-1.79-.28-.16-.53.28-.25.43h0Z"/>
  <path class="cls-1" d="m19.55,9.57l-.48.66c-.15.21-.33.41-.45.64-.2.36-.16.82.25.99.32.14.7.05,1-.09.42-.19.82-.42,1.2-.67.77-.51,1.48-1.14,2.07-1.86.24-.29.42-.67.11-.97-.24-.24-.64-.28-.96-.23-1.05.15-2.08.63-2.92,1.26-.12.09-.19.28-.05.39.33.28.72.43,1.15.43.32,0,.32-.51,0-.5-.3,0-.57-.08-.8-.28l-.05.39c.6-.45,1.26-.8,1.98-1.02.31-.09.66-.22.99-.19.08,0,.23.02.29.09.09.09-.03.2-.1.27-.46.56-1,1.08-1.58,1.51-.28.21-.58.4-.88.58-.28.16-.58.35-.89.42-.1.02-.26.06-.36,0-.16-.09,0-.31.07-.41.27-.4.57-.78.86-1.17.19-.26-.24-.51-.43-.25h0Z"/>
  <path class="cls-1" d="m24.44,8.51c.78.31,1.27,1.24,1.07,2.06-.22.86-1.11,1.41-1.98,1.31l.07.49c1.71-.38,3.41-.76,5.12-1.15.31-.07.18-.55-.13-.48-1.71.38-3.41.76-5.12,1.15-.3.07-.19.46.07.49,1.1.13,2.24-.65,2.47-1.75s-.41-2.2-1.43-2.61c-.3-.12-.43.36-.13.48h0Z"/>
  <path class="cls-1" d="m29.29,8.16c.54-.18,1.46-.94,1.99-.42.48.48.22,1.37-.04,1.89-.63,1.25-1.94,2.02-3.29,2.24l.31.17c-.1-.36.63-.73.88-.87.34-.18.7-.31,1.07-.39.35-.07.78-.13,1.11.06.35.21.44.66.42,1.03-.09,1.65-1.88,2.37-3.25,2.64-.32.06-.18.54.13.48,1.03-.2,2.08-.56,2.82-1.34.63-.67,1.04-1.71.67-2.61-.4-.97-1.53-.92-2.38-.66-.68.2-2.22.84-1.95,1.78.04.14.17.2.31.17,1.66-.28,3.27-1.36,3.82-3.01.22-.66.23-1.59-.38-2.05-.78-.59-1.61.14-2.36.39-.3.1-.17.58.13.48h0Z"/>
  <path class="cls-1" d="m37.31,11.15c.64,0,.64-1,0-1s-.64,1,0,1h0Z"/>
  <path class="cls-1" d="m44.64,6.82c-.55.51-1.05,1.06-1.5,1.66-.36.47-.81,1.03-.81,1.66,0,.67.59.95,1.18.99.71.04,1.4-.26,2.02-.59s1.2-.72,1.74-1.16c.49-.39,1.17-.88,1.33-1.53.14-.57-.29-.99-.84-1.02-.61-.03-1.27.25-1.82.47-.49.2-3.94,1.77-3.08,2.52.24.21.6-.14.35-.35.07.06-.01.03.06-.01.04-.03.08-.07.12-.11.11-.09.22-.17.33-.25.23-.17.47-.33.71-.48.45-.28.91-.52,1.39-.73s.98-.39,1.49-.51c.18-.04.4-.08.58-.02.3.1.24.4.11.62-.25.44-.74.78-1.13,1.09-.43.34-.88.64-1.35.91s-.97.53-1.51.63c-.42.08-1.25.09-1.19-.53.05-.56.54-1.09.88-1.51.39-.49.82-.94,1.28-1.37.24-.22-.12-.57-.35-.35h0Z"/>
  <path class="cls-1" d="m50.03,6.78c-.51.71-1.01,1.41-1.52,2.12l.43.25c.44-.82,1.02-1.56,1.72-2.17.37-.32.77-.6,1.19-.84.18-.1.39-.24.59-.3.4-.11.29.3.21.55-.67,1.96-2.11,3.57-3.45,5.09-.21.24.14.6.35.35,1.27-1.45,2.57-2.93,3.34-4.72.16-.37.41-.84.33-1.25-.07-.35-.36-.61-.72-.56-.4.06-.82.34-1.15.55-.36.22-.69.47-1.01.74-.75.64-1.37,1.43-1.84,2.3-.15.29.25.51.43.25.51-.71,1.01-1.41,1.52-2.12.19-.26-.25-.51-.43-.25h0Z"/>
  <path class="cls-1" d="m55.95,10.64c.64,0,.64-1,0-1s-.64,1,0,1h0Z"/>
  <path class="cls-1" d="m60.8,5.46c-.36.42-.68.88-.94,1.38-.24.46-.51,1.02-.42,1.55.08.49.49.79.96.87.5.08,1-.06,1.45-.3.47-.25.89-.59,1.28-.95s.74-.77.92-1.27c.16-.45.16-.98-.06-1.41s-.67-.71-1.16-.78c-.6-.08-1.19.14-1.68.49-.23.16-.45.36-.5.65-.05.26.06.5.27.65.27.18.52-.25.25-.43-.28-.19.54-.64.65-.7.35-.17.74-.24,1.12-.13.79.23.85,1.14.5,1.77-.19.35-.48.64-.78.9s-.61.51-.95.71c-.31.18-.67.32-1.04.32-.32,0-.69-.14-.74-.5-.07-.43.22-.93.41-1.3.22-.42.49-.82.81-1.18.21-.24-.14-.6-.35-.35h0Z"/>
  <path class="cls-1" d="m66.79,4.2c-.56,2.56-1.02,5.14-1.39,7.74-.04.31.44.45.48.13.36-2.6.83-5.18,1.39-7.74.07-.31-.41-.45-.48-.13h0Z"/>
  <path class="cls-1" d="m69.99,9.87c.64,0,.64-1,0-1s-.64,1,0,1h0Z"/>
  <path class="cls-1" d="m16.74,25.66c2.03-.91,4.2-1.47,6.41-1.66.32-.03.32-.53,0-.5-2.31.2-4.55.79-6.67,1.73-.29.13-.04.56.25.43h0Z"/>
  <path class="cls-1" d="m17.53,27.37c.72-.28,1.47-.46,2.25-.5.19-.01.42-.04.5.18.04.12,0,.28-.03.4-.09.29-.29.55-.49.77-.81.88-1.98,1.33-2.95,1.99l.3.39c.83-.64,1.74-1.18,2.71-1.6.24-.1.49-.19.74-.28-.09.03-.14.04-.23.12-.08.06-.16.12-.23.18-.34.27-.65.59-.89.96s-.35.77-.4,1.2c-.03.28-.03.58-.18.83-.13.22-.34.38-.54.52-.81.59-1.75.96-2.73,1.14l.19.46c1.8-1.25,3.91-1.99,6.1-2.12.32-.02.32-.52,0-.5-2.28.14-4.48.89-6.35,2.19-.24.16-.09.51.19.46,1.14-.2,2.29-.68,3.18-1.43.46-.39.58-.83.64-1.41.07-.68.35-1.2.85-1.67.22-.21.48-.37.71-.57.16-.13.29-.3.23-.52-.12-.5-.72-.29-1.04-.17-1.19.46-2.28,1.09-3.28,1.87-.22.17.07.55.3.39,1.21-.82,2.88-1.39,3.56-2.78.26-.52.26-1.32-.43-1.47-.4-.09-.88.02-1.28.08-.52.09-1.02.23-1.5.42-.3.12-.17.6.13.48h0Z"/>
  <path class="cls-1" d="m22.15,25.93c.39,2.99.56,6.01.51,9.02,0,.32.5.32.5,0,.05-3.02-.13-6.03-.51-9.02-.04-.31-.54-.32-.5,0h0Z"/>
  <path class="cls-1" d="m25.91,26.13c-.43,1.51-1.02,2.96-1.76,4.34-.15.28.27.53.43.25.11-.19.22-.38.33-.57.16-.28-.27-.53-.43-.25-.11.19-.22.38-.33.57l.43.25c.77-1.41,1.37-2.91,1.81-4.46.09-.31-.39-.44-.48-.13h0Z"/>
  <path class="cls-1" d="m26.27,28.54l1.1.52c.12.06.28.04.34-.09.06-.11.04-.28-.09-.34l-1.1-.52c-.12-.06-.28-.04-.34.09-.06.11-.04.28.09.34h0Z"/>
  <path class="cls-1" d="m27.49,27.11c.58-.15,1.15-.29,1.73-.44.4-.1.92-.33.88-.82,0-.13-.11-.25-.25-.25-.13,0-.26.11-.25.25,0,.06,0,.07-.03.11-.05.06-.1.09-.17.12-.17.09-.37.12-.55.17l-1.49.38c-.31.08-.18.56.13.48h0Z"/>
  <path class="cls-1" d="m29.47,25.93c.06,1.31.2,2.61.41,3.9.05.32.53.18.48-.13-.2-1.25-.34-2.5-.4-3.77-.02-.32-.52-.32-.5,0h0Z"/>
  <path class="cls-1" d="m27.98,31.34c-.15.32-.27.64-.35.98-.06.27-.17.64.04.87.25.29.6.1.85-.07s.49-.36.7-.57c.42-.4.81-.91,1.03-1.45.12-.3.08-.67-.25-.82-.26-.12-.56-.04-.82.06-.6.24-1.11.68-1.4,1.26-.07.14-.02.33.15.37.25.06.5.05.74-.01.31-.08.18-.56-.13-.48-.16.04-.32.05-.48.01l.15.37c.19-.37.47-.68.84-.89.17-.1.36-.19.56-.22.05,0,.17-.03.21,0,.03.03,0,.11-.01.15-.07.2-.2.39-.32.57s-.25.35-.4.51c-.29.32-.64.64-1.03.84.03-.02-.06.03-.06.03,0-.01.08.05.06.05-.01,0,0-.1,0-.11,0-.12.04-.26.07-.38.07-.28.16-.56.29-.82.06-.12.03-.27-.09-.34-.11-.06-.28-.03-.34.09h0Z"/>
  <path class="cls-1" d="m33.38,26.55l2.66-.44-.24-.42c-.99.88-2.04,1.68-3.15,2.39-.13.09-.17.27-.05.39.38.38.92.15,1.38.06.37-.07.77-.14,1.15-.14.25,0,.28.04.21.3-.04.16-.12.3-.21.44-.37.57-.88,1.07-1.36,1.55s-1,.95-1.54,1.38c-.17.14-.03.44.18.43,2.45-.12,4.87-.59,7.17-1.42.3-.11.17-.59-.13-.48-2.27.82-4.64,1.29-7.04,1.41l.18.43c.62-.5,1.21-1.03,1.76-1.61.49-.51,1.08-1.07,1.37-1.71.22-.48.22-1.2-.46-1.2-.4,0-.82.06-1.22.13-.25.04-.88.31-1.09.1l-.05.39c1.15-.74,2.23-1.56,3.25-2.47.2-.18-.02-.45-.24-.42l-2.66.44c-.32.05-.18.53.13.48h0Z"/>
  <path class="cls-1" d="m50.27,21.47l-2.19.35c-.28.05-.58.07-.78.31-.18.22-.22.56-.28.83-.36,1.43-.72,2.87-1.08,4.3-.08.31.4.45.48.13.33-1.29.65-2.58.98-3.87.08-.3.14-.6.23-.9.05-.18.11-.23.29-.27.15-.04.31-.05.47-.08l2.02-.32c.32-.05.18-.53-.13-.48h0Z"/>
  <path class="cls-1" d="m52.04,24.86c.66-.08,1.33-.13,2-.16.34-.01.68-.02,1.02-.01.21,0,.59-.04.7.19.09.19-.04.45-.14.61-.14.23-.32.43-.51.62-.38.39-.8.73-1.26,1.01-.53.32-1.11.56-1.71.72-.31.08-.18.56.13.48,1.23-.32,2.36-.98,3.24-1.9.38-.41.87-.95.76-1.56-.13-.75-1.02-.68-1.59-.67-.88,0-1.76.07-2.64.17-.14.02-.25.1-.25.25,0,.12.12.27.25.25h0Z"/>
  <path class="cls-1" d="m50.66,29.61c2.35-.4,4.71-.79,7.06-1.19.32-.05.18-.54-.13-.48-2.35.4-4.71.79-7.06,1.19-.32.05-.18.54.13.48h0Z"/>
  <path class="cls-1" d="m58.66,22.98c.5-.07,1.09-.1,1.59.05.62.18-.17.76-.4.93-.8.58-1.71,1.01-2.6,1.43-.25.12-.07.56.19.46,1.25-.47,2.52-.94,3.85-1.11l-.22-.38c-.69.95-1.88,1.33-2.95,1.67-.21.07-.24.34-.06.46.23.15.41.35.54.59s.15.48.22.72c.15.54.65.67,1.14.48,1.05-.42,2.02-1.16,2.84-1.94.23-.22-.12-.58-.35-.35-.75.71-1.59,1.31-2.52,1.76-.2.1-.51.24-.61-.05-.07-.21-.09-.43-.17-.64-.17-.42-.46-.76-.83-1.01l-.06.46c1.21-.38,2.47-.83,3.25-1.9.11-.14-.03-.4-.22-.38-1.38.17-2.68.64-3.98,1.13l.19.46c.6-.28,1.2-.56,1.77-.9.52-.3,1.14-.65,1.51-1.14.33-.44.25-1-.29-1.2-.6-.22-1.34-.17-1.96-.08-.32.05-.18.53.13.48h0Z"/>
  <path class="cls-1" d="m62.67,21.29c-.12,4.01-.37,8.01-.75,12-.03.32.47.32.5,0,.38-3.99.63-7.99.75-12,0-.32-.49-.32-.5,0h0Z"/>
  <path class="cls-1" d="m65.23,21.2c-.3.31-.55.62-.58,1.06-.01.15.17.3.32.24,1.35-.56,2.67-1.18,3.96-1.87.17-.09.15-.33,0-.43-.39-.25-.85-.19-1.28-.07-.53.16-1.05.35-1.56.55-1.01.4-1.99.87-2.93,1.41-.28.16-.03.59.25.43.85-.48,1.72-.92,2.62-1.28.44-.18.88-.34,1.33-.49.4-.13.92-.37,1.32-.12v-.43c-1.25.67-2.53,1.28-3.84,1.82l.32.24c.02-.29.25-.51.44-.71.22-.23-.13-.59-.35-.35h0Z"/>
  <path class="cls-1" d="m64.7,23.67c1.04-.29,2.11-.49,3.18-.59l-.07-.49c-.32.08-.64.16-.96.24-.24.06-.49.11-.63.32s-.14.48-.16.72c-.02.34-.05.68-.07,1.01-.09,1.35-.16,2.7-.21,4.06-.01.32.49.32.5,0,.05-1.15.1-2.31.17-3.46.03-.56.07-1.11.11-1.67.01-.17-.01-.33.16-.43.08-.05.22-.06.32-.08.3-.08.61-.15.91-.23.27-.07.22-.52-.07-.49-1.12.1-2.23.3-3.32.6-.31.09-.18.57.13.48h0Z"/>
  <path class="cls-1" d="m64.3,29.29l-.1,1.09.43-.18c-.32-.26.06-.73.27-.91.37-.32.86-.5,1.35-.5.07,0,.23-.01.28.05s-.03.17-.07.22c-.14.21-.38.36-.58.51-.45.33-.95.6-1.47.8-.18.07-.25.27-.11.42.42.46,1.15.2,1.64.03.63-.22,1.24-.52,1.8-.88.27-.18.02-.61-.25-.43-.48.31-.99.58-1.52.78-.25.09-.51.18-.78.24-.18.04-.4.07-.54-.08l-.11.42c.55-.21,1.07-.48,1.55-.82.39-.27,1.05-.7.94-1.27s-.93-.51-1.36-.41c-.5.12-1,.39-1.33.8-.31.38-.51,1.05-.06,1.41.17.14.41.05.43-.18l.1-1.09c.01-.13-.12-.25-.25-.25-.15,0-.24.11-.25.25h0Z"/>
  <path class="cls-1" d="m69.26,23.11c-.18.31-.79,1.12-.1,1.28.27.06.56-.11.79-.23.37-.18.74-.39,1.09-.61.3-.19.59-.4.88-.62.21-.16.44-.36.34-.65-.21-.64-1.26-.36-1.7-.24-1.39.4-2.76,1.09-3.84,2.06-.37.33-1.04.99-.99,1.54.06.63,1.1.44,1.51.41,1.84-.14,3.6-.79,5.42-1.02l-.13-.47c-.87.44-1.83.67-2.68,1.16-.69.4-1.53,1.14-1.41,2.03.13,1.07,1.38.9,2.14.73,1.17-.25,2.3-.68,3.36-1.23.29-.15.03-.58-.25-.43-.86.45-1.75.8-2.69,1.05-.56.15-2.4.67-2.01-.55.23-.72,1.02-1.16,1.67-1.45.71-.32,1.45-.54,2.14-.89.21-.11.12-.5-.13-.47-1.39.17-2.73.58-4.1.84-.39.07-.79.14-1.19.17-.28.02-.73.13-.98.03-.15.04-.19,0-.1-.13.03-.07.07-.14.11-.21.08-.14.18-.26.28-.39.2-.23.43-.44.66-.62,1.06-.84,2.39-1.52,3.72-1.79.14-.03.3-.06.45-.05.44.06.08.17-.11.31-.3.22-.61.43-.93.61-.28.17-.56.32-.86.46-.09.05-.19.09-.29.13.03.06.05.03.08-.09.06-.15.18-.3.26-.44.16-.28-.27-.53-.43-.25h0Z"/>
  <path class="cls-1" d="m78.54,23.83c.24.61.07,1.29.34,1.9s.88.82,1.49.66,1.14-.58,1.55-1.03.74-1.01.84-1.62c.05-.31-.43-.45-.48-.13-.09.51-.33.97-.67,1.36s-.77.75-1.26.91c-.22.07-.46.11-.68.02s-.34-.33-.4-.56c-.15-.54-.03-1.11-.24-1.64-.12-.3-.6-.17-.48.13h0Z"/>
  <path class="cls-1" d="m82.28,21.29c.1,1.76.21,3.52.31,5.28.02.32.52.32.5,0-.1-1.76-.21-3.52-.31-5.28-.02-.32-.52-.32-.5,0h0Z"/>
  <path class="cls-1" d="m83.65,24.53c.54-.42,1.12-.78,1.73-1.07.12-.06.15-.23.09-.34-.07-.12-.22-.15-.34-.09-.65.32-1.26.71-1.83,1.15-.11.08-.09.27,0,.35.11.11.25.08.35,0h0Z"/>
  <path class="cls-1" d="m80.41,28.44c.36.02.77.06,1.1.21.18.08.05.22-.03.34-.09.13-.2.26-.31.38-.45.47-1.03.79-1.67.93l.24.42c.81-.71,1.73-1.28,2.73-1.67l-.31-.17c.07.2-.07.37-.2.52-.16.18-.33.34-.5.51-.34.35-.69.71-1.03,1.06-.15.15-.04.43.18.43.53,0,1.05.19,1.44.55.36.34.6.76,1.09.95.3.12.43-.37.13-.48-.24-.09-.41-.31-.57-.5-.17-.2-.35-.39-.57-.55-.44-.32-.98-.48-1.52-.48l.18.43c.42-.44.85-.87,1.27-1.31.32-.33.76-.75.58-1.27-.04-.12-.17-.23-.31-.17-1.09.42-2.08,1.03-2.95,1.8-.2.17.02.47.24.42.88-.2,1.66-.71,2.2-1.43.24-.33.45-.8.02-1.08-.39-.26-.99-.31-1.44-.33-.32-.01-.32.49,0,.5h0Z"/>
  <path class="cls-1" d="m86.81,25.22c-.09.33-.17.66-.21,1-.04.32-.13.7.04,1,.15.26.47.39.76.35.31-.03.57-.21.79-.43s.42-.48.57-.76.25-.58.18-.88-.33-.49-.61-.57c-.26-.07-.57-.09-.83,0-.31.11-.55.38-.47.73.03.15.12.29.25.37.15.1.31.09.46.02.12-.05.15-.24.09-.34-.07-.13-.22-.14-.34-.09.02,0,.03,0,.05-.01.04,0-.03,0,0,0,.03,0,.02.04,0,0,0,0-.03-.04,0,0,0-.01-.02-.03-.02-.04.02.03,0,0,0-.01-.01-.04,0-.02,0,0,0-.01,0-.07,0-.03,0-.06-.01,0,0-.02.02-.03-.02.02.01-.02.03-.03.04-.03.08-.05.05-.03.13-.04.19-.04.28-.02.7.03.66.39-.02.2-.14.39-.25.56-.11.18-.25.34-.4.49-.07.07-.14.13-.22.17-.07.04-.16.08-.22.09-.13.02-.27-.02-.32-.15-.04-.11-.01-.24,0-.36.01-.13.03-.25.05-.38.05-.28.11-.56.19-.84.09-.31-.39-.44-.48-.13h0Z"/>
  <path class="cls-1" d="m91.76,22.34c-.88,2.71-.49,5.74,1.05,8.14.17.27.61.02.43-.25-1.47-2.29-1.84-5.16-1-7.75.1-.31-.38-.44-.48-.13h0Z"/>
  <path class="cls-1" d="m93.85,24.04c.38-.11.92-.29,1.25.05.31.31-.1.8-.29,1.07-.5.72-1.17,1.31-1.92,1.75-.28.16-.03.59.25.43.94-.55,1.75-1.33,2.32-2.26.15-.24.28-.51.25-.8-.02-.24-.15-.45-.33-.61-.48-.4-1.11-.28-1.66-.11-.31.09-.18.57.13.48h0Z"/>
  <path class="cls-1" d="m97.28,22.23c-.07,2.56.05,5.12.35,7.67.04.32.54.32.5,0-.3-2.54-.42-5.1-.35-7.67,0-.32-.49-.32-.5,0h0Z"/>
  <path class="cls-1" d="m98.75,26.27c.61-.27,1.25-.49,1.9-.66.31-.08.18-.56-.13-.48-.69.18-1.37.41-2.02.71-.12.06-.15.23-.09.34.07.13.22.15.34.09h0Z"/>
  <path class="cls-1" d="m101.43,21.64c.91-.05,1.83-.09,2.73.12l-.06-.46c-.84.44-1.67.88-2.51,1.32-.42.22-1.52.61-1.14,1.28.04.08.13.12.22.12.65,0,1.31,0,1.96,0,.19,0,.37,0,.56,0,.09,0,.37-.05.42,0,.15.16-.17.5-.26.62-.74.91-1.61,1.72-2.55,2.41-.12.09-.18.28-.05.39.42.36.95.33,1.47.28.59-.05,1.18-.15,1.76-.26,1.27-.23,2.54-.5,3.83-.34.32.04.32-.46,0-.5-1.11-.14-2.22.03-3.32.24-.56.1-1.13.22-1.69.3-.46.06-1.31.27-1.7-.07l-.05.39c.6-.44,1.16-.92,1.69-1.44.28-.28.54-.56.8-.86.2-.24.43-.47.54-.77.08-.2.11-.45-.02-.64-.17-.25-.46-.26-.74-.26-.89,0-1.78,0-2.67.01l.22.12c-.06-.11,3.17-1.75,3.47-1.92.19-.1.15-.41-.06-.46-.94-.22-1.9-.19-2.86-.14-.32.02-.32.52,0,.5h0Z"/>
  <path class="cls-1" d="m114.26,22.92c.49-.14.99-.26,1.49-.34.26-.04.52-.08.78-.11.22-.02.5-.09.72-.05.87.16-.49,1.89-.72,2.18-1.1,1.36-2.46,2.47-4.01,3.27l.25.43c.53-.37,1.06-.75,1.6-1.12.26-.18.52-.37.78-.55.25-.17.53-.36.84-.37.55-.03.88.52,1.12.94s.51.85.95,1.09c.28.16.53-.27.25-.43-.51-.29-.7-.87-1.03-1.32-.31-.43-.74-.8-1.29-.78-.63.02-1.15.48-1.64.82-.61.43-1.22.86-1.83,1.29-.26.18-.04.58.25.43,1.83-.95,3.44-2.33,4.63-4.02.38-.54,1.16-2,.1-2.32-.48-.14-1.1.02-1.59.09-.6.09-1.19.22-1.77.39-.31.09-.18.57.13.48h0Z"/>
  <path class="cls-1" d="m120.34,25.66c.73-.38,1.5-.79,2.01-1.46.6-.8.59-1.77.52-2.72-.02-.26-.44-.36-.49-.07-.49,2.82-.85,5.65-1.07,8.51-.03.32.47.32.5,0,.22-2.81.57-5.6,1.06-8.37l-.49-.07c.07.88.11,1.8-.49,2.51-.47.56-1.15.91-1.79,1.24-.29.15-.03.58.25.43h0Z"/>
  <path class="cls-1" d="m126.98,21.34c-.15.91-.19,1.82-.11,2.74l.49-.07c-.06-.3-.13-.6-.19-.9s-.14-.59-.19-.88c-.01-.09-.02-.19.04-.26s.17-.11.26-.13c.27-.09.54-.14.82-.19s.58-.06.87-.05c.05,0,.18-.01.22.04s0,.14,0,.2c-.07.21-.22.41-.36.59-.15.2-.32.39-.49.58-.4.42-.85.77-1.35,1.06-.24.14-.08.53.19.46.89-.24,1.74-.59,2.54-1.04.28-.16.03-.59-.25-.43-.76.43-1.58.76-2.42.99l.19.46c.54-.31,1.04-.7,1.47-1.16.22-.23.42-.48.61-.74.16-.22.33-.46.38-.74.05-.3-.07-.59-.37-.7s-.68-.05-.99-.03c-.36.03-.72.1-1.06.2-.27.08-.56.18-.7.44-.19.35-.02.79.06,1.15.09.41.17.82.26,1.23.06.27.51.22.49-.07-.07-.87-.05-1.74.09-2.6.02-.13-.03-.27-.17-.31-.12-.03-.29.04-.31.17h0Z"/>
  <path class="cls-1" d="m125.92,25.92l3.4-.86c.28-.07.21-.48-.07-.49-.75-.03-1.39.46-1.75,1.09-.2.34-.32.72-.43,1.09-.08.29-.26.73.1.9.3.14.68-.08.95-.19.15-.07,1.23-.57,1.2-.24-.02.19-.42.41-.55.51-.2.15-.39.3-.59.45-.39.3-.79.6-1.18.89-.2.15-.1.56.19.46.96-.34,1.91-.69,2.87-1.03l-.24-.06c.2.21-1.73,1.79-1.94,1.99-.15.13-.06.36.11.42.79.26,1.72-.16,2.45.27.32.19.61.37,1,.27s.7-.4.96-.69c.22-.24-.14-.59-.35-.35s-.54.62-.91.57c-.18-.02-.33-.16-.49-.25-.15-.08-.3-.14-.47-.18-.68-.15-1.39.11-2.06-.11l.11.42c.54-.5,1.09-.99,1.63-1.49.33-.31.69-.79.31-1.21-.06-.06-.16-.09-.24-.06-.96.34-1.91.69-2.87,1.03l.19.46c.74-.56,1.53-1.09,2.23-1.7.54-.47.38-1.28-.42-1.19-.37.04-.71.2-1.05.36-.14.06-.4.23-.57.22.02.09.03.08.04-.04l.03-.1c.03-.1.06-.21.09-.31.24-.78.72-1.7,1.65-1.66l-.07-.49-3.4.86c-.31.08-.18.56.13.48h0Z"/>
  <path class="cls-1" d="m133.43,20.9c.41-.05.83-.07,1.24-.08.33,0,.76-.04,1.07.11.39.2.08.67-.09.91-.2.31-.42.61-.65.89-.9,1.12-1.98,2.08-3.2,2.84l.3.39c.52-.52,1.2-1.02,1.93-1.2.64-.16,1.07.21,1.47.65.34.37.67.77,1.14.96.22.09.49.15.69,0,.25-.2.22-.7.26-.99.04-.31-.44-.45-.48-.13-.03.19-.05.39-.08.58-.01.08,0,.12-.03.13s-.12-.03-.16-.04c-.23-.09-.41-.25-.58-.42-.35-.35-.65-.77-1.08-1.03-1.15-.72-2.62.35-3.43,1.15-.2.2.06.55.3.39,1.46-.91,2.73-2.09,3.74-3.49.38-.53,1.07-1.48.27-1.98-.33-.2-.74-.2-1.11-.21-.51-.01-1.01.02-1.51.07-.32.04-.32.54,0,.5h0Z"/>
  <path class="cls-1" d="m139.19,21.41c.1,2.61-.27,5.21-1.09,7.7-.1.31.38.44.48.13.83-2.52,1.21-5.18,1.11-7.83-.01-.32-.51-.32-.5,0h0Z"/>
  <path class="cls-1" d="m144.07,21.83c-.39.33-.73.72-.99,1.16-.12.21-.23.43-.2.68.02.23.15.42.33.55.4.3.94.2,1.38.05s.87-.37,1.25-.65c.61-.46,1.6-1.46,1.04-2.29-.52-.76-1.63-.33-2.26.02-.46.26-.88.6-1.23.99-.17.19-.38.42-.33.7.05.26.3.44.56.36.3-.1.17-.58-.13-.48l.07.03s.01-.02.02-.03c.02-.02.03-.06.05-.08.05-.07.11-.13.17-.19.12-.13.24-.25.38-.37.26-.23.56-.42.87-.58.35-.18,1.23-.57,1.47-.03.13.28-.08.64-.25.86-.19.26-.43.49-.69.68s-.56.37-.86.5-.69.27-1.02.19c-.13-.03-.28-.12-.31-.26-.04-.18.13-.39.22-.52.23-.35.51-.66.83-.93.25-.21-.11-.56-.35-.35h0Z"/>
  <path class="cls-1" d="m147.95,20.64c-.12,1.45-.24,2.9-.36,4.35-.03.32.47.32.5,0,.12-1.45.24-2.9.36-4.35.03-.32-.47-.32-.5,0h0Z"/>
  <path class="cls-1" d="m148.88,23.34c.6-.37,1.3-.53,2-.45.13.02.25-.13.25-.25,0-.15-.12-.23-.25-.25-.78-.09-1.58.1-2.25.52-.27.17-.02.6.25.43h0Z"/>
  <path class="cls-1" d="m144.18,26.21c-.43.65-.79,1.35-1.07,2.08-.11.29-.29.66-.27.98.02.35.33.51.63.58.74.17,1.51-.07,2.22-.28.8-.24,1.58-.54,2.33-.88.29-.13.04-.56-.25-.43-.62.28-1.26.53-1.91.74-.61.2-1.26.43-1.91.42-.16,0-.31-.02-.46-.07-.16-.05-.15-.12-.11-.27.08-.3.19-.59.31-.88.25-.61.56-1.18.93-1.73.18-.27-.25-.52-.43-.25h0Z"/>
  <path class="cls-1" d="m147.21,26.43c.76-.08,1.52-.12,2.28-.13l-.22-.38c-.18.23-.5.33-.76.43-.34.13-.67.27-1.01.4-.68.27-1.37.55-2.05.82-.2.08-.25.33-.06.46.24.17.53.17.82.13.34-.05.68-.14,1.01-.21.73-.16,1.45-.31,2.18-.47l-.32-.24c0,.2-.25.34-.39.44-.21.15-.41.31-.62.46-.4.3-.8.6-1.2.9-.12.09-.18.28-.05.39.38.34.85.28,1.32.29.2,0,.46.02.6.18.07.08.09.19.12.29.05.12.1.23.19.32.1.1.26.09.35,0,.25-.22.46-.48.62-.78.13-.25.27-.57.03-.8-.22-.22-.6-.15-.88-.13-.37.03-.74.1-1.11.2-.31.08-.18.57.13.48.45-.12.94-.22,1.41-.2.1,0,.07,0,.03.1-.04.1-.1.2-.16.29-.12.19-.27.35-.43.49h.35c-.15-.17-.15-.43-.32-.61-.15-.16-.36-.25-.58-.29-.23-.04-.46-.03-.69-.03s-.48,0-.65-.15l-.05.39c.49-.37.98-.74,1.47-1.1.37-.28,1-.59.98-1.13,0-.17-.15-.28-.32-.24-.64.14-1.28.28-1.93.41-.31.07-.63.13-.94.2-.25.05-.53.14-.76-.01l-.06.46c.76-.31,1.53-.61,2.29-.92.36-.14.72-.28,1.08-.43.3-.13.55-.28.75-.54.12-.16-.04-.38-.22-.38-.76,0-1.52.04-2.28.13-.32.03-.32.54,0,.5h0Z"/>
  <path class="cls-1" d="m152.47,21.82c.63-.19,1.28-.34,1.94-.44.22-.03.62-.14.8.03.16.14.08.42.01.6-.19.55-.55,1.07-.86,1.56-.34.52-.71,1.02-1.11,1.5-.21.24.14.6.35.35.48-.56.92-1.16,1.31-1.79.2-.32.38-.64.55-.97.14-.28.28-.56.32-.87.03-.28-.03-.56-.24-.76-.24-.22-.58-.22-.89-.19-.79.09-1.56.26-2.32.49-.31.09-.18.58.13.48h0Z"/>
  <path class="cls-1" d="m151.95,25.15c0,1.21-.71,2.31-1.78,2.84-.27.14-.07.5.19.46,1.18-.19,2.34-.64,3.48-.99.58-.18,1.15-.35,1.73-.53.51-.16,1.05-.28,1.47-.63.24-.21-.11-.56-.35-.35-.42.36-1.1.46-1.62.62s-1.07.33-1.61.49c-1.06.33-2.13.74-3.23.92l.19.46c1.23-.61,2.03-1.9,2.03-3.27,0-.32-.5-.32-.5,0h0Z"/>
  <path class="cls-1" d="m159.74,24.71c.22.84.42,1.68.57,2.53.04.21.07.43.11.64.03.19.16.58-.04.72-.12.08-.45.03-.59.03-.23,0-.45,0-.68,0-1.78.04-3.56.2-5.32.46-.32.05-.18.53.13.48,1.05-.16,2.1-.28,3.16-.35s2.05-.05,3.07-.1c.31-.01.63-.1.77-.41.16-.36,0-.87-.07-1.24-.16-.98-.38-1.96-.63-2.92-.08-.31-.57-.18-.48.13h0Z"/>
  <path class="cls-1" d="m12.87,53.86c.13-.4.35-.7.66-.97l-.39-.3c-1.52,3.56-3.12,7.08-4.81,10.57-.14.29.29.54.43.25,1.69-3.48,3.29-7,4.81-10.57.11-.26-.17-.5-.39-.3-.38.33-.63.72-.79,1.19-.1.31.38.44.48.13h0Z"/>
  <path class="cls-1" d="m13.15,54.41c.42.02,1.21.06,1.27.63.03.26-.17.51-.33.7-.19.21-.39.42-.6.61-.4.37-.84.7-1.31.99-.23.14-.47.28-.72.4-.12.06-.25.12-.37.17-.06.03-.12.06-.18.08-.02,0-.04.01-.07.02-.06,0-.04.01.04.06-.06-.32-.54-.18-.48.13.17.94,2.4-.66,2.73-.91.46-.35.9-.74,1.28-1.17.36-.41.67-.95.39-1.49-.32-.61-1.04-.7-1.66-.72-.32-.02-.32.48,0,.5h0Z"/>
  <path class="cls-1" d="m16.91,56.47c.32,0,.32-.5,0-.5s-.32.5,0,.5h0Z"/>
  <path class="cls-1" d="m22.27,54.05c-.59.68-1.19,1.36-1.78,2.04-.18.21.05.53.3.39.81-.44,1.24-1.31,1.93-1.88.74-.62,1.67-1.02,2.62-1.14.2-.02.55-.1.72.03s.1.43.04.6c-.17.5-.52.95-.85,1.35-.65.8-1.37,1.54-2.14,2.22-.87.77-1.81,1.45-2.81,2.05-.28.17-.02.6.25.43,2.01-1.21,3.86-2.78,5.29-4.65.4-.52,1.42-1.99.42-2.48-.42-.21-1.07-.05-1.51.05-.51.11-1,.3-1.45.55-.52.28-1,.65-1.4,1.08-.44.47-.78,1.05-1.36,1.37l.3.39c.59-.68,1.19-1.36,1.78-2.04.21-.24-.14-.6-.35-.35h0Z"/>
  <path class="cls-1" d="m29.38,53.24c-.36.47-.72.93-.95,1.48-.18.44-.29.99-.01,1.41.61.94,1.95.18,2.56-.34.76-.65,1.27-1.6,1.4-2.6.06-.47.03-1.15-.61-1.14-.25,0-.48.13-.69.24-.26.13-.51.27-.75.42-1.09.66-2.06,1.51-2.86,2.5-.2.25.15.6.35.35.57-.7,1.23-1.34,1.95-1.88.35-.26.72-.5,1.1-.72.18-.11.37-.21.56-.3s.46-.23.48.09c.04.77-.33,1.61-.81,2.2-.26.31-.56.58-.9.8-.3.19-.7.38-1.06.3-.5-.11-.39-.74-.25-1.09.19-.51.54-.95.86-1.37.19-.25-.16-.61-.35-.35h0Z"/>
  <path class="cls-1" d="m48.95,51.24c.38-.08.76-.14,1.15-.18.18-.02.36-.04.55-.05.1,0,.36-.06.43.03.15.18-.15.58-.25.71-.19.25-.42.46-.66.66-.93.8-1.98,1.72-3.27,1.8-.32.02-.32.52,0,.5,1.25-.08,2.28-.83,3.21-1.6.46-.38.95-.77,1.26-1.29.24-.4.39-1.13-.22-1.3-.34-.1-.77,0-1.11.05-.41.05-.83.11-1.24.2-.32.06-.18.54.13.48h0Z"/>
  <path class="cls-1" d="m52.55,48.75c-.28,1.67-.39,3.36-.31,5.05.02.32.52.32.5,0-.08-1.64.02-3.29.29-4.91.05-.31-.43-.45-.48-.13h0Z"/>
  <path class="cls-1" d="m53.42,51.55c.66-.17,1.31-.33,1.97-.49.32-.08.65-.16.97-.23s.63-.16.95-.06.44-.38.13-.48c-.33-.11-.66-.07-.99,0s-.69.17-1.03.25c-.71.17-1.42.35-2.13.53-.31.08-.18.56.13.48h0Z"/>
  <path class="cls-1" d="m50.42,55.14c.54-.07,1.08-.11,1.62-.14.24-.01.5-.04.74-.02.06,0,.18,0,.22.05.07.07-.04.15-.1.21-.31.33-.78.51-1.18.71-.51.26-1.03.51-1.55.77-.25.12-.08.55.19.46,1.01-.35,2.04-.62,3.1-.8l-.31-.17c.03.12-.32.27-.4.32-.18.1-.37.2-.56.29-.37.18-.76.32-1.15.44-.21.06-.24.34-.06.46.64.41,1.39.5,2.08.77.63.24,1.33.92,1.98.33.24-.22-.11-.57-.35-.35s-.62-.02-.85-.15c-.27-.16-.55-.28-.85-.38-.59-.2-1.22-.3-1.75-.64l-.06.46c.54-.16,1.07-.38,1.57-.64.39-.2,1.01-.48.89-1.02-.03-.14-.18-.2-.31-.17-1.05.18-2.09.45-3.1.8l.19.46c.64-.31,1.28-.63,1.91-.95.42-.21,1.13-.54,1.19-1.08.07-.57-.6-.65-1.01-.64-.7.01-1.4.07-2.1.15-.32.04-.32.54,0,.5h0Z"/>
  <path class="cls-1" d="m58.37,49.71c-.27.48-.57.96-.88,1.42-.15.22-.3.44-.46.65-.13.18-.27.38-.5.43l.32.24c.03-.77,1-.9,1.59-.91.8-.01,1.59.16,2.38.32.31.07.45-.42.13-.48-.95-.2-1.93-.41-2.9-.32-.79.07-1.66.48-1.69,1.39,0,.17.16.27.32.24.53-.11.84-.7,1.12-1.11.36-.52.7-1.06,1.01-1.62.16-.28-.27-.53-.43-.25h0Z"/>
  <path class="cls-1" d="m56.36,54.77c1.82-.18,3.63-.35,5.45-.53.32-.03.33-.48,0-.5-.63-.04-1.27-.02-1.89.1s-.61.66-.64,1.18c-.07,1.3,0,2.61.18,3.9.04.32.53.18.48-.13-.15-1.07-.21-2.15-.18-3.23,0-.25.02-.5.03-.75,0-.1-.02-.32.05-.41s.24-.09.34-.1c.53-.08,1.08-.09,1.61-.06v-.5c-1.82.18-3.63.35-5.45.53-.32.03-.32.53,0,.5h0Z"/>
  <path class="cls-1" d="m65.66,47.3c.34.1.24.52.07.72-.18.21-.45.34-.7.47-.57.28-1.17.47-1.77.66-.25.08-.23.52.07.49,1.04-.09,2.07-.26,3.09-.49l-.32-.24c.05.39-.79.73-1.07.89-.43.24-.86.47-1.3.68-.26.12-.08.53.19.46.4-.11.8-.21,1.2-.3.21-.05.43-.09.64-.13.14-.03.52-.15.58-.02.08.21-.62.71-.78.83-.33.27-.69.52-1.06.75-.2.12-.13.48.13.47.65-.05,1.3-.09,1.96-.14.15-.01.3-.04.45-.03.22.01.26.03.13.24s-.38.32-.59.43c-1.15.56-2.38.97-3.59,1.39-.3.11-.18.58.13.48,1.11-.34,2.23-.68,3.37-.91.58-.11,1.17-.2,1.76-.22.39-.02,1.04-.02,1.2.43.11.3.59.17.48-.13-.38-1.07-1.88-.81-2.74-.69-1.44.2-2.83.62-4.21,1.05l.13.48c.83-.29,1.66-.58,2.48-.91.63-.25,1.47-.48,1.92-1.02.32-.38.36-1.02-.25-1.1-.38-.05-.81.04-1.2.07-.48.03-.95.07-1.43.1l.13.47c.52-.32,1.01-.68,1.47-1.09.3-.27.87-.71.64-1.18-.2-.43-.73-.3-1.09-.23-.67.12-1.33.28-1.99.46l.19.46c.61-.29,1.21-.61,1.78-.96.38-.23.9-.51.84-1.03-.02-.16-.14-.28-.32-.24-.97.23-1.96.38-2.95.47l.07.49c.86-.28,1.99-.54,2.64-1.21.46-.47.48-1.38-.25-1.6-.31-.09-.44.39-.13.48h0Z"/>
  <path class="cls-1" d="m64.21,55.9c.77-.24,1.64-.42,2.45-.34.24.02.59.11.53.42s-.41.64-.62.87c-.98,1.08-2.18,1.94-3.51,2.55-.29.13-.04.56.25.43,1.21-.55,2.33-1.32,3.27-2.26.24-.24.46-.48.67-.74s.41-.52.44-.85c.06-.64-.56-.9-1.09-.93-.84-.05-1.73.11-2.53.36-.31.1-.18.58.13.48h0Z"/>
  <path class="cls-1" d="m78.71,49.09c-.57.69-1.15,1.37-1.74,2.04-.29.33-.58.66-.87.98-.27.29-.53.58-.89.77l.38.22c.04-.33.33-.57.62-.69.41-.16.85-.1,1.27.01.69.18,1.98.79,2.33-.22.11-.3-.38-.44-.48-.13-.15.44-.95.1-1.23,0-.47-.14-.95-.29-1.45-.27-.74.04-1.47.51-1.56,1.28-.02.2.23.3.38.22.34-.19.63-.45.89-.74.31-.34.61-.68.92-1.02.61-.69,1.21-1.39,1.8-2.1.2-.25-.15-.6-.35-.35h0Z"/>
  <path class="cls-1" d="m78.7,51.03c1.05.09,2.11-.07,3.08-.47.13-.05.21-.17.17-.31-.03-.12-.18-.23-.31-.17-.94.38-1.94.53-2.95.45-.32-.03-.32.47,0,.5h0Z"/>
  <path class="cls-1" d="m81.45,48.69c.02,2,.08,4,.18,6,.02.32.52.32.5,0-.11-2-.17-4-.18-6,0-.32-.5-.32-.5,0h0Z"/>
  <path class="cls-1" d="m84.93,46.71c-.3,3.4-.59,6.81-.89,10.21-.03.32.47.32.5,0,.3-3.4.59-6.81.89-10.21.03-.32-.47-.32-.5,0h0Z"/>
  <path class="cls-1" d="m88.87,46.9c-.36.82-.79,1.6-1.29,2.33-.25.36-.51.71-.8,1.04-.14.17-.29.34-.44.5-.06.06-.37.46-.47.42l.09.34c.35-.81,1.18-1.35,2.06-1.3.52.03,1.01.3,1.44.58.2.13.41.28.66.25.2-.03.39-.18.42-.39.04-.31-.44-.45-.48-.13-.01.07-.2-.07-.25-.09-.11-.07-.22-.15-.34-.21-.22-.13-.46-.25-.7-.34-.43-.16-.88-.2-1.33-.12-.83.15-1.59.73-1.92,1.5-.05.11-.04.28.09.34.48.22.84-.24,1.13-.55.35-.38.68-.78.99-1.2.62-.84,1.15-1.75,1.57-2.71.13-.29-.3-.55-.43-.25h0Z"/>
  <path class="cls-1" d="m90.94,45.31c.22,2.31.53,4.61.92,6.89.05.32.54.18.48-.13-.39-2.24-.69-4.5-.9-6.76-.03-.32-.53-.32-.5,0h0Z"/>
  <path class="cls-1" d="m92.3,50.26c.66-.43,1.45-.61,2.23-.52.13.02.25-.13.25-.25,0-.15-.12-.23-.25-.25-.86-.1-1.76.12-2.48.59-.27.17-.02.61.25.43h0Z"/>
  <path class="cls-1" d="m90.99,53.29c-.29.39-.55.8-.76,1.23-.08.15,0,.31.15.37.22.08.44-.01.63-.13.2-.12.39-.26.59-.39.38-.27.76-.55,1.12-.84.18-.14.35-.29.52-.44.15-.13.29-.3.32-.51s-.1-.42-.31-.49-.46,0-.67.04c-.52.09-1.02.23-1.51.42l.19.46c.09-.05.18-.1.27-.15.28-.15.03-.58-.25-.43-.09.05-.18.1-.27.15-.24.13-.08.56.19.46.44-.17.89-.3,1.36-.39.12-.02.23-.04.35-.06.04,0,.09-.01.14-.01.13,0,0,0,.04-.03-.03.02.02-.08-.03.03-.02.03-.04.06-.06.08-.08.08-.17.15-.26.23-.36.3-.72.59-1.1.86-.18.13-.37.26-.56.39-.1.07-.2.14-.31.2-.08.05-.16.11-.25.08l.15.37c.22-.43.47-.84.76-1.23.08-.11.02-.28-.09-.34-.13-.07-.26-.02-.34.09h0Z"/>
  <path class="cls-1" d="m97.21,47.14c-.75.4-1.47.84-2.16,1.33-.42.3-1.22.71-1.02,1.34.03.09.13.2.24.18,1.39-.19,2.74-.62,3.96-1.33.35-.2,1.14-.55,1.08-1.06-.07-.57-.93-.46-1.3-.34-1.27.38-2.48,1.32-3.45,2.2-.34.31-1.07.83-1.03,1.36.03.45.5.62.89.64.87.06,1.8-.1,2.66-.2.42-.05.84-.11,1.26-.19.46-.08,1-.26,1.44-.05l-.09-.34c-.51.73-1.32,1.16-2.02,1.7-.38.29-1.4,1.05-.73,1.56.26.2.63.14.93.11.51-.06,1.01-.14,1.52-.22,1.14-.19,2.26-.44,3.37-.75.31-.08.18-.57-.13-.48-.89.24-1.79.45-2.69.62-.4.07-.79.14-1.19.2-.26.04-.53.08-.79.11-.15.02-.38.09-.54.05-.28-.07-.05-.28.09-.41.12-.12.26-.24.39-.34.26-.2.54-.39.8-.58.54-.38,1.04-.78,1.42-1.32.07-.1.03-.29-.09-.34-.55-.25-1.09-.13-1.66-.03-.8.14-1.61.25-2.42.32-.34.03-.69.05-1.03.07-.22.01-.93.12-.87-.26.03-.21.48-.52.63-.67.26-.25.52-.48.8-.7.54-.43,1.12-.81,1.72-1.15.34-.19.7-.39,1.08-.47.1-.02.54-.13.45.05-.04.08-.34.24-.42.29-1.22.77-2.6,1.27-4.03,1.46l.24.18c-.1-.33,1.13-1.01,1.38-1.18.51-.33,1.03-.64,1.57-.93.28-.15.03-.58-.25-.43h0Z"/>
  <path class="cls-1" d="m106.33,45.3c.95-.03,1.89-.16,2.81-.41.23-.06.25-.44,0-.48-1.3-.23-2.26.77-2.84,1.81-.27.49-.55,1.13-.02,1.55.44.35,1.14.35,1.67.34.74-.02,1.46-.19,2.14-.49.29-.13.04-.56-.25-.43-.62.27-1.29.41-1.96.42-.34,0-1.42.06-1.41-.48,0-.28.22-.58.36-.82.16-.27.34-.54.56-.76.41-.43,1.01-.76,1.62-.65v-.48c-.88.23-1.77.36-2.68.39-.32,0-.32.51,0,.5h0Z"/>
  <path class="cls-1" d="m109.98,45.37c.68-.1,1.35-.25,2.01-.44.56-.16,1.15-.35,1.57-.77.22-.23-.13-.58-.35-.35-.38.39-.96.54-1.47.68-.62.18-1.24.31-1.88.4-.13.02-.21.19-.17.31.04.14.17.19.31.17h0Z"/>
  <path class="cls-1" d="m112.81,41.99c-.13,2.24-.08,4.48.15,6.7.03.32.53.32.5,0-.23-2.23-.28-4.47-.15-6.7.02-.32-.48-.32-.5,0h0Z"/>
  <path class="cls-1" d="m111.21,48.62c-.74,1.06-1.7,1.93-2.81,2.58l.34.34c.57-.84,1.83-.95,2.75-.93,1.12.03,2.2.34,3.24.72.3.11.43-.37.13-.48-1.19-.44-2.44-.78-3.72-.74-1.03.03-2.22.27-2.84,1.18-.15.21.14.46.34.34,1.19-.69,2.2-1.63,2.99-2.76.18-.26-.25-.51-.43-.25h0Z"/>
  <path class="cls-1" d="m117.47,44.73c-.19.31-.39.62-.56.94-.12.23-.17.51.01.72.36.41,1.01.16,1.41-.04.27-.13.52-.31.74-.51.19-.18.46-.42.41-.71-.04-.27-.31-.39-.54-.47-.33-.11-.68-.17-1.03-.19l.07.49c1.18-.26,2.37-.51,3.55-.77.37-.08.84-.18.89-.64s-.24-1.01-.48-1.39c-.1-.15-.34-.17-.43,0-.21.38-.17.84-.16,1.26.01.49.04.98.06,1.46.04.98.04,1.96-.23,2.91-.09.31.39.44.48.13.26-.89.29-1.81.26-2.73-.01-.45-.04-.91-.06-1.36-.02-.42-.13-1.05.08-1.43h-.43c.12.19.23.39.3.6.05.13.18.42.08.55-.09.11-.43.13-.54.16-.23.05-.47.1-.7.15-.93.2-1.86.4-2.8.61-.29.06-.2.47.07.49.12,0,1.07.11,1.05.26,0,.11-.29.3-.38.37-.14.12-.3.21-.46.3-.12.06-.78.38-.82.11-.02-.11.21-.37.26-.47l.34-.57c.17-.28-.27-.53-.43-.25h0Z"/>
  <path class="cls-1" d="m118.15,48.38l.31,1.34c.03.13.18.22.31.17.13-.04.21-.17.17-.31l-.31-1.34c-.03-.13-.18-.22-.31-.17-.13.04-.21.17-.17.31h0Z"/>
  <path class="cls-1" d="m118.91,47.8c.1.54.14,1.09.12,1.64,0,.26-.02.52-.06.78-.04.2-.1.39-.29.5-.17.1-.37.12-.56.11-.18,0-.43-.04-.55-.18-.15-.17-.01-.29.15-.37.23-.11.48-.2.72-.29.57-.2,1.16-.36,1.75-.47.32-.06.18-.54-.13-.48-.67.12-1.32.3-1.95.55-.49.19-1.32.45-1.05,1.15.22.57.97.67,1.5.56.27-.05.52-.19.69-.41.18-.24.23-.54.26-.84.08-.79.04-1.59-.1-2.38-.06-.32-.54-.18-.48.13h0Z"/>
  <path class="cls-1" d="m121.67,48.19c-.58.58-1.12,1.2-1.62,1.85-.17.22.22.53.39.3.42-.54,1.06-.89,1.76-.91.78-.02,1.43.49,2.21.53.32.02.32-.48,0-.5-.43-.02-.82-.23-1.23-.37-.37-.13-.77-.19-1.16-.14-.75.08-1.47.44-1.93,1.04l.39.3c.47-.62.99-1.2,1.55-1.75.23-.23-.12-.58-.35-.35h0Z"/>
  <path class="cls-1" d="m125.18,44.61c.5-.13,1.03-.29,1.55-.2.37.06.74.27.9.62.19.4-.05.84-.28,1.17-.26.37-.6.69-.98.93-.27.17-.02.61.25.43.48-.31.89-.7,1.2-1.18s.5-1.03.25-1.57c-.2-.45-.67-.76-1.13-.87-.64-.15-1.29.02-1.91.18-.31.08-.18.57.13.48h0Z"/>
  <path class="cls-1" d="m124.89,47.29c.03.63,0,1.33-.37,1.87-.33.49-.93.76-1.5.55l.11.42c.47-.4,1.32-.36,1.9-.43.65-.07,1.3-.12,1.95-.15,1.33-.07,2.66-.09,3.99-.09.32,0,.32-.5,0-.5-1.49,0-2.98.02-4.46.12-.73.05-1.46.12-2.18.21-.56.07-1.11.11-1.55.49-.16.13-.05.36.11.42.68.26,1.43-.02,1.9-.55.56-.64.65-1.53.61-2.35-.01-.32-.51-.32-.5,0h0Z"/>
  <path class="cls-1" d="m48.6,66.71c-.89.47-1.59,1.3-1.87,2.28-.11.4-.03.88.49.87.47,0,.99-.39,1.37-.65.46-.31.9-.68,1.28-1.08.29-.31.79-.78.81-1.24.03-1.11-2.32,0-2.75.23-.14.07-.17.29-.05.39.33.3.73.1,1.09-.03.51-.18,1.02-.37,1.53-.55.99-.36,2.03-.86,3.1-.88l-.18-.43c-.35.4-.73.76-1.14,1.09-.25.2.1.55.35.35.41-.33.79-.69,1.14-1.09.14-.16.05-.43-.18-.43-.94.02-1.81.38-2.68.7-.45.16-.9.32-1.34.48-.24.09-.49.18-.73.26-.1.04-.51.25-.6.16l-.05.39c.39-.21.79-.37,1.21-.49.19-.05.39-.1.58-.13.04,0,.2-.03.2-.03.02.03-.13.24-.15.26-.44.62-1.01,1.16-1.64,1.59-.29.2-.61.39-.93.54-.04.02-.18.1-.23.07-.09-.05-.03-.15,0-.24.05-.17.11-.33.19-.49.31-.65.82-1.16,1.45-1.49.28-.15.03-.58-.25-.43h0Z"/>
  <path class="cls-1" d="m52.19,68.07c.93-.13,1.81-.61,2.42-1.32.09-.1.1-.25,0-.35-.09-.09-.26-.1-.35,0-.57.65-1.35,1.07-2.2,1.19-.13.02-.21.19-.17.31.04.14.17.19.31.17h0Z"/>
  <path class="cls-1" d="m54.01,65.71c-.16,1.73-.21,3.46-.13,5.19.01.32.51.32.5,0-.08-1.73-.04-3.47.13-5.19.03-.32-.47-.32-.5,0h0Z"/>
  <path class="cls-1" d="m51.77,71.32c-.3.28-.56.6-.79.95-.12.18-.23.38-.16.6.06.16.2.27.36.3.35.07.68-.13.97-.3.32-.19.61-.43.87-.69.29-.3.54-.64.74-1,.08-.15,0-.32-.15-.37-.52-.17-1.1-.09-1.57.18-.21.12-.46.3-.56.54s-.07.6.24.64c.13.02.27-.03.31-.17.03-.12-.04-.29-.17-.31-.06-.01-.04,0,.06.06,0,.01.01.02.01.04,0,0,0-.05.02-.07,0,0,.01-.02.02-.02.03-.03.06-.06.09-.09.12-.11.26-.2.41-.26.32-.13.68-.15,1.01-.04l-.15-.37c-.35.66-.88,1.2-1.53,1.58-.14.08-.27.17-.43.19,0,0-.12,0-.12-.01,0-.02.05.04.04.04,0,.03,0,.03,0,0,0-.02.02-.04.03-.06.21-.36.49-.69.79-.98.23-.22-.12-.58-.35-.35h0Z"/>
  <path class="cls-1" d="m56.88,65.88c-.28.29-.58.57-.83.88-.22.27-.11.63.24.71.33.08.68-.09.98-.21.35-.14.69-.29,1.01-.48s.63-.39.93-.61c.13-.1.28-.2.36-.34.09-.17.06-.37-.07-.5-.23-.23-.67-.25-.97-.26-.36-.02-.73.03-1.07.14-.67.21-1.54.72-1.5,1.53.01.32.51.32.5,0-.02-.47.5-.78.88-.95.45-.2.98-.27,1.47-.19.07.01.14.02.2.04.02,0,.11.05.13.04.04,0,0,.02,0-.02,0-.06.01-.05-.04-.02-.06.03-.11.09-.16.13-.22.17-.45.33-.69.47-.47.28-.96.51-1.47.68-.11.04-.21.07-.32.08-.08,0-.03-.03-.03.02-.01.14.03.05.09-.01.24-.26.49-.51.73-.77.22-.23-.13-.59-.35-.35h0Z"/>
  <path class="cls-1" d="m54.91,69.71c.83-.29,1.7-.49,2.58-.58.11-.01.22-.02.33-.03.1,0,.24.01.33-.02,0-.09,0-.1-.04-.03-.03.03-.05.06-.08.08-.07.06-.15.11-.22.16-.28.21-.54.45-.78.7-.51.51-.96,1.07-1.44,1.61-.24.27-.49.53-.76.77-.13.12-.27.24-.42.35-.07.05-.15.11-.22.16-.04.03-.08.05-.11.07-.1.04-.08.08.07.14l-.03.19.02-.03c.14-.29-.29-.54-.43-.25-.16.32.17.55.47.46.16-.05.31-.17.44-.27.15-.11.3-.23.45-.35.56-.48,1.04-1.05,1.52-1.61s.96-1.1,1.54-1.55c.24-.19.59-.41.53-.77-.08-.44-.63-.34-.95-.31-1,.08-1.98.28-2.92.61-.3.11-.17.59.13.48h0Z"/>
  <path class="cls-1" d="m57.61,70.23c1.52-.5,3.03-1,4.55-1.49.3-.1.17-.58-.13-.48-1.52.5-3.03,1-4.55,1.49-.3.1-.17.58.13.48h0Z"/>
  <path class="cls-1" d="m61.9,66.05c.05,2.27.08,4.54.07,6.81,0,.32.5.32.5,0,0-2.27-.02-4.54-.07-6.81,0-.32-.51-.32-.5,0h0Z"/>
  <path class="cls-1" d="m60.27,72.3c.47.84,1.2,1.75,2.29,1.37.57-.2,1.09-.56,1.6-.88.55-.34,1.09-.7,1.61-1.07.26-.18.01-.62-.25-.43-.88.62-1.79,1.22-2.74,1.73-.43.23-.88.36-1.31.04-.34-.25-.57-.65-.77-1.01-.16-.28-.59-.03-.43.25h0Z"/>
  <path class="cls-1" d="m66.55,65c-.41.19-.72.49-.94.89-.09.18.03.36.22.38.68.06,1.34-.12,1.88-.55.45-.35.49-.78-.04-1.08-1.24-.7-2.71.32-3.59,1.14-.4.38-1,.92-.96,1.54.04.65.73.74,1.24.83,1.8.3,3.63.11,5.43-.12l-.13-.47c-1.12.64-2.31,1.3-3.3,2.12-.71.59-.86,1.49.14,1.83,2.48.86,4.93-.86,7.3-1.3.32-.06.18-.54-.13-.48-1.92.36-3.68,1.46-5.66,1.5-.44,0-1.23.02-1.59-.29-.55-.47.59-1.12.84-1.29.86-.59,1.75-1.14,2.65-1.65.2-.11.13-.5-.13-.47-1.1.14-2.21.27-3.32.28-.57,0-1.15-.02-1.72-.1-.24-.03-.58-.04-.8-.14-.46-.21-.31-.55-.06-.87.59-.72,1.43-1.44,2.35-1.69.26-.07.55-.11.83-.06.1.02.28.06.35.13.15.15.07.2-.08.31-.44.32-.97.43-1.5.38l.22.38c.18-.33.42-.55.76-.71.29-.14.04-.57-.25-.43h0Z"/>
  <path class="cls-1" d="m80.42,63.99c-.39.41-.79.86-1.09,1.35-.2.32-.24.71.13.93s.86.11,1.26.01c.52-.13,1.02-.32,1.5-.56.41-.21.99-.49,1.28-.86s-.03-.81-.31-1.08c-.77-.75-1.91-.76-2.88-.44-.25.08-.23.51.07.49,1.58-.09,3.15-.24,4.72-.44.53-.07,1.28-.04,1.33-.74.03-.35-.03-.72-.05-1.07-.02-.42-.05-.85-.07-1.27-.02-.29-.39-.32-.49-.07-.88,2.17-1.36,4.47-1.45,6.81-.01.32.49.32.5,0,.09-2.29.57-4.55,1.43-6.68l-.49-.07c.04.67.08,1.34.12,2.01.01.23.08.38-.18.49-.13.05-.3.04-.43.06-.33.04-.66.08-.99.12-1.31.15-2.61.26-3.93.34l.07.49c.69-.23,1.48-.31,2.12.1.14.09.27.19.37.32.16.19.19.3,0,.45-.29.22-.6.41-.92.57-.58.3-1.31.61-1.96.63-.15,0-.4,0-.35-.21.03-.14.22-.33.31-.44.24-.32.5-.62.77-.91.22-.23-.13-.59-.35-.35h0Z"/>
  <path class="cls-1" d="m82.35,67.88c-.36.79-.63,1.62-.77,2.48-.04.27.3.45.46.19.31-.51.4-1.07.34-1.65-.02-.24-.06-.53.1-.74s.42-.32.65-.41c.26-.1.54-.18.82-.2.1,0,.2,0,.25.09.05.09.04.2,0,.29-.08.24-.26.46-.41.65s-.34.39-.53.56c-.43.4-.93.71-1.46.95-.26.11-.07.54.19.46,1.02-.31,2.02-.7,2.98-1.16.29-.14.04-.57-.25-.43-.92.44-1.88.81-2.86,1.11l.19.46c.57-.25,1.09-.59,1.54-1.01.23-.21.43-.43.62-.67s.4-.51.48-.82c.07-.28.01-.61-.21-.81-.27-.24-.66-.16-.99-.1-.58.12-1.33.4-1.56,1-.14.37-.03.75-.03,1.13s-.1.73-.3,1.05l.46.19c.14-.81.37-1.61.72-2.36.06-.12.03-.27-.09-.34-.11-.06-.29-.03-.34.09h0Z"/>
  <path class="cls-1" d="m89.53,61.88c-.19,1.16-.38,2.33-.57,3.49-.02.13.03.27.17.31.12.03.29-.04.31-.17.19-1.16.38-2.33.57-3.49.02-.13-.03-.27-.17-.31-.12-.03-.29.04-.31.17h0Z"/>
  <path class="cls-1" d="m89.97,63.55l.96.33c.14.05.29.09.42.14.05.02.09.05.12.08,0,0,.02.05.02.06,0,.04,0,.07-.03.14,0,.02-.05.09-.08.12-.06.08-.16.17-.25.24-.22.17-.47.29-.74.37-.31.09-.18.57.13.48.35-.1.67-.27.96-.5.26-.2.5-.5.5-.85,0-.2-.1-.37-.26-.49-.14-.1-.32-.15-.48-.21l-1.15-.39c-.13-.04-.27.05-.31.17-.04.14.05.26.17.31h0Z"/>
  <path class="cls-1" d="m87.38,66.96c1.34-.25,2.69-.44,4.04-.58l-.18-.43c-.05.04-.36,0-.44.03-.13.04-.23.13-.31.24-.21.28-.24.66-.38.97-.32.72-.87,1.31-1.57,1.68-.25.14-.08.53.19.46.59-.16,1.19-.3,1.79-.41.29-.06.59-.12.88-.15.06,0,.11-.01.17,0,.08,0,.06-.05.04.02-.03.12-.26.28-.34.37-.85.91-1.71,1.81-2.59,2.68-.23.23.13.58.35.35.56-.56,1.11-1.12,1.66-1.7.29-.3.57-.6.85-.9.2-.21.52-.46.58-.76.14-.7-.81-.55-1.19-.49-.79.13-1.57.3-2.34.51l.19.46c.67-.36,1.24-.91,1.61-1.58.18-.33.27-.66.4-1.01.08-.22.14-.26.36-.26.18,0,.3-.03.44-.14.16-.13.03-.45-.18-.43-1.4.14-2.79.34-4.17.59-.32.06-.18.54.13.48h0Z"/>
  <path class="cls-1" d="m95.82,63c.68-.14,1.39,0,1.97.38.27.18.52-.26.25-.43-.69-.45-1.55-.6-2.36-.43-.13.03-.21.18-.17.31.04.14.17.2.31.17h0Z"/>
  <path class="cls-1" d="m95.57,65.03c.86-.09,1.74-.19,2.6,0l-.06-.46c-.58.34-1.14.74-1.64,1.2-.25.23-.49.47-.72.72-.21.23-.44.47-.58.75-.12.25-.17.54.01.77.2.26.54.24.82.17.64-.15,1.27-.4,1.86-.7.67-.35,1.29-.79,1.85-1.3.09-.09.1-.27,0-.35-.43-.35-1-.13-1.48-.01-.62.15-1.25.29-1.87.44-.31.07-.18.56.13.48.52-.12,1.03-.24,1.55-.36.25-.06.5-.12.76-.18.15-.04.42-.13.55-.01v-.35c-.53.48-1.11.9-1.75,1.22-.31.16-.62.3-.95.42-.17.06-.35.12-.53.17-.14.04-.33.12-.47.1-.31-.04.15-.56.23-.65.23-.27.47-.52.72-.77.53-.5,1.12-.94,1.75-1.31.18-.1.16-.41-.06-.46-.9-.2-1.82-.11-2.73-.01-.32.03-.32.53,0,.5h0Z"/>
  <path class="cls-1" d="m100.57,61.7c-.07,2.27.06,4.53.38,6.78.05.32.53.18.48-.13-.31-2.2-.43-4.42-.36-6.65.01-.32-.49-.32-.5,0h0Z"/>
  <path class="cls-1" d="m101.1,65.95c.85-.08,1.7-.17,2.55-.25.13-.01.25-.11.25-.25,0-.12-.11-.26-.25-.25-.85.08-1.7.17-2.55.25-.13.01-.25.11-.25.25,0,.12.11.26.25.25h0Z"/>
  <path class="cls-1" d="m106.36,63.13c-.26.32-1.01.96-.82,1.46s.89.22,1.22.07c.42-.19.78-.55.69-1.04-.08-.44-.45-.77-.9-.65l.19.46c1.05-.47,2.18-.64,3.33-.53l-.18-.43c-.64.81-1.82.85-2.59,1.52-.14.13-.06.37.11.42,1.29.34,2.66,0,3.7-.82.53-.42.96-.96,1.23-1.58.31-.74.28-1.59.7-2.29l-.47-.13c-.27,3.29-.55,6.57-.82,9.86-.03.32.47.32.5,0,.27-3.29.55-6.57.82-9.86.02-.26-.35-.33-.47-.13-.36.62-.4,1.31-.59,1.98-.17.59-.51,1.12-.95,1.54-.93.88-2.27,1.28-3.51.95l.11.42c.77-.67,1.92-.68,2.59-1.52.14-.17.05-.41-.18-.43-1.24-.12-2.45.09-3.58.6-.26.12-.07.53.19.46.22.06.31.19.27.4-.06.13-.15.23-.28.3-.09.06-.36.19-.49.17-.05.02-.09.02-.14,0,.08-.11.16-.21.24-.31.14-.18.28-.35.42-.53.2-.25-.15-.6-.35-.35h0Z"/>
  <path class="cls-1" d="m53.51,81.03c-.19.65-.38,1.3-.56,1.95-.07.24-.11.53.14.69.21.14.48.07.69-.02,1.14-.49,2.15-1.25,3.16-1.94.26-.18.01-.61-.25-.43-.86.58-1.7,1.2-2.62,1.68-.19.1-.41.24-.62.28-.04,0-.06,0-.1,0,.03.04.04.05.04.01,0-.03,0-.05.02-.08.04-.14.08-.28.12-.42l.46-1.6c.09-.31-.39-.44-.48-.13h0Z"/>
  <path class="cls-1" d="m52.28,85.44c1.07-.4,2.15-.77,3.23-1.11.52-.17,1.05-.33,1.58-.48.28-.08.57-.16.85-.24.12-.03.24-.07.37-.1.08-.02.16-.04.24-.07.11.02.12,0,.03-.08-.03.32.47.32.5,0,.06-.55-.67-.4-.97-.32-.67.18-1.34.38-2.01.58-1.33.41-2.65.85-3.96,1.34-.3.11-.17.59.13.48h0Z"/>
  <path class="cls-1" d="m52.28,89.08c.95-.22,1.91-.4,2.88-.53l-.22-.38c-.69.95-1.79,1.47-2.83,1.96l.25.43c.85-.43,1.72-.81,2.63-1.11.15-.05.48-.21.51.02.03.17-.14.4-.22.53-.23.38-.54.72-.9.98l.3.39c.28-.27.7-.37,1.07-.23.35.13.52.5.86.64s.77.02,1.12-.09c.41-.13.79-.31,1.15-.53.27-.17.02-.6-.25-.43-.41.25-.84.44-1.3.55-.27.07-.49.11-.71-.09-.13-.11-.23-.25-.37-.35-.59-.42-1.42-.33-1.93.17-.2.19.07.57.3.39.46-.34.85-.75,1.14-1.25.22-.38.43-.99-.08-1.24-.23-.11-.49-.06-.71.01-.33.1-.65.23-.97.35-.64.25-1.27.54-1.89.85-.29.15-.04.57.25.43,1.13-.53,2.25-1.11,3.01-2.14.1-.14-.03-.4-.22-.38-1.01.13-2.02.31-3.01.55-.31.07-.18.56.13.48h0Z"/>
  <path class="cls-1" d="m65.32,80.25c-.47,1.28-1.27,2.41-2.3,3.29l.42.24c.12-.73.79-1.19,1.49-1.28.41-.05.83,0,1.23.1.43.11.85.26,1.3.24.32-.02.32-.52,0-.5-.5.02-.98-.2-1.47-.28s-.96-.1-1.42.01c-.77.18-1.48.78-1.61,1.59-.04.25.22.41.42.24,1.1-.94,1.93-2.15,2.43-3.51.11-.3-.37-.43-.48-.13h0Z"/>
  <path class="cls-1" d="m68.37,79.98c-.77.86-1.47,1.77-2.11,2.72-.15.22.13.45.34.34.59-.32,1.19-.6,1.82-.83.31-.12.63-.22.95-.31.16-.05.32-.09.48-.13.07-.02.14-.04.21-.05.03,0,.07-.02.1-.02,0-.05.03-.11.05-.16-.27.18-.02.61.25.43.37-.24.15-.75-.25-.77-.2-.01-.41.06-.6.11-.23.06-.46.13-.68.2-.89.28-1.75.66-2.58,1.1l.34.34c.62-.92,1.29-1.79,2.03-2.62.21-.24-.14-.59-.35-.35h0Z"/>
  <path class="cls-1" d="m63.49,86.18c1.31-.61,2.65-1.16,4.02-1.64.66-.23,1.32-.45,1.98-.66.56-.17,1.37-.56,1.91-.2.27.18.52-.26.25-.43-.53-.35-1.14-.19-1.71-.03-.77.22-1.53.47-2.28.73-1.5.52-2.98,1.13-4.43,1.8-.29.14-.04.57.25.43h0Z"/>
  <path class="cls-1" d="m64.53,88.31l1.06-.29c.18-.05.35-.1.53-.14.05-.01.12-.04.18-.04.12,0,.16-.06.07.13-.26.58-.73,1.09-1.2,1.49-.22.19.06.54.3.39.46-.29.93-.55,1.41-.79.24-.12.49-.23.74-.34s.54-.27.52.13c-.05.91-.75,1.64-.75,2.57,0,.18.16.27.32.24,1.13-.17,2.22-.49,3.27-.94.3-.13.04-.56-.25-.43-1.01.43-2.07.72-3.15.89l.32.24c0-.59.3-1.1.51-1.63.17-.41.44-1.14.09-1.53-.38-.42-1.04-.02-1.44.16-.63.29-1.24.62-1.83.99l.3.39c.36-.31.68-.67.95-1.06.21-.3.58-.76.4-1.15-.15-.32-.53-.31-.82-.24-.55.13-1.1.3-1.65.45-.31.08-.18.57.13.48h0Z"/>
  <path class="cls-1" d="m74.57,80.14c-.78.98-1.56,1.96-2.34,2.94l.35.35c1.1-1.41,3.01-1.44,4.64-1.44.32,0,.32-.5,0-.5-1.76,0-3.82.07-5,1.58-.19.25.15.61.35.35.78-.98,1.56-1.96,2.34-2.94.2-.25-.15-.61-.35-.35h0Z"/>
  <path class="cls-1" d="m77.06,79.81c-.59.64-1.11,1.35-1.54,2.11-.1.19.07.43.28.37,1.15-.34,2.3-.69,3.45-1.03.31-.09.18-.57-.13-.48-1.15.34-2.3.69-3.45,1.03l.28.37c.41-.72.89-1.4,1.46-2.01.22-.24-.14-.59-.35-.35h0Z"/>
  <path class="cls-1" d="m74.58,84.66c.86-.34,1.73-.68,2.6-.99.42-.15.84-.3,1.26-.45.23-.08.45-.16.68-.23.19-.06.43-.18.62-.07.28.16.53-.27.25-.43-.39-.23-.81-.05-1.2.08-.49.17-.97.34-1.46.51-.97.35-1.93.72-2.89,1.1-.3.12-.17.6.13.48h0Z"/>
  <path class="cls-1" d="m75.08,86.27c.67-.25,1.34-.49,2.02-.72.34-.11.68-.22,1.02-.33.15-.05.3-.1.45-.13.2-.04.29.02.19.23-.12.26-.39.51-.58.71-.21.23-.43.45-.67.65-.49.43-1.03.8-1.6,1.11l.3.39c.63-.54,1.35-.95,2.14-1.18.13-.04.42-.17.49.03.05.16-.08.46-.15.61-.15.33-.36.63-.51.96-.12.28-.26.63-.1.92.13.23.38.34.63.37.36.05.75-.01,1.11-.04.49-.03.98-.07,1.47-.1.32-.02.32-.52,0-.5-.49.03-.98.07-1.47.1-.24.02-.49.04-.74.05-.14,0-.33.03-.46-.04-.32-.18.19-.9.31-1.12.18-.32.35-.66.39-1.03.03-.3-.04-.63-.36-.75s-.69.03-1,.14c-.78.27-1.49.69-2.11,1.23-.22.19.06.52.3.39.7-.38,1.35-.85,1.94-1.4.29-.27.56-.57.81-.87.21-.26.51-.58.43-.95-.17-.77-1.25-.3-1.69-.16-.91.29-1.81.6-2.71.94-.3.11-.17.6.13.48h0Z"/>
  <path class="cls-1" d="m83.06,78.59l1.02.61.51.31c.06.04.14.08.18.12.03.03.04.03.05.05,0-.02,0-.02,0,.01,0-.01,0-.02,0-.03-.04.13.04.27.17.31s.27-.04.31-.17c.06-.23-.06-.44-.24-.57s-.38-.24-.56-.35l-1.18-.71c-.28-.17-.53.27-.25.43h0Z"/>
  <path class="cls-1" d="m82.74,81.17c.54-.08,1.09-.11,1.64-.08.15,0,.29.01.44.03.08,0,.2,0,.27.06.19.14-.17.44-.27.54-.75.71-1.6,1.32-2.5,1.82-.17.09-.15.34,0,.43.26.16.55.22.84.22.34,0,.68-.07,1.02,0,.24.05.55.24.48.53-.06.25-.33.45-.46.66-.14.22.13.45.34.34.88-.45,1.67-1.06,2.32-1.79.08-.09.11-.27,0-.35-.65-.51-1.5-.61-2.25-.27-.29.14-.04.57.25.43.53-.24,1.19-.17,1.65.19v-.35c-.63.71-1.38,1.29-2.22,1.71l.34.34c.17-.27.44-.48.52-.81s-.08-.67-.35-.88c-.3-.24-.68-.29-1.05-.28-.4.01-.83.09-1.19-.13v.43c.58-.32,1.13-.68,1.65-1.08.26-.2.5-.4.74-.62s.49-.42.61-.71c.6-1.36-2.38-.95-2.97-.86-.32.05-.18.53.13.48h0Z"/>
  <path class="cls-1" d="m86.6,80.84c-.06,1.33-.18,2.65-.37,3.96l.42-.11c-.2-.21-.09-.54.08-.72.22-.24.56-.35.86-.47.38-.14.76-.28,1.14-.42.2-.07.39-.15.59-.22.1-.04.2-.07.29-.11l.15-.05c.11-.02.13-.1.05-.25-.2.25.15.6.35.35.15-.18.13-.43-.07-.57-.23-.16-.53,0-.76.09-.6.22-1.2.45-1.8.67-.47.17-.99.35-1.29.78-.27.38-.28.92.05,1.27.12.12.39.08.42-.11.2-1.36.33-2.72.38-4.1.01-.32-.49-.32-.5,0h0Z"/>
  <path class="cls-1" d="m85.51,86.54c-.05.53-.06,1.13.36,1.53.45.42,1,.22,1.48-.03,1.03-.53,1.98-1.22,2.82-2.01.23-.22-.12-.58-.35-.35-.68.65-1.44,1.22-2.26,1.69-.19.11-.39.22-.59.32s-.44.22-.65.1c-.43-.22-.35-.85-.31-1.24.03-.32-.47-.32-.5,0h0Z"/>
  <path class="cls-1" d="m96.12,78.45c.5,0,1.01.04,1.51.11.24.03.49.06.73.12.12.03.35.11.32.27-.08.31.41.45.48.13.07-.28-.05-.55-.28-.71-.24-.18-.56-.21-.84-.26-.63-.1-1.27-.16-1.91-.17-.32,0-.32.49,0,.5h0Z"/>
  <path class="cls-1" d="m96.63,81.09l1.48.08c.24.01.47.02.71.04.12,0,.38-.01.38.16.01.32-.4.64-.62.82-.3.24-.63.42-.95.63-.27.18-.76.42-.74.8.02.43.6.52.92.62.22.07.44.14.66.22s.47.19.7.2c.5.03.62-.46.67-.86.03-.2.07-.45-.04-.63-.11-.2-.34-.25-.55-.21-.53.09-1.05.27-1.57.41-.31.08-.18.56.13.48.41-.11.83-.22,1.24-.32.09-.02.19-.06.28-.07.02,0,.06,0,.07,0l-.04-.04s0,.03,0,.05c-.02.08,0,.2-.02.28-.01.1-.03.21-.06.3-.02.06-.02.11-.08.12-.07.01-.21-.06-.27-.08-.21-.07-.42-.14-.62-.2-.19-.06-.37-.12-.56-.18-.09-.03-.19-.06-.28-.09-.01,0-.08-.04-.08-.04h-.01c0,.06.02.07.04.03.05-.01.11-.09.15-.12.07-.05.13-.09.2-.14.14-.1.29-.19.44-.28.29-.18.57-.37.83-.59s.49-.47.61-.78.06-.66-.23-.84c-.17-.1-.37-.11-.56-.12-.25-.01-.49-.03-.74-.04l-1.48-.08c-.32-.02-.32.48,0,.5h0Z"/>
  <path class="cls-1" d="m102.71,73.26c-.31,4.51-.27,9.03.11,13.53.03.32.53.32.5,0-.38-4.5-.42-9.02-.11-13.53.02-.32-.48-.32-.5,0h0Z"/>
  <path class="cls-1" d="m103.23,80.29c1.01-.54,2.13-.85,3.28-.91.32-.02.32-.52,0-.5-1.24.06-2.44.39-3.53.97-.28.15-.03.58.25.43h0Z"/>
  <path class="cls-1" d="m106.47,76.96c.32.2.7.27,1.02.48.14.09.3.24.3.42,0,.2-.18.38-.31.51-.58.57-1.28,1.02-2.02,1.36-.26.12-.08.54.19.46.58-.19,1.18-.34,1.78-.42.17-.02.34-.05.51-.06.13,0,.16-.04.12.08-.07.2-.26.4-.41.55-.66.64-1.56.96-2.28,1.53-.14.11-.06.39.11.42.79.14,1.57,0,2.35-.14.4-.07.81-.14,1.22-.14.1,0,.2,0,.3.01.05,0,.1.01.15.02.02-.1,0-.12-.07-.08-.07,0-.21.09-.28.12-.11.04-.22.09-.33.13-.29.12-.17.6.13.48.31-.13,1.02-.26,1.04-.69.03-.52-.71-.5-1.05-.5-1.12.02-2.22.5-3.33.3l.11.42c.89-.71,2.11-1.05,2.71-2.08.13-.22.26-.5.08-.73s-.48-.21-.73-.18c-.77.08-1.53.24-2.26.48l.19.46c.48-.22.93-.49,1.36-.8.38-.28.83-.6,1.08-1.02.22-.38.16-.8-.14-1.11-.35-.37-.87-.43-1.29-.7-.27-.17-.52.26-.25.43h0Z"/>
  <path class="cls-1" d="m104.79,84.31c1.92-.31,3.85-.62,5.77-.94l-.13-.48c-.82.29-1.68.52-2.48.87-.29.12-.44.3-.5.61-.1.47-.16.96-.23,1.43-.29,1.83-.75,3.72-.67,5.59.01.32.51.32.5,0-.07-1.66.31-3.33.57-4.97.06-.4.13-.81.19-1.21s.03-.88.47-1.04c.75-.28,1.52-.53,2.27-.79.31-.11.18-.53-.13-.48-1.92.31-3.85.62-5.77.94-.32.05-.18.53.13.48h0Z"/>
  <path class="cls-1" d="m113.02,78.58c-.27.36-.51.74-.73,1.14-.16.28-.41.64-.27.97.31.77,1.27.2,1.71-.1.31-.21.61-.45.87-.72.21-.21.5-.47.48-.8s-.28-.45-.55-.53c-.45-.13-.92-.23-1.38-.35l.11.42c.27-.26.67-.28,1.02-.3.41-.03.83-.06,1.24-.09s.83-.05,1.24-.07c.15,0,.31-.02.45.02.21.07.11.22,0,.36-.36.45-.91.71-1.43.94-.55.25-1.1.49-1.58.88-.16.13-.05.36.11.42.71.26,1.46.12,2.15-.14.61-.22,1.29-.48,1.8-.9s.74-1,.69-1.64c-.06-.74-.45-1.37-.84-1.98-.09-.14-.35-.18-.43,0-.2.42-.13.84-.09,1.29.05.54.1,1.08.15,1.62.1,1.08.2,2.16.3,3.24.03.32.53.32.5,0-.09-1-.18-2-.28-2.99-.05-.5-.09-1-.14-1.5-.04-.41-.2-1.02-.02-1.41h-.43c.6.93,1.31,2.28.13,3.09-.46.31-1.01.53-1.53.72-.6.21-1.22.34-1.83.12l.11.42c.61-.5,1.39-.72,2.07-1.09.46-.25,1.45-.9,1.17-1.55-.13-.3-.47-.4-.77-.41-.5-.03-1.02.04-1.52.07s-1.04.06-1.56.12c-.4.04-.76.14-1.06.42-.13.13-.07.37.11.42.27.07.54.14.8.2.11.03.23.06.34.09.06.02.26.04.31.08.18.16-.25.48-.35.58-.18.17-.37.33-.57.47-.17.12-.35.24-.54.34-.11.06-.31.19-.44.12-.16-.09,0-.32.06-.44.24-.45.51-.88.81-1.29.19-.26-.24-.51-.43-.25h0Z"/>
  <path class="cls-1" d="m115.32,84.03c-.39.59-.8,1.15-1.24,1.69-.2.24.13.59.35.35.71-.77,1.6-1.71,2.75-1.55.34.05.74.41,1.07.17.26-.19.16-.57.37-.78l-.39-.3c-.31.53-1.65,2.46-.31,2.6.58.06,1.26-.11,1.83-.21.69-.12,1.37-.28,2.04-.47.31-.09.18-.57-.13-.48-.95.27-1.92.47-2.9.6-.21.03-.47.1-.68.07-.34-.04-.22-.31-.11-.54.21-.45.44-.89.69-1.32.14-.25-.19-.5-.39-.3-.12.11-.18.24-.22.39-.02.07-.02.16-.06.23-.08.14,0,.06-.14.03-.22-.05-.41-.16-.64-.19s-.45-.02-.67.02c-1.03.17-1.79.94-2.47,1.68l.35.35c.47-.57.91-1.17,1.32-1.79.18-.27-.26-.52-.43-.25h0Z"/>
  <path class="cls-1" d="m123.19,76.32c-.88.9-1.74,1.83-2.56,2.79l.3-.04c-.34-.26.92-.66,1.05-.7.45-.11.92-.13,1.38-.08.93.1,1.81.51,2.47,1.17.23.23.58-.12.35-.35-.88-.88-2.12-1.37-3.36-1.34-.61.01-1.21.14-1.76.4-.26.12-.52.29-.62.57-.1.3,0,.57.24.76.08.06.24.04.3-.04.82-.96,1.67-1.89,2.56-2.79.23-.23-.13-.58-.35-.35h0Z"/>
  <path class="cls-1" d="m120.7,81.61c1.92-.4,3.84-.79,5.76-1.19l-.19-.46c-.69.32-1.36.67-1.79,1.32-.4.6-.55,1.35-.61,2.06-.06.62,0,1.32.38,1.84.45.6,1.21.69,1.91.73.32.02.32-.48,0-.5-.6-.03-1.28-.09-1.6-.67-.25-.47-.23-1.06-.17-1.57.08-.59.22-1.21.57-1.71.38-.53.99-.8,1.56-1.07.27-.13.07-.51-.19-.46-1.92.4-3.84.79-5.76,1.19-.31.06-.18.55.13.48h0Z"/>
  <path class="cls-1" d="m127.38,81.34c.17,1.43-.12,2.97-1.25,3.96-.24.21-.52.4-.82.51-.03.01-.17.07-.2.04-.02-.01,0-.08.01-.12.04-.16.13-.32.23-.45.42-.57,1.11-.98,1.7-1.34.74-.45,1.53-.82,2.31-1.19.29-.14.04-.57-.25-.43-.85.4-1.7.8-2.49,1.3-.68.43-1.54.96-1.88,1.72-.14.3-.24.75.12.95.32.18.72-.02,1-.18.68-.38,1.24-1,1.58-1.7.47-.95.57-2.03.45-3.07-.04-.32-.54-.32-.5,0h0Z"/>
  <path class="cls-1" d="m129.92,78.88c0,.66.08,1.32.25,1.96.12.46.26.96.75,1.16.89.36,2.11-.4,2.79-.9,2.06-1.53,2.97-4.02,3.39-6.46.05-.31-.42-.45-.48-.13-.7,3.8-1.39,7.66-.93,11.54.04.32.54.32.5,0-.46-3.83.22-7.65.91-11.41l-.48-.13c-.35,2-.98,4.02-2.42,5.51-.65.67-1.47,1.24-2.37,1.5-.24.07-.55.14-.78,0-.27-.16-.34-.62-.41-.9-.14-.57-.2-1.15-.21-1.73,0-.32-.5-.32-.5,0h0Z"/>
  <path class="cls-1" d="m138.67,77.49c1.5-.15,2.99-.39,4.46-.74l-.19-.46c-.96.49-1.77,1.25-2.3,2.19-.21.37-.54.92-.46,1.37s.55.7.99.72c1.07.03,2.26-.44,3.2-.9,1.05-.52,2-1.24,2.79-2.11.22-.24-.14-.59-.35-.35-1.23,1.35-2.84,2.31-4.63,2.71-.39.09-1.59.42-1.49-.33.05-.37.34-.81.54-1.12.49-.75,1.17-1.34,1.96-1.75.26-.13.08-.52-.19-.46-1.42.34-2.87.58-4.32.73-.32.03-.32.53,0,.5h0Z"/>
  <path class="cls-1" d="m147.31,75.67c-.58,2.51-.49,5.13.28,7.59.08.26.5.23.49-.07s-.02-.61-.03-.91c-.01-.32-.51-.32-.5,0,.01.3.02.61.03.91l.49-.07c-.74-2.37-.84-4.9-.28-7.33.07-.31-.41-.45-.48-.13h0Z"/>
  <path class="cls-1" d="m147.36,79.42c2.01-.25,4.02-.49,6.04-.74.32-.04.32-.54,0-.5-2.01.25-4.02.49-6.04.74-.32.04-.32.54,0,.5h0Z"/>
  <path class="cls-1" d="m152.12,81.85c.32,0,.32-.5,0-.5s-.32.5,0,.5h0Z"/>
  <path class="cls-1" d="m13.42,107.86c2.35-.28,4.74-.26,7.09.06.31.04.45-.44.13-.48-2.4-.33-4.82-.36-7.22-.08-.32.04-.32.54,0,.5h0Z"/>
  <path class="cls-1" d="m25.78,100.11l-.32,1.17c-.09.31-.24.76.1.98s.78-.05.92-.37c.14-.35-.09-.78-.47-.83-.42-.06-.76.43-.54.81.17.28.6.02.43-.25-.01-.03-.02-.03,0,0,0-.03,0-.03,0,0,0-.03,0-.03,0-.01,0,.02,0,.02,0-.01-.01.02-.01.02,0,0,.02-.02.02-.03,0,0l.02-.02s.02-.02,0,0c.03-.01.03-.02,0,0,.03,0,.03,0,0,0h.03s-.02,0,0,0c-.05-.03.05.03.03.02,0,0,0,0,.02.03.03.04,0,0,.02.04,0,.03,0,.03,0,.01,0,.02,0,.03,0,.05,0-.05-.02.04,0,0,0,.01-.05.08-.03.06-.03.03-.05.05-.09.07.01,0,0,0-.02,0-.02,0-.03,0-.05.01.02,0,.01,0-.02,0,0,0,0,0,0,0,0,0,.02,0,.02.01.02.02.02.02,0,0,.01.03.01.03,0,0v.02s0-.06,0-.1c0,.05,0-.03,0-.03.03-.16.09-.31.13-.47l.28-1.02c.09-.31-.4-.44-.48-.13h0Z"/>
  <path class="cls-1" d="m28.65,101.45l-1.92,2.05.42.24c.25-.72,1.03-1.01,1.73-1.05.83-.05,1.68.11,2.46.37.31.1.44-.38.13-.48-1.48-.5-4.15-.88-4.81,1.03-.08.24.25.42.42.24l1.92-2.05c.22-.23-.13-.59-.35-.35h0Z"/>
  <path class="cls-1" d="m26.51,105.55c1.95-.43,3.89-.87,5.84-1.3.32-.07.18-.54-.13-.48-.6.12-1.23.25-1.74.6-.55.37-.82.91-.96,1.54-.37,1.58-.59,3.21-.74,4.82-.03.32.47.32.5,0,.13-1.46.35-2.91.65-4.34.13-.61.27-1.22.81-1.59.48-.32,1.07-.44,1.62-.55l-.13-.48c-1.95.43-3.89.87-5.84,1.3-.31.07-.18.55.13.48h0Z"/>
  <path class="cls-1" d="m33.11,102.34c-.35.82-.79,1.58-1.33,2.29l.34-.09s-.03-.01.02.03c0,.02,0,.02,0,0,0,.05,0,.06-.04.1.11-.08.16-.22.09-.34-.06-.11-.23-.17-.34-.09-.25.17-.28.6.03.74.13.06.25.03.34-.09.54-.7.99-1.47,1.33-2.29.05-.12.04-.27-.09-.34-.11-.06-.29-.04-.34.09h0Z"/>
  <path class="cls-1" d="m34.25,102.66s.03,0,.04,0c0,0,.05,0,0,0-.04,0,0,0,.02,0,.01,0,.02,0,.03,0,.05,0,.1,0,.15,0,.02,0,.05.01,0,0,.01,0,.02,0,.03,0,.02,0,.05,0,.07.02.05.01.1.04.15.05-.01,0-.05-.02-.01,0,.01,0,.02.01.04.02.02.01.04.02.06.03s.04.03.06.04c.01,0,.02.02.03.02.03.02,0,0-.01,0,.03.04.08.07.11.1,0,0,.05.05.05.06,0,0-.03-.04,0-.01,0,.01.02.03.03.04.07.11.22.17.34.09.11-.07.17-.23.09-.34-.31-.46-.87-.69-1.41-.57-.13.03-.21.18-.17.31.04.14.17.2.31.17h0Z"/>
  <path class="cls-1" d="m32.2,105.44c1.09-.33,2.18-.66,3.27-.99l-.13-.48c-1.63.69-2.17,2.42-3.26,3.67-.19.21.05.53.3.39.82-.43,1.68-.86,2.63-.77l-.22-.38c-.36.63-.85,1.15-1.46,1.53-.25.15-.08.51.19.46.44-.09.89-.2,1.33-.27.23-.03.41-.03.5.21.07.18.09.36.21.53.44.63,1.32.56,1.74-.05.18-.27-.25-.52-.43-.25-.21.31-.68.34-.9.02-.18-.27-.13-.62-.43-.83-.27-.19-.59-.15-.9-.09-.42.08-.84.17-1.26.25l.19.46c.68-.43,1.24-1.01,1.64-1.71.1-.18-.03-.36-.22-.38-1.04-.09-1.99.38-2.89.84l.3.39c1-1.14,1.56-2.91,3.04-3.54.29-.12.19-.58-.13-.48-1.09.33-2.18.66-3.27.99-.31.09-.18.58.13.48h0Z"/>
  <path class="cls-1" d="m38.26,102.98c-.68.77-1.29,1.6-1.8,2.49-.12.21.13.49.34.34.73-.5,1.01-1.49,1.84-1.85.41-.18.88-.19,1.3-.03.47.17.86.43,1.37.34.32-.06.18-.54-.13-.48-.48.09-.95-.34-1.41-.42s-.9-.04-1.32.14-.73.49-1.01.84-.51.77-.89,1.03l.34.34c.49-.85,1.07-1.65,1.72-2.39.21-.24-.14-.59-.35-.35h0Z"/>
  <path class="cls-1" d="m41.84,101.28l.34,2.55c.02.13.1.25.25.25.12,0,.27-.12.25-.25l-.34-2.55c-.02-.13-.1-.25-.25-.25-.12,0-.27.12-.25.25h0Z"/>
  <path class="cls-1" d="m39.87,106.55c.82-.29,1.67-.49,2.53-.59l-.22-.38c-.41.75-1.25,1.11-2,1.42-.09.04-.15.19-.11.28.14.36.46.46.8.56s.65.3.87.58.28.71.65.83.76-.11,1.04-.34c.11-.08.09-.26,0-.35-.1-.11-.25-.08-.35,0-.16.13-.48.37-.63.11-.15-.27-.27-.53-.49-.75s-.47-.38-.75-.49c-.13-.05-.26-.08-.39-.13-.08-.03-.23-.06-.27-.16l-.11.28c.84-.35,1.72-.77,2.18-1.6.08-.15-.02-.4-.22-.38-.91.11-1.8.31-2.67.61-.3.11-.17.59.13.48h0Z"/>
  <path class="cls-1" d="m44.41,104.37c-.36.42-.77,1.11-.25,1.59.46.43,1.21.3,1.69,0,.41-.24,1.09-.83.75-1.36s-1.35-.54-1.9-.5c-.22.01-.33.26-.18.43.39.41,1.03.3,1.54.26.71-.06,1.43-.16,2.13-.3.45-.09,1.34-.12,1.49-.67.14-.52-.23-1.22-.49-1.64-.13-.2-.48-.13-.47.13.08,2.13,0,4.26-.23,6.38-.04.32.47.32.5,0,.23-2.12.31-4.25.23-6.38l-.47.13c.13.21.24.42.32.65.05.14.19.48.1.62-.09.15-.53.18-.7.22-.24.05-.48.1-.72.14-.5.09-1.01.16-1.51.21-.37.03-1.08.21-1.37-.1l-.18.43c.4-.03.81,0,1.2.11.21.07.35.16.2.38-.1.15-.27.29-.42.39-.28.19-.64.32-.98.21-.54-.17-.17-.7.06-.97.21-.24-.15-.6-.35-.35h0Z"/>
  <path class="cls-1" d="m50.37,103.66c.28,2.17.42,4.36.4,6.55,0,.32.5.32.5,0,.01-2.19-.12-4.38-.4-6.55-.04-.31-.54-.32-.5,0h0Z"/>
  <path class="cls-1" d="m65.4,101.01c.38-.15.76-.25,1.16-.32l-.19-.46c-1.14.6-2.58.46-3.58,1.38-.2.18-.4.43-.49.69-.1.31.09.56.38.67.64.24,1.45,0,2.08-.17.79-.23,1.55-.57,2.31-.9l-.25-.43c-.16.1-.33.19-.49.29-.28.16-.03.59.25.43.16-.1.33-.19.49-.29.28-.17.04-.56-.25-.43-.73.32-1.46.64-2.23.86-.36.1-.74.2-1.12.23-.18.02-.37.02-.55-.03-.08-.02-.12-.02-.12-.1,0-.05.1-.18.13-.22.37-.5,1-.74,1.58-.89.72-.19,1.45-.3,2.11-.65.27-.14.07-.5-.19-.46-.4.07-.78.17-1.16.32-.3.12-.17.6.13.48h0Z"/>
  <path class="cls-1" d="m63.53,104.52l2.28-.52,1.12-.25.54-.12.27-.06.18-.04c.17,0,.15-.1-.04-.27l.15-.11h-.03c-.32.06-.18.54.13.49.4-.07.24-.63-.13-.62-.23,0-.48.1-.7.15l-.8.18-3.08.7c-.31.07-.18.55.13.48h0Z"/>
  <path class="cls-1" d="m63.8,106.13c.44.02.88.06,1.31.15.13.03.33.05.35.21s-.15.33-.26.42c-.56.46-1.37.59-2.06.72-.29.06-.2.48.07.49,1.86.07,3.71.3,5.53.69.31.07.45-.42.13-.48-1.86-.4-3.76-.64-5.67-.71l.07.49c.52-.1,1.03-.21,1.52-.41.43-.18.89-.43,1.09-.87.52-1.16-1.44-1.18-2.09-1.2-.32-.01-.32.49,0,.5h0Z"/>
  <path class="cls-1" d="m69.75,103.57c-.37.5-.74,1.14-.39,1.75.28.49.92.55,1.34.21s.44-.95.16-1.4c-.37-.57-1.08-.66-1.69-.53-.28.06-.21.49.07.49,1.45.02,2.96-.23,4.29-.83.48-.22.75-.57.67-1.11-.09-.67-.41-1.3-.81-1.84-.13-.18-.48-.15-.47.13.16,3.06.33,6.12.53,9.18.02.32.52.32.5,0-.19-3.06-.37-6.12-.53-9.18l-.47.13c.32.43.58.91.7,1.44.08.33.05.6-.27.77-.25.14-.55.23-.83.32-1.08.35-2.2.52-3.33.5l.07.49c.33-.08.73-.07,1,.17.26.22.38.69.06.91-.41.29-.69-.17-.62-.55.05-.29.27-.56.44-.79.19-.26-.24-.51-.43-.25h0Z"/>
  <path class="cls-1" d="m75.69,102.8c.4-.05.81-.09,1.22-.1.31-.01.66-.05.97.03.12.03.26.08.3.21.04.15-.06.31-.13.42-.16.27-.35.52-.55.76-.81.97-1.86,1.74-3.04,2.19-.3.11-.17.6.13.48,1.11-.43,2.12-1.09,2.93-1.95.39-.42.82-.91,1.05-1.44.12-.26.15-.56-.02-.81-.15-.22-.41-.33-.66-.37-.35-.06-.72-.04-1.07-.02-.42.02-.85.06-1.27.12-.13.02-.21.19-.17.31.04.14.17.19.31.17h0Z"/>
  <path class="cls-1" d="m78.34,101.62c.1,1.99.35,3.96.76,5.91l.37-.28c-.33-.22-.59-.53-.76-.89-.08-.18-.14-.38-.17-.57-.04-.26.03-.36.29-.41.99-.17,2.01-.25,3.01-.35.32-.03.32-.53,0-.5-.69.07-1.38.15-2.08.23-.33.04-.66.08-.99.12-.23.03-.46.1-.61.29-.28.36-.09.96.07,1.33.21.49.55.88.99,1.18.19.13.41-.08.37-.28-.4-1.9-.65-3.83-.75-5.78-.02-.32-.52-.32-.5,0h0Z"/>
  <path class="cls-1" d="m83.1,101.28l-.1,2.37.49-.07c-.2-.59-.4-1.22-.35-1.86s.46-1.12,1.04-1.36c.13-.06.27-.1.41-.14s.36-.12.49-.04c.17.1.07.4.01.54-.1.26-.28.5-.45.72-.18.24-.39.47-.62.68-.51.48-1.1.86-1.75,1.11-.3.12-.17.6.13.48.7-.28,1.35-.67,1.91-1.18.29-.26.54-.55.77-.86.21-.28.41-.57.52-.91.09-.29.1-.64-.11-.89-.27-.31-.71-.23-1.06-.14-.75.2-1.42.65-1.68,1.41-.28.83,0,1.76.26,2.55.09.27.48.22.49-.07l.1-2.37c.01-.32-.49-.32-.5,0h0Z"/>
  <path class="cls-1" d="m85.94,100.5c.74.16,1.46.38,2.16.66l-.06-.46c-.22.17-.48.27-.76.28-.32.01-.32.51,0,.5.36-.01.72-.13,1.01-.35.18-.13.15-.37-.06-.46-.7-.28-1.42-.5-2.16-.66-.13-.03-.27.04-.31.17-.03.12.04.28.17.31h0Z"/>
  <path class="cls-1" d="m86.01,101.88l1.5-.08c.32-.02.74,0,.85-.37.1-.34-.16-.69-.28-.99-.18-.44-.28-.92-.31-1.39-.02-.33-.46-.32-.5,0-.23,2.09-.05,4.2.53,6.22.09.31.57.18.48-.13-.57-1.98-.74-4.04-.51-6.09h-.5c.04.66.2,1.29.49,1.88.07.15.19.29,0,.36-.15.05-.38.02-.54.03l-1.2.06c-.32.02-.32.52,0,.5h0Z"/>
  <path class="cls-1" d="m84.49,105.1c.29.34.59.69.99.9.44.23.92.23,1.4.11.99-.24,1.93-.7,2.75-1.3.26-.19,0-.62-.25-.43-.72.53-1.52.94-2.38,1.19-.43.12-.88.21-1.29-.01-.35-.19-.61-.51-.86-.81-.21-.25-.56.11-.35.35h0Z"/>
  <path class="cls-1" d="m90.64,101.32c-.58.9-1.21,1.76-1.89,2.59l.43.18c.02-.32.15-.66.4-.86.3-.25.69-.17,1.02-.02.37.17.71.38,1.1.53.41.16.85.24,1.29.28.32.03.32-.47,0-.5-.5-.04-1-.17-1.46-.4-.42-.21-.83-.49-1.31-.55-.91-.12-1.48.7-1.54,1.52-.02.21.29.34.43.18.7-.86,1.36-1.76,1.96-2.69.18-.27-.26-.52-.43-.25h0Z"/>
  <path class="cls-1" d="m93.07,102.46c1.46.04,2.93-.16,4.32-.59.31-.09.18-.58-.13-.48-1.36.42-2.77.61-4.19.58-.32,0-.32.49,0,.5h0Z"/>
  <path class="cls-1" d="m96.48,100.43c.17,2.75.14,5.51-.09,8.26-.03.32.47.32.5,0,.23-2.75.26-5.5.09-8.26-.02-.32-.52-.32-.5,0h0Z"/>
  <path class="cls-1" d="m101.65,98.37l-.5.5c-.21.21.05.52.3.39l.98-.5c.26-.14.07-.51-.19-.46-.18.04-.34.12-.47.25-.1.09-.09.26,0,.35.36.35.63.8.44,1.31-.18.46-.61.81-.98,1.12-.11.09-.09.27,0,.35.1.1.25.09.35,0,.47-.38.96-.82,1.14-1.42.2-.66-.13-1.26-.59-1.72v.35c.08-.07.15-.1.25-.12l-.19-.46-.98.5.3.39.5-.5c.23-.23-.13-.58-.35-.35h0Z"/>
  <path class="cls-1" d="m107.91,100.04l-1.52,1.96c-.07.09-.03.22.04.3.34.41,1.03.24,1.49.21.72-.04,1.43-.09,2.15-.14,1.43-.11,2.86-.24,4.29-.4.32-.04.32-.54,0-.5-1.27.14-2.55.26-3.83.36-.61.05-1.23.09-1.84.13-.31.02-.61.04-.92.05-.24.01-.81.14-.98-.07l.04.3,1.52-1.96c.2-.25-.24-.5-.43-.25h0Z"/>
  <path class="cls-1" d="m110.42,100.08c.89-.16,1.78-.28,2.67-.37.44-.04.88-.08,1.33-.11.23-.01.46-.03.69-.04.11,0,.35-.05.44.03.33.29-1.44,1.26-1.68,1.37-.71.33-1.47.52-2.25.57-.32.02-.32.52,0,.5.96-.07,1.89-.32,2.75-.76.4-.2.77-.45,1.12-.73.3-.24.71-.59.59-1.03-.11-.39-.52-.46-.87-.46-.53.01-1.06.06-1.59.1-1.12.1-2.23.24-3.34.44-.32.06-.18.54.13.48h0Z"/>
  <path class="cls-1" d="m112.55,97.68c-1.86,3.43-3.55,6.94-5.08,10.52-.12.29.31.55.43.25,1.53-3.59,3.23-7.1,5.08-10.52.15-.28-.28-.54-.43-.25h0Z"/>
</svg>