<?xml version="1.0" encoding="UTF-8"?>
<svg id="_레이어_2" data-name="레이어 2" xmlns="http://www.w3.org/2000/svg" viewBox="0 0 58.39 21.72">
  <defs>
    <style>
      .cls-1 {
        stroke-width: 0px;
      }
    </style>
  </defs>
  <path class="cls-1" d="m1.32,10.79c1.74-1.22,3.62-2.23,5.61-2.99l-.28-.37c-1.42,2.24-3.07,4.32-4.94,6.21-.23.23.13.58.35.35,1.89-1.92,3.57-4.03,5.02-6.31.11-.17-.08-.45-.28-.37-2.03.78-3.95,1.8-5.73,3.04-.26.18-.01.62.25.43h0Z"/>
  <path class="cls-1" d="m7.56,4.71c-.77,4.44-.81,8.96-.1,13.41.05.32.53.18.48-.13-.69-4.36-.65-8.8.1-13.14.05-.31-.43-.45-.48-.13h0Z"/>
  <path class="cls-1" d="m11.02,6.03c.78-.48,1.61-.83,2.5-1.06l-.28-.11c.35.54-1.28,1.97-1.62,2.3-.65.62-1.37,1.15-2.14,1.61l.25.43c.7-.46,1.42-.88,2.16-1.27.34-.18.68-.35,1.02-.5.11-.05.61-.34.73-.27.21.14,0,.47-.07.59-.85,1.32-1.9,2.48-3.11,3.48-.25.21.1.55.35.35.86-.67,1.78-1.27,2.75-1.77.26-.14.53-.27.8-.39.21-.09.53-.33.76-.32.13-.1.23-.06.29.11-.05.18-.14.34-.26.47-.15.19-.31.38-.47.56-1.38,1.52-3.13,2.64-4.85,3.73l.25.43c1.74-1.12,3.57-2.13,5.47-2.96.4-.17,1.31-.52,1.1.3-.1.4-.47.82-.72,1.14-.61.82-1.37,1.51-2.22,2.08l.25.43c.94-.72,1.39.78,1.4,1.45.01.84-.23,1.63-.67,2.35-.17.28.26.53.43.25.63-1.03.97-2.4.6-3.58-.27-.83-1.2-1.52-2.01-.9-.25.19-.02.61.25.43.68-.46,4.7-3.92,2.76-4.62-.38-.14-.81-.02-1.16.12-.62.25-1.23.56-1.83.85-1.34.67-2.64,1.41-3.9,2.22-.27.17-.02.61.25.43,1.14-.73,2.29-1.46,3.35-2.31.54-.44,1.06-.91,1.53-1.42.34-.37.82-.82.94-1.33.07-.31,0-.65-.33-.77-.42-.15-.97.21-1.35.38-1.34.6-2.59,1.38-3.75,2.29l.35.35c.87-.72,1.66-1.52,2.36-2.41.32-.4.62-.82.89-1.26.16-.26.37-.55.25-.87-.26-.71-1.2-.26-1.65-.05-1.1.51-2.16,1.11-3.18,1.78-.27.17-.03.6.25.43,1.04-.62,1.99-1.38,2.81-2.26.47-.51,1.64-1.55,1.13-2.33-.06-.09-.17-.14-.28-.11-.93.24-1.8.61-2.62,1.11-.27.17-.02.6.25.43h0Z"/>
  <path class="cls-1" d="m18.51,7.73c.48-.36,1-.58,1.59-.68l-.31-.31c-.13.95-1.06,1.56-1.75,2.13-.84.7-1.69,1.37-2.57,2.01-.22.16-.1.53.19.46.57-.15,1.14-.26,1.73-.32.45-.05,1.16-.15,1.42.34.51.96-.68,1.99-1.49,2.19l.24.42c1.37-1.69,3.36-2.74,4.7-4.45,1.13-1.45,1.82-3.49.84-5.2-.1-.18-.41-.15-.46.06-.33,1.42-.5,2.87-.47,4.33.01.68.07,1.36.16,2.03.11.83.28,1.66.1,2.5-.07.31.42.45.48.13.3-1.41-.18-2.88-.23-4.3-.06-1.53.09-3.06.44-4.55l-.46.06c.98,1.71.02,3.8-1.21,5.1-1.33,1.41-3.03,2.42-4.26,3.94-.15.19-.01.48.24.42,1.12-.28,2.3-1.51,1.87-2.75-.19-.56-.73-.77-1.27-.8-.83-.03-1.72.17-2.52.38l.19.46c.96-.71,1.89-1.44,2.8-2.2.72-.6,1.61-1.25,1.74-2.24.03-.2-.11-.34-.31-.31-.63.1-1.2.35-1.71.73-.25.19,0,.63.25.43h0Z"/>
  <path class="cls-1" d="m21.12,15.42c.41.83,1.38,1.21,2.27,1.16,1.12-.06,2.08-.74,2.95-1.38.26-.19,0-.62-.25-.43-.76.56-1.6,1.2-2.57,1.3-.76.08-1.61-.19-1.97-.91-.14-.29-.58-.03-.43.25h0Z"/>
  <path class="cls-1" d="m32.07,7.93c.43-.18.88-.31,1.34-.4.31-.06,1.08-.26,1.25.13.13.32-.1.75-.25,1.02-.2.36-.42.71-.66,1.06-.96,1.39-2.17,2.61-3.55,3.58l.3.04c-.14-.14-.17-.31-.11-.49.1-.31-.38-.44-.48-.13-.12.36-.03.71.24.98.07.07.21.1.3.04,1.66-1.16,3.07-2.64,4.13-4.36.36-.58.99-1.6.34-2.21-.34-.32-.87-.24-1.3-.18-.58.08-1.14.23-1.68.45-.29.12-.17.6.13.48h0Z"/>
  <path class="cls-1" d="m35.02,5.97c0,3.88.32,7.75.94,11.58.03.21.36.24.46.06.08-.15.15-.3.23-.45.14-.29-.29-.54-.43-.25-.08.15-.15.3-.23.45l.46.06c-.61-3.79-.91-7.61-.92-11.45,0-.32-.5-.32-.5,0h0Z"/>
  <path class="cls-1" d="m38.3,9.03c-.4.37-.76.76-1.1,1.19-.25.32-.64.72-.47,1.17.31.79,1.43.19,1.87-.09.77-.49,1.48-1.16,1.95-1.94.19-.31.25-.72-.11-.94-.19-.11-.44-.14-.66-.2-.28-.07-.57-.14-.85-.2l.11.42c1.28-1.16,2.77-2.04,4.4-2.59l-.31-.31c-.48,2.29-.96,4.57-1.44,6.86-.07.31.42.45.48.13.48-2.29.96-4.57,1.44-6.86.04-.17-.12-.37-.31-.31-1.71.59-3.28,1.51-4.62,2.72-.14.12-.07.38.11.42.34.08.69.16,1.03.25.07.02.15.03.22.05.11.03.11.02.13.13.01.13-.14.3-.22.4-.37.53-.85,1.01-1.39,1.38-.24.17-.49.33-.76.45-.22.1-.82.23-.55-.21.35-.58.89-1.1,1.38-1.56.24-.22-.12-.57-.35-.35h0Z"/>
  <path class="cls-1" d="m41.7,12.67c.51-.04.94-.29,1.39-.53.35-.19.72-.35,1.13-.27.15.03.31.09.41.22.14.19.08.44.03.64-.13.47-.35.9-.64,1.29-.32.43-.73.79-1.19,1.06-.28.16-.03.6.25.43.96-.56,1.7-1.48,2.03-2.55.16-.52.16-1.11-.35-1.42-.38-.24-.9-.24-1.32-.1-.59.19-1.09.68-1.73.74-.32.03-.32.53,0,.5h0Z"/>
  <path class="cls-1" d="m45.34,6.38l2.11-.58c.14-.04.48-.19.54,0,.03.1-.09.28-.14.35-.18.26-.46.48-.69.69-1.02.9-2.19,1.63-3.34,2.36-.23.14-.09.55.19.46,2.24-.78,4.5-1.52,6.77-2.21l-.32-.24c0,.19-.06.31-.22.41-.27.17-.02.6.25.43.31-.19.48-.48.47-.84,0-.16-.16-.29-.32-.24-2.27.7-4.53,1.43-6.77,2.21l.19.46c.75-.47,1.5-.94,2.21-1.46.66-.48,1.43-1.01,1.93-1.67.32-.43.45-1.23-.28-1.3-.41-.04-.87.18-1.26.28l-1.47.4c-.31.08-.18.57.13.48h0Z"/>
  <path class="cls-1" d="m45.75,11.14c1.87-.79,3.85-1.31,5.87-1.54l-.25-.25c-.03,1.09-1.41,1.73-2.24,2.19-1.01.56-2.08,1.02-3.18,1.37l.19.46c1.2-.67,2.48-1.15,3.83-1.41.29-.06.61-.14.9-.13.67.03.4.58.11.92-.41.5-.88.96-1.37,1.38-.21.18.02.45.24.42.7-.11,1.55-.25,2.11.29.46.43.59,1.11.85,1.66.54,1.13,1.65,1.72,2.72,2.25.29.14.54-.29.25-.43-.66-.32-1.34-.66-1.88-1.17s-.75-1.18-1.05-1.85c-.25-.55-.61-1.02-1.2-1.22-.62-.22-1.3-.11-1.93,0l.24.42c.63-.54,1.43-1.2,1.78-1.97.26-.58-.05-1.12-.67-1.18-.81-.09-1.78.23-2.55.47-.92.28-1.8.67-2.63,1.13-.24.14-.08.55.19.46,1.31-.43,2.57-.99,3.75-1.69.89-.53,1.99-1.19,2.02-2.36,0-.12-.12-.26-.25-.25-2.11.24-4.16.77-6.12,1.61-.3.13-.04.56.25.43h0Z"/>
</svg>