<?xml version="1.0" encoding="UTF-8"?>
<svg id="_레이어_2" data-name="레이어 2" xmlns="http://www.w3.org/2000/svg" viewBox="0 0 139.91 74.55">
  <defs>
    <style>
      .cls-1 {
        fill: #fff;
        stroke-width: 0px;
      }
    </style>
  </defs>
  <path class="cls-1" d="m5.98,11.34c.72-.67,1.24-1.59,2.11-2.08.76-.44,1.79-.43,2.18.47.3.7.12,1.52-.35,2.09-.59.71-1.48,1.1-2.33,1.41-.31.11-.18.53.13.48,1.61-.26,3.23-.36,4.86-.3.32.01.32-.49,0-.5-1.67-.06-3.34.05-4.99.31l.13.48c1.43-.52,3.09-1.39,3.18-3.11.04-.66-.19-1.37-.72-1.79-.64-.5-1.51-.42-2.2-.07-.99.5-1.57,1.5-2.35,2.24-.24.22.12.57.35.35h0Z"/>
  <path class="cls-1" d="m13.05,9.41c.36-.13.76-.27,1.15-.22s.6.38.55.77c-.1.81-1.02,1.33-1.78,1.2l.06.46c.78-.49,1.8-.61,2.65-.23.09.04.19.07.18.17,0,.09-.13.2-.19.26-.16.16-.34.3-.53.43-.4.25-.86.41-1.33.45l.13.47c.1-.08.2-.15.3-.23.11-.08.16-.21.09-.34-.06-.11-.23-.17-.34-.09-.1.08-.2.15-.3.23-.17.13-.15.49.13.47.62-.05,1.22-.26,1.73-.62.4-.28,1.17-.92.67-1.44-.19-.2-.52-.29-.78-.36-.29-.07-.59-.11-.89-.11-.62,0-1.23.19-1.76.52-.17.11-.16.42.06.46,1.08.19,2.3-.52,2.42-1.67.05-.55-.25-1.06-.78-1.22s-1.08,0-1.55.19c-.3.11-.17.6.13.48h0Z"/>
  <path class="cls-1" d="m19.6,10.14c.32,0,.32-.5,0-.5s-.32.5,0,.5h0Z"/>
  <path class="cls-1" d="m24.96,9.44c-.11.56-.49,1.02-.59,1.58-.08.42-.02.93.3,1.25.83.81,2.14-.4,2.67-1.02.63-.74,1.19-1.77,1.04-2.78-.07-.46-.32-.88-.75-1.08-.47-.22-1.01-.11-1.45.11-.5.25-1.07.73-1.2,1.31s.32,1.17.93,1.03c.31-.07.18-.55-.13-.48-.16.04-.3-.14-.32-.28-.03-.22.12-.43.25-.58.25-.29.58-.53.95-.65.34-.11.74-.11,1,.17.22.23.26.57.25.88-.04.74-.46,1.47-.94,2.02-.26.3-.55.56-.87.78-.28.19-.76.51-1.07.22-.26-.24-.21-.7-.11-1,.16-.46.44-.86.53-1.34.06-.31-.42-.45-.48-.13h0Z"/>
  <path class="cls-1" d="m28.96,5.94c-.5.95-.97,1.96-1.13,3.04-.13.9-.08,2.09.63,2.76.78.74,1.62,0,2.05-.72.23-.39.39-.85.32-1.31-.05-.4-.28-.84-.71-.93-.47-.1-.99.3-1.28.64-.33.39-.51.86-.53,1.37-.01.32.49.32.5,0,.02-.43.19-.83.5-1.14.15-.15.36-.33.58-.37.25-.05.39.21.43.42.1.44-.1.88-.35,1.23-.22.31-.6.81-1.02.57-.38-.21-.53-.72-.61-1.12-.1-.46-.08-.95,0-1.41.17-.98.6-1.9,1.06-2.77.15-.28-.28-.54-.43-.25h0Z"/>
  <path class="cls-1" d="m34.62,10.18c.32,0,.32-.5,0-.5s-.32.5,0,.5h0Z"/>
  <path class="cls-1" d="m37.98,6.23c.47-.34,1.62-1.05,1.88-.08.19.73-.27,1.56-.73,2.1-.91,1.07-2.28,1.67-3.67,1.64l.18.43c.68-.71,1.56-1.18,2.52-1.35.4-.07,1.06-.18,1.44,0,.53.23-.01,1-.22,1.29-.53.74-1.32,1.32-2.18,1.62-.43.15-.87.24-1.32.26-.06,0-.61.04-.65-.01-.04-.07.53-.69.59-.75.21-.24-.14-.6-.35-.35-.25.29-.88.83-.71,1.27.16.4.77.35,1.12.34.97-.04,1.94-.37,2.73-.94.7-.5,1.52-1.3,1.69-2.19.23-1.17-1.15-1.17-1.94-1.08-1.17.14-2.26.68-3.08,1.53-.15.16-.04.42.18.43,1.79.03,3.64-.9,4.52-2.5.37-.67.7-1.79.07-2.41-.7-.69-1.68-.16-2.32.31-.26.19,0,.62.25.43h0Z"/>
  <path class="cls-1" d="m42.93,8.55c-.2.6-.38,1.21-.53,1.83-.11.47-.26,1.04.11,1.43.33.35.85.27,1.25.1.47-.2.89-.55,1.26-.9s.69-.75.96-1.18c.29-.47.56-1,.62-1.55.05-.48-.09-.99-.48-1.3-.43-.35-.99-.25-1.48-.07-.59.21-1.15.51-1.65.89-.33.25-.91.84-.41,1.23.25.2.6-.15.35-.35-.18-.15.52-.6.63-.68.37-.24.76-.45,1.17-.6.35-.13.81-.29,1.12.01s.28.74.17,1.11c-.22.76-.72,1.47-1.27,2.02-.28.28-.58.53-.92.74-.24.15-.67.4-.95.2-.33-.24-.03-.98.04-1.28.13-.52.28-1.03.46-1.53.1-.31-.38-.44-.48-.13h0Z"/>
  <path class="cls-1" d="m18.77,27.31c.68.25,1.42.35,2.14.28s1.44-.3,2.17-.39c.32-.04.32-.54,0-.5-.71.08-1.39.29-2.09.38s-1.42,0-2.09-.25c-.3-.11-.43.37-.13.48h0Z"/>
  <path class="cls-1" d="m18.06,30.2c.45-.26.92-.51,1.39-.73.23-.11.47-.22.71-.32.11-.05.23-.09.34-.14.06-.02.24-.13.31-.09l-.05-.39c-.23.3-.55.51-.79.8s-.42.6-.55.94-.22.69-.29,1.04c-.06.3-.2.73-.04,1.02.19.34.6.25.87.08.32-.21.63-.45.92-.7s.59-.54.85-.84c.22-.25.62-.63.34-.98-.26-.31-.8-.2-1.12-.09-.43.15-.83.35-1.19.62-.26.19,0,.62.25.43.24-.17.49-.32.76-.44.25-.11.57-.25.84-.21.01,0,.07.02.08.02,0,0-.01-.05-.03-.05-.02,0-.1.14-.12.16-.1.12-.21.24-.32.36-.2.22-.42.42-.64.62s-.44.36-.68.53c-.11.07-.21.16-.33.21-.1.04-.05-.04-.04-.13.07-.54.19-1.1.41-1.59.12-.28.29-.53.5-.75.23-.23.49-.43.69-.68.1-.12.1-.31-.05-.39-.26-.14-.51-.04-.76.06-.28.11-.56.23-.84.35-.57.26-1.12.54-1.66.86-.28.16-.03.59.25.43h0Z"/>
  <path class="cls-1" d="m23.93,26.11c-.09,1.69-.03,3.38.19,5.06.04.31.54.32.5,0-.22-1.68-.28-3.37-.19-5.06.02-.32-.48-.32-.5,0h0Z"/>
  <path class="cls-1" d="m24.43,29.54l1.08-.3c.31-.08.65-.17.76-.52.04-.12-.05-.28-.17-.31-.14-.03-.27.04-.31.17,0,.03,0,.03,0,0-.02.02-.01.02,0,0,0,.01-.07.06-.03.03-.02.01-.04.03-.07.04,0,0-.02,0-.03.01.03-.01.02-.01,0,0-.14.04-.28.08-.41.12l-.96.26c-.13.04-.21.18-.17.31s.18.21.31.17h0Z"/>
  <path class="cls-1" d="m25.47,26.57c.08,2.11.32,4.2.71,6.28.06.32.54.18.48-.13-.39-2.03-.62-4.08-.69-6.14-.01-.32-.51-.32-.5,0h0Z"/>
  <path class="cls-1" d="m36.79,26.87c.32,0,.32-.5,0-.5s-.32.5,0,.5h0Z"/>
  <path class="cls-1" d="m36.15,26.66l-.26.18c-.26.18-.04.58.25.43.8-.43,1.64-.77,2.52-1.01.03,0,.31-.11.34-.09-.04-.03-.07.08-.11.15-.1.18-.22.36-.33.53-.23.37-.47.74-.71,1.1-.99,1.46-2.1,2.83-3.31,4.12-.22.23.13.59.35.35,1.45-1.53,2.76-3.2,3.89-4.98.14-.22.28-.45.42-.68.11-.18.25-.36.28-.57.08-.41-.27-.58-.62-.51-1.03.22-2.05.66-2.97,1.15l.25.43.26-.18c.26-.18.01-.62-.25-.43h0Z"/>
  <path class="cls-1" d="m38.12,29.37c.81.13,1.6.32,2.39.54.31.09.44-.39.13-.48-.78-.23-1.58-.41-2.39-.54-.13-.02-.27.03-.31.17-.03.12.04.29.17.31h0Z"/>
  <path class="cls-1" d="m41.23,24.41c-.28,2.23-.43,4.47-.43,6.72,0,.32.5.32.5,0,0-2.25.14-4.49.43-6.72.04-.32-.46-.32-.5,0h0Z"/>
  <path class="cls-1" d="m43.89,25.6l-.73,1.59c-.07.15-.02.32.15.37.32.09.69-.08.99-.16.35-.09.71-.19,1.06-.28.72-.19,1.44-.38,2.16-.57.31-.08.18-.56-.13-.48-.67.18-1.34.35-2.01.53-.33.09-.66.17-.98.26-.16.04-.31.08-.47.12-.14.04-.35.13-.49.09l.15.37.73-1.59c.13-.29-.3-.54-.43-.25h0Z"/>
  <path class="cls-1" d="m43.49,29.16c1.56-.57,3.16-1,4.79-1.28.28-.05.21-.51-.07-.49-.49.03-1.04.06-1.51.22-.42.14-.53.64-.77.97-.51.72-1.24,1.25-1.77,1.95-.13.18.09.43.28.37,1.31-.42,2.62-.85,3.93-1.27.3-.1.17-.58-.13-.48-1.31.42-2.62.85-3.93,1.27l.28.37c.47-.62,1.11-1.11,1.6-1.72.12-.14.23-.29.32-.45.09-.14.15-.4.29-.5.15-.11.45-.12.63-.15.26-.04.52-.07.78-.08l-.07-.49c-1.63.28-3.24.71-4.79,1.28-.3.11-.17.59.13.48h0Z"/>
  <path class="cls-1" d="m58.45,25.39c-.48.28-.89.69-1.15,1.18-.21.4-.49,1.07-.03,1.4.42.31,1.13.09,1.58-.05.56-.18,1.08-.46,1.53-.82.34-.28.91-.73.55-1.2-.33-.45-1.08-.46-1.58-.41-.41.04-1.25.06-1.31.59-.03.25.13.48.23.7.14.3.23.64.26.97.16,1.41-.81,2.9-2.35,2.77l.13.47c.48-.26,1.02-.36,1.55-.45.57-.09,1.14-.17,1.71-.23,1.12-.12,2.25-.19,3.38-.21.32,0,.32-.51,0-.5-1.22.02-2.43.1-3.64.24-1.08.13-2.28.2-3.25.72-.23.13-.11.45.13.47,1.82.14,3.04-1.63,2.85-3.31-.05-.43-.17-.84-.35-1.24-.05-.11-.18-.25-.07-.35.05-.05.27-.06.34-.07.26-.05.53-.09.8-.08.2,0,.65.02.71.24.05.19-.3.42-.44.54-.39.31-.84.55-1.31.7-.25.08-.51.14-.78.17-.18.02-.3.04-.36-.14-.06-.16-.01-.27.05-.43.21-.52.6-.94,1.07-1.22.28-.16.03-.6-.25-.43h0Z"/>
  <path class="cls-1" d="m63.44,24.05c.35.08.71.16,1.05.3.15.06.3.13.43.23.02.02.03.02.06.05.01.01.03.03.04.04,0,0,.03.03.01.01.01.02.03.04.04.06.02.04,0-.03,0,.01,0,0,.01.05,0,.03s0,.05,0,.05c0,.13.12.25.25.25.14,0,.24-.11.25-.25.02-.45-.43-.72-.78-.88-.39-.17-.81-.28-1.22-.37-.13-.03-.27.04-.31.17-.03.13.04.28.17.31h0Z"/>
  <path class="cls-1" d="m63,25.99c.84,0,1.67.19,2.42.56l.19-.46c-.37-.12-.76-.23-1.15-.15-.37.07-.62.31-.81.62-.2.33-.36.68-.5,1.04-.07.17-.12.34-.18.52-.06.19-.13.4-.06.59.11.32.5.37.79.3.35-.08.68-.27.97-.48.39-.28,1.49-1.09.86-1.62-.31-.26-.83-.22-1.19-.08-.39.15-.71.43-1.02.72-.23.22.12.58.35.35.35-.34.81-.76,1.35-.67.04,0,.18.04.19.06.02.08-.14.22-.19.27-.18.18-.36.35-.57.5s-.43.29-.67.38c-.09.04-.19.07-.29.08-.03,0-.07,0-.1,0-.11,0-.02,0-.04-.01,0,0,.01.04.02,0,0-.13.07-.26.1-.38.05-.15.1-.29.15-.44.1-.26.23-.51.36-.76s.27-.46.57-.52.62.06.91.15c.27.09.45-.33.19-.46-.83-.41-1.74-.63-2.67-.63-.32,0-.32.5,0,.5h0Z"/>
  <path class="cls-1" d="m62,30.01c1.05-.26,2.11-.48,3.18-.66.54-.09,1.09-.17,1.63-.24s1.11-.12,1.66,0l-.11-.42-.11.07c-.31.09-.18.58.13.48.13-.04.23-.1.33-.19.13-.13.08-.38-.11-.42-1.08-.23-2.24.03-3.3.2-1.15.18-2.29.42-3.43.7-.31.08-.18.56.13.48h0Z"/>
  <path class="cls-1" d="m64.99,29.79c-.31,1.07-.38,2.18-.23,3.28.02.13.19.21.31.17.14-.04.19-.17.17-.31-.14-1.01-.06-2.04.23-3.01.09-.31-.39-.44-.48-.13h0Z"/>
  <path class="cls-1" d="m69.55,26.36c-.2.41-.92,1.36-.3,1.72.52.3,1.27-.24,1.59-.61s.58-1.01.22-1.45c-.42-.52-1.28-.35-1.77-.05-.23.14-.11.44.13.47,1.13.12,2.26.11,3.39-.03.42-.05.76-.15.8-.63.04-.57,0-1.15,0-1.72,0-.27-.44-.35-.49-.07-.39,2.11-.67,4.23-.82,6.37-.02.32.48.32.5,0,.15-2.09.42-4.17.8-6.24l-.49-.07c0,.46,0,.91,0,1.37,0,.27.04.43-.27.47-.23.03-.47.05-.7.07-.9.07-1.81.06-2.71-.04l.13.47c.27-.17.77-.34,1.07-.13s.02.68-.16.88c-.15.17-.64.6-.9.5-.13-.05.09-.37.14-.46l.29-.58c.14-.29-.29-.54-.43-.25h0Z"/>
  <path class="cls-1" d="m75.6,24.12c-.4,2.24-.64,4.51-.72,6.79-.01.32.49.32.5,0,.07-2.23.3-4.46.7-6.66.06-.31-.43-.45-.48-.13h0Z"/>
  <path class="cls-1" d="m84.02,27.11c.35,1.48.95,2.9,1.76,4.19.17.27.6.02.43-.25-.79-1.25-1.37-2.63-1.71-4.07-.07-.31-.56-.18-.48.13h0Z"/>
  <path class="cls-1" d="m88.14,25.21c.1.9.16,1.81.08,2.72-.04.46-.12.91-.25,1.36-.11.39-.27.81-.6,1.06-.26.19-.61.25-.92.2-.27-.05-.81-.28-.71-.62.05-.17.26-.34.39-.46.15-.14.31-.27.47-.39.32-.24.66-.44,1.01-.61.83-.39,1.74-.58,2.66-.56.32,0,.32-.49,0-.5-.98-.02-1.95.18-2.84.59-.46.21-.88.47-1.28.78-.33.26-.77.59-.91,1.01-.28.9.99,1.35,1.67,1.25,1.02-.15,1.42-1.1,1.62-1.99.29-1.26.23-2.56.1-3.83-.03-.32-.53-.32-.5,0h0Z"/>
  <path class="cls-1" d="m90.28,24.77c.53,2.55.79,5.15.76,7.76,0,.32.5.32.5,0,.02-2.65-.24-5.3-.78-7.9-.07-.31-.55-.18-.48.13h0Z"/>
  <path class="cls-1" d="m95.84,23.9c-1.12,1.54-2.09,3.19-2.89,4.92-.13.29.3.54.43.25.8-1.73,1.76-3.38,2.89-4.92.19-.26-.24-.51-.43-.25h0Z"/>
  <path class="cls-1" d="m95.71,25.67c.36.03.71.08,1.06.16.17.04.34.08.51.13.13.04.27.09.36.2.16.17.18.45.13.67-.07.32-.26.59-.44.86-.08.11-.02.28.09.34.12.07.27.02.34-.09.21-.32.44-.66.51-1.05.06-.36,0-.74-.23-1.03-.25-.31-.68-.4-1.05-.49-.42-.1-.85-.16-1.28-.19-.13-.01-.25.12-.25.25,0,.14.11.24.25.25h0Z"/>
  <path class="cls-1" d="m93.13,30.5c2.06-.31,4.1-.67,6.14-1.08.32-.06.18-.55-.13-.48-2.04.41-4.09.77-6.14,1.08-.32.05-.18.53.13.48h0Z"/>
  <path class="cls-1" d="m100.46,23.63c.33-.12.66-.25,1.01-.28.14-.01.3-.02.41,0s.21.06.24.14c.05.11,0,.25-.04.36-.05.14-.12.27-.2.4-.17.27-.39.51-.61.75s.13.59.35.35c.41-.43.86-.94.98-1.53.07-.33-.02-.66-.33-.84-.25-.15-.57-.16-.86-.13-.38.04-.74.17-1.1.3-.13.05-.21.17-.17.31.03.12.18.22.31.17h0Z"/>
  <path class="cls-1" d="m99.61,26.02c.9-.21,1.82-.36,2.74-.44.32-.03.32-.53,0-.5-.97.08-1.93.23-2.87.45-.31.07-.18.56.13.48h0Z"/>
  <path class="cls-1" d="m100.17,25.72c-.2.22-.39.45-.58.67-.16.19-.41.41-.48.64-.2.63.76.47,1.07.42,1.08-.16,2.11-.58,3.19-.71.32-.04.32-.54,0-.5-.91.11-1.77.4-2.65.6-.21.05-.42.09-.64.12-.11.02-.22.03-.33.04-.06,0-.12,0-.18.01-.03,0-.06,0-.08,0l.09.18s.19-.24.22-.27c.07-.09.15-.18.22-.27.17-.2.34-.39.51-.58.21-.24-.14-.59-.35-.35h0Z"/>
  <path class="cls-1" d="m99.28,28.28c1.06.08,2.13.11,3.2.09.52-.01,1.05-.03,1.57-.07s1.05-.11,1.53.11c.29.13.55-.3.25-.43-.46-.21-.93-.23-1.43-.2-.56.03-1.11.07-1.67.08-1.15.03-2.3,0-3.45-.08-.32-.02-.32.48,0,.5h0Z"/>
  <path class="cls-1" d="m99.86,29.8c.48-.09.97-.15,1.46-.17.24-.01.48-.01.72,0,.14,0,.27,0,.41.02.07,0,.26.06.33.03.07.03.07-.02,0-.15-.07.03-.13.05-.2.08-.11.04-.23.09-.34.13-.23.09-.45.18-.68.27-.47.18-.93.37-1.4.55-.27.11-.21.45.07.49,1.63.22,3.27.43,4.9.65.32.04.31-.46,0-.5-1.63-.22-3.27-.43-4.9-.65l.07.49c.63-.25,1.26-.49,1.88-.74.32-.12,1.33-.33,1.05-.88-.1-.19-.32-.23-.51-.25-.32-.03-.65-.04-.97-.04-.67,0-1.34.07-2,.2-.32.06-.18.54.13.48h0Z"/>
  <path class="cls-1" d="m112.88,25.24c.43-.04.86-.07,1.29-.08.21,0,.42,0,.64,0,.13,0,.3,0,.4.09.23.23.58-.13.35-.35-.31-.31-.84-.24-1.24-.24-.48,0-.96.03-1.44.08-.13.01-.25.11-.25.25,0,.12.11.26.25.25h0Z"/>
  <path class="cls-1" d="m111.59,27.24c1.02-.4,2.1-.62,3.2-.64l-.13-.47c-1.2.63-2.72.56-3.56,1.78-.31.44-.72,1.37-.03,1.68.3.13.67.08.98.01.41-.09.81-.23,1.21-.36.92-.3,1.83-.63,2.74-.96.3-.11.17-.59-.13-.48-.88.32-1.76.64-2.65.93-.42.14-.84.28-1.26.38-.19.04-.41.09-.6.05-.23-.05-.17-.24-.11-.42.49-1.6,2.42-1.52,3.66-2.17.22-.12.12-.47-.13-.47-1.14.02-2.27.24-3.33.65-.3.12-.17.6.13.48h0Z"/>
  <path class="cls-1" d="m116.42,25.03c-.13,1.43-.15,2.87-.05,4.3.02.32.52.32.5,0-.1-1.43-.09-2.87.05-4.3.03-.32-.47-.32-.5,0h0Z"/>
  <path class="cls-1" d="m116.77,27.95c.59-.15,1.19-.28,1.79-.38.13-.02.21-.19.17-.31-.04-.14-.17-.2-.31-.17-.6.1-1.2.23-1.79.38-.13.03-.21.18-.17.31s.18.21.31.17h0Z"/>
  <path class="cls-1" d="m120.31,24.68c.48-.18.98-.38,1.5-.43.39-.04.87-.01,1.06.39.17.36.08.81-.03,1.18-.13.44-.35.86-.65,1.21-.09.11-.1.25,0,.35.09.09.27.1.35,0,.36-.44.63-.94.79-1.49.14-.49.2-1.04-.04-1.51-.25-.49-.81-.66-1.33-.65-.63.02-1.22.24-1.8.46-.13.05-.21.17-.17.31.03.12.18.22.31.17h0Z"/>
  <path class="cls-1" d="m120.46,27.56c-.15.35-.26.71-.34,1.08-.07.33-.15.71-.11,1.04.08.69.85.74,1.38.59.34-.09.65-.25.97-.39.39-.17.78-.35,1.16-.52.74-.33,1.49-.66,2.23-.99.29-.13.04-.56-.25-.43-1.2.53-2.39,1.07-3.59,1.6-.31.14-1.42.66-1.41-.02,0-.62.2-1.26.44-1.83.12-.3-.36-.43-.48-.13h0Z"/>
  <path class="cls-1" d="m8.19,43.39c1.56-.43,3.11-.85,4.67-1.28l-.28-.11c.08.11-.63.83-.72.93-.26.3-.53.59-.81.88-.56.58-1.15,1.14-1.76,1.67l.39.3c.32-.6.87-1.53,1.7-1.31.36.09.64.38.96.55s.7.27,1.07.14c.3-.11.17-.59-.13-.48-.44.16-.83-.19-1.18-.41s-.7-.37-1.11-.31c-.86.12-1.35.87-1.73,1.57-.14.26.18.49.39.3.73-.63,1.43-1.31,2.09-2.02.32-.35.64-.71.94-1.08.22-.26.59-.64.33-.99-.06-.09-.17-.15-.28-.11-1.56.43-3.11.85-4.67,1.28-.31.08-.18.57.13.48h0Z"/>
  <path class="cls-1" d="m14.44,40.92c.36,1.78.46,3.61.3,5.42-.03.32.47.32.5,0,.16-1.86.05-3.73-.32-5.55-.06-.32-.55-.18-.48.13h0Z"/>
  <path class="cls-1" d="m11.19,45.64c.09.51.2,1.01.33,1.51.11.41.23.91.73.97.13.02.25-.13.25-.25,0-.15-.12-.23-.25-.25.04,0-.01,0-.03-.02.02.01-.02-.03-.03-.04-.04-.05-.06-.11-.08-.16-.07-.19-.11-.4-.17-.6-.11-.43-.2-.86-.28-1.29-.02-.13-.19-.21-.31-.17-.14.04-.2.17-.17.31h0Z"/>
  <path class="cls-1" d="m13.74,46.4c-.09.39-.08.78-.1,1.18-.02.37-.07.75-.34,1.02-.24.24-.58.36-.91.43-.37.08-.83.17-1.2,0l.05.39c1.03-1.11,2.32-1.96,3.75-2.45.3-.1.17-.59-.13-.48-1.51.52-2.88,1.4-3.97,2.58-.1.11-.1.32.05.39.46.2.93.16,1.41.08.42-.08.84-.21,1.18-.48.8-.64.5-1.66.7-2.53.07-.31-.41-.45-.48-.13h0Z"/>
  <path class="cls-1" d="m16.8,44.93l-.32.83c-.08.21-.18.44-.03.65.29.4.8.03,1.04-.21.32-.32.56-.75.48-1.21-.08-.44-.41-.77-.85-.81v.5c1.46.03,2.91-.22,4.26-.75.3-.12.17-.6-.13-.48-1.32.52-2.72.77-4.13.74-.33,0-.31.47,0,.5.22.02.36.27.37.47.01.26-.15.5-.32.67-.08.08-.17.17-.27.23,0,0-.11.04-.11.04.06.06.09.06.1,0,.01-.04.03-.08.04-.11.11-.3.23-.61.35-.91s-.37-.43-.48-.13h0Z"/>
  <path class="cls-1" d="m20.88,42.77c-.11,1.34-.15,2.68-.13,4.02,0,.32.5.32.5,0-.02-1.34.02-2.68.13-4.02.03-.32-.47-.32-.5,0h0Z"/>
  <path class="cls-1" d="m22.87,42.51c-.23,1.69-.34,3.4-.31,5.11,0,.32.5.32.5,0-.02-1.66.07-3.33.3-4.98.04-.31-.44-.45-.48-.13h0Z"/>
  <path class="cls-1" d="m30.32,42.47c1.05-.11,2.09-.22,3.14-.31l-.24-.32c-.04.21-.18.35-.34.49-.19.17-.39.33-.58.5-.41.34-.81.68-1.23,1.02-.82.66-1.66,1.3-2.52,1.92-.26.19,0,.62.25.43.92-.66,1.81-1.35,2.69-2.06.44-.35.87-.71,1.3-1.08.35-.3.82-.61.91-1.09.03-.14-.07-.33-.24-.32-1.05.1-2.09.2-3.14.31-.32.03-.32.53,0,.5h0Z"/>
  <path class="cls-1" d="m34.17,40.4c-1,1.8-1.53,3.82-1.53,5.88,0,.32.5.32.5,0,0-1.97.51-3.91,1.47-5.63.16-.28-.27-.53-.43-.25h0Z"/>
  <path class="cls-1" d="m34.21,42.05l1.21-.09c.2-.01.4-.03.6-.04.07,0,.13,0,.19.01-.03,0,.03-.03,0,.01,0,0,0-.01,0-.02.02-.06.02-.07,0-.03-.08.11-.02.28.09.34.12.07.27.02.34-.09.14-.21.04-.5-.15-.63-.21-.14-.48-.1-.72-.08l-1.55.11c-.13,0-.25.11-.25.25,0,.13.11.26.25.25h0Z"/>
  <path class="cls-1" d="m31.32,47.01c.5.53,1.1,1.09,1.89,1.03s1.58-.56,2.26-.99c.27-.17.02-.6-.25-.43-.59.37-1.24.81-1.94.91s-1.18-.42-1.61-.87c-.22-.24-.57.12-.35.35h0Z"/>
  <path class="cls-1" d="m38.94,41.68c.64-.22,1.29-.43,1.98-.41l-.07-.49c-.78.27-1.54.61-2.25,1.04-.66.4-1.33.86-1.81,1.48-.21.27-.44.61-.41.96s.33.56.65.65c.79.25,1.64-.1,2.36-.4.89-.38,1.73-.86,2.54-1.39.27-.17.02-.61-.25-.43-.76.49-1.54.95-2.37,1.31-.4.18-.82.35-1.25.44-.25.05-1.18.16-1.18-.26,0-.19.19-.41.29-.56.12-.16.26-.31.41-.45.3-.28.64-.52.99-.74.75-.48,1.56-.87,2.4-1.16.27-.09.22-.48-.07-.49-.73-.03-1.43.19-2.11.42-.3.1-.17.59.13.48h0Z"/>
  <path class="cls-1" d="m42.89,39.01c-1.23,2.21-1.52,4.86-.78,7.28.09.31.58.18.48-.13-.7-2.29-.43-4.8.73-6.89.16-.28-.28-.53-.43-.25h0Z"/>
  <path class="cls-1" d="m42.96,41.99c.68-.19,1.38-.33,2.09-.4.32-.03.64-.06.97-.06.27,0,.57.02.78.21.24.21.6-.14.35-.35-.53-.46-1.29-.37-1.94-.31-.8.07-1.6.22-2.38.43-.31.09-.18.57.13.48h0Z"/>
  <path class="cls-1" d="m46.28,45.56c.64,0,.64-1,0-1s-.64,1,0,1h0Z"/>
  <path class="cls-1" d="m58.47,42.91c.64-.04,1.26-.15,1.88-.34.31-.09.18-.57-.13-.48-1.39.4-2.5,1.41-3.05,2.74-.06.13.06.26.17.31.46.18.97.03,1.43-.08.48-.12.96-.26,1.44-.4,1-.28,2.01-.55,3.05-.54.32,0,.32-.5,0-.5-.98,0-1.94.21-2.88.47-.48.13-.96.28-1.44.4-.45.12-1.01.34-1.47.16l.17.31c.48-1.16,1.5-2.04,2.71-2.39l-.13-.48c-.57.17-1.15.28-1.74.32-.32.02-.32.52,0,.5h0Z"/>
  <path class="cls-1" d="m56.55,47.85c3.28-.32,6.34-1.55,9.36-2.79.29-.12.17-.6-.13-.48-2.97,1.22-6,2.45-9.23,2.77-.32.03-.32.53,0,.5h0Z"/>
  <path class="cls-1" d="m62.7,41.38c.07.65.3,1.28.67,1.82.08.11.22.16.34.09.11-.06.17-.23.09-.34-.08-.12-.16-.24-.23-.37s-.13-.25-.17-.38c-.1-.26-.18-.57-.2-.82-.02-.13-.1-.25-.25-.25-.12,0-.27.11-.25.25h0Z"/>
  <path class="cls-1" d="m64.21,41.32c.45-.05.91-.09,1.36-.1.23,0,.46-.01.68,0,.1,0,.33-.04.24.13-.08.14-.3.23-.44.3-.18.1-.37.2-.56.29-.39.19-.79.35-1.2.49-.21.07-.26.44,0,.48,1.19.21,2.36-.26,3.55-.14.32.03.32-.47,0-.5-1.14-.12-2.28.35-3.42.16v.48c.51-.18,1.01-.39,1.49-.63.4-.2,1.03-.43,1.08-.94.02-.21-.06-.43-.26-.54-.22-.12-.51-.08-.75-.08-.6,0-1.2.04-1.79.11-.14.02-.25.1-.25.25,0,.12.12.27.25.25h0Z"/>
  <path class="cls-1" d="m65.68,45.58c.96-.15,1.91-.3,2.87-.45.13-.02.21-.19.17-.31-.04-.14-.17-.2-.31-.17-.96.15-1.91.3-2.87.45-.13.02-.21.19-.17.31.04.14.17.2.31.17h0Z"/>
  <path class="cls-1" d="m66.43,45.79c-.16.45-.33.91-.32,1.4,0,.43.15.86.46,1.17.23.23.58-.13.35-.35-.56-.56-.24-1.45,0-2.08.05-.13-.05-.27-.17-.31-.14-.04-.26.05-.31.17h0Z"/>
  <path class="cls-1" d="m64.95,47.89c.12.44.28.91.68,1.16.44.28,1,.21,1.48.08,1.05-.29,1.93-.97,2.78-1.63.25-.2-.1-.55-.35-.35-.7.55-1.43,1.11-2.27,1.41-.37.13-.83.27-1.22.14s-.51-.57-.61-.94c-.08-.31-.57-.18-.48.13h0Z"/>
  <path class="cls-1" d="m71.17,40.54c1.11.26,2.24.34,3.38.25.32-.03.33-.5,0-.5-1.06,0-2.01.64-2.85,1.23-.46.33-.91.68-1.34,1.06-.26.23-.66.59-.26.9.35.27.98.17,1.39.16.6-.02,1.2-.09,1.78-.2,1.19-.21,2.34-.56,3.5-.9.31-.09.18-.58-.13-.48-1.83.55-3.71,1.12-5.64,1.08-.12,0-.25,0-.37-.01h-.14c-.05.06-.05.06,0,0,.12-.16.33-.3.48-.43.37-.31.76-.61,1.16-.88.71-.49,1.51-1.03,2.4-1.03v-.5c-1.09.09-2.18.01-3.24-.23-.31-.07-.45.41-.13.48h0Z"/>
  <path class="cls-1" d="m71.25,47.35c2-.48,4-.99,5.98-1.55.31-.09.18-.57-.13-.48-1.98.56-3.98,1.08-5.98,1.55-.31.07-.18.56.13.48h0Z"/>
  <path class="cls-1" d="m78.3,39.34c-.22.39-.39.82-.48,1.27-.08.4-.16.89.22,1.18s.82.15,1.2,0c.43-.17.89-.29,1.35-.33.18-.02.32-.2.22-.38-.07-.11-.03-.25,0-.37.04-.14.09-.27.11-.41.05-.32-.04-.66-.36-.79-.17-.07-.35-.09-.53-.11s-.36-.04-.54-.04c-.38,0-.75.04-1.12.13-.31.07-.18.56.13.48s.64-.11.96-.11c.16,0,.31,0,.47.03.13.01.31.02.43.08.15.08.04.36,0,.48-.09.29-.16.6,0,.88l.22-.38c-.41.04-.82.12-1.21.25-.18.06-.36.14-.54.2-.14.04-.29.08-.43.03-.28-.11-.13-.57-.09-.78.08-.37.22-.72.41-1.06.16-.28-.27-.53-.43-.25h0Z"/>
  <path class="cls-1" d="m76.53,44.56c.45-.16.92-.3,1.39-.41.24-.05.47-.1.71-.14.11-.02.21-.03.32-.05.04,0,.18-.03.22,0,.06.05-.03.35-.05.43-.05.19-.11.37-.2.54-.17.35-.42.66-.73.9-.11.08-.16.21-.09.34.06.1.23.17.34.09.39-.3.71-.67.93-1.12.11-.23.2-.47.25-.71s.12-.54-.04-.76c-.14-.2-.4-.23-.63-.2-.29.03-.58.08-.86.14-.57.12-1.14.27-1.69.47-.3.11-.17.59.13.48h0Z"/>
  <path class="cls-1" d="m76.75,46.36c-.11.52-.2,1.13.21,1.55.37.38.95.41,1.44.4,1.42-.02,2.83-.23,4.19-.63.31-.09.18-.57-.13-.48-1.12.33-2.27.53-3.43.59-.45.02-.98.09-1.42-.06-.56-.19-.48-.77-.37-1.24.07-.31-.41-.45-.48-.13h0Z"/>
  <path class="cls-1" d="m90.97,40.87c-.41.64-.77,1.32-1.04,2.03-.09.25-.14.55.02.78.19.26.56.26.85.24.62-.05,1.18-.3,1.73-.57.29-.15.58-.3.87-.44.14-.06.27-.12.42-.18.08-.03.16-.06.24-.08.04-.01.19-.03.14-.05.29.13.54-.3.25-.43-.26-.12-.51-.01-.76.08-.26.1-.52.21-.77.34-.51.25-1,.54-1.54.71-.26.08-.52.13-.79.13-.12,0-.23.02-.24-.12,0-.13.07-.27.11-.38.25-.63.58-1.24.95-1.81.17-.27-.26-.52-.43-.25h0Z"/>
  <path class="cls-1" d="m92.21,43.92c-.13.56-.31,1.12-.53,1.65-.1.25-.21.5-.35.73-.09.15-.21.35-.4.36-.32.02-.32.52,0,.5.63-.04.9-.7,1.12-1.2.27-.62.49-1.25.64-1.91.07-.31-.41-.45-.48-.13h0Z"/>
  <path class="cls-1" d="m90.1,47.19c2-.53,4.02-.97,6.05-1.32.32-.05.18-.54-.13-.48-2.04.35-4.06.79-6.05,1.32-.31.08-.18.57.13.48h0Z"/>
  <path class="cls-1" d="m97.57,39.7l.78-.15c.2-.04.41-.1.61-.09.02,0,.06.02.04,0-.01-.01,0,.03,0,.05-.02.09-.05.18-.08.27-.06.18-.14.36-.23.53-.37.69-.94,1.26-1.64,1.61-.29.15-.03.58.25.43.67-.34,1.24-.87,1.65-1.51.2-.32.37-.67.48-1.03.06-.19.11-.41,0-.59-.1-.18-.28-.25-.47-.26-.24-.01-.49.06-.72.11l-.81.15c-.13.02-.21.19-.17.31.04.14.17.2.31.17h0Z"/>
  <path class="cls-1" d="m95.65,42.93c1.07-.51,2.23-.81,3.42-.87l-.07-.49c-.74.1-1.32.62-1.72,1.23-.22.33-.38.7-.53,1.07-.13.3-.25.64.12.82s.81.07,1.16-.04c.39-.12.78-.27,1.16-.43.78-.33,1.52-.72,2.23-1.18.27-.17.02-.61-.25-.43-.53.34-1.08.65-1.66.92s-1.23.56-1.87.7c-.08.02-.5.1-.54.01,0,0,.15-.29.18-.35.13-.29.26-.57.43-.84.33-.51.8-.91,1.42-1,.28-.04.21-.51-.07-.49-1.28.07-2.52.39-3.67.94-.29.14-.04.57.25.43h0Z"/>
  <path class="cls-1" d="m102.45,39.27c-.74,2.03-1.18,4.16-1.33,6.31-.02.32.48.32.5,0,.14-2.11.58-4.19,1.31-6.18.11-.3-.37-.43-.48-.13h0Z"/>
  <path class="cls-1" d="m102.55,42.07c.32-.09.64-.16.96-.21.15-.02.31-.04.46-.04.06,0,.12,0,.14.02,0,0,.04.02.03.03,0,0,0-.04,0-.05-.02.13.03.27.17.31.12.03.29-.04.31-.17.03-.23-.06-.44-.27-.55s-.43-.08-.64-.06c-.44.04-.87.13-1.3.25-.31.09-.18.57.13.48h0Z"/>
  <path class="cls-1" d="m98.04,46c-.49.49-1.01,1.19-.55,1.88.41.62,1.24.74,1.92.66,1.69-.21,3.27-1.15,4.73-1.97.28-.16.03-.59-.25-.43-1.19.67-2.39,1.34-3.7,1.72-.58.17-1.25.33-1.83.09-.32-.13-.61-.41-.53-.78.07-.32.35-.59.57-.81s-.12-.58-.35-.35h0Z"/>
  <path class="cls-1" d="m112.1,39.71c1.22.08,2.42.41,3.51.98.29.15.54-.28.25-.43-1.17-.61-2.45-.96-3.76-1.05-.32-.02-.32.48,0,.5h0Z"/>
  <path class="cls-1" d="m110.83,41.75c1.18-.15,2.37-.2,3.56-.16l-.07-.49c-.79.19-1.54.55-2.14,1.1-.3.27-.56.6-.74.96-.17.34-.4.84-.12,1.18.25.31.7.26,1.04.19.43-.09.85-.25,1.24-.45s.76-.46,1.08-.75c.26-.23.79-.66.6-1.06-.22-.45-.98-.34-1.35-.24-.54.15-1.06.4-1.53.7-.27.17-.02.6.25.43.32-.2.66-.38,1.01-.51.33-.12.72-.27,1.08-.17h.04c.05.05.07.05.05,0-.04,0,.03-.05-.04.01s-.12.14-.18.2c-.12.12-.24.24-.37.35-.25.22-.52.4-.81.56s-.62.29-.95.38c-.15.04-.67.22-.79.04-.07-.1.05-.35.09-.45.06-.14.13-.27.21-.4.16-.26.37-.48.59-.68.53-.46,1.18-.75,1.85-.91.28-.07.21-.48-.07-.49-1.19-.04-2.38.01-3.56.16-.32.04-.32.54,0,.5h0Z"/>
  <path class="cls-1" d="m116.68,40.21l.27,2.1.25-.25c.06.14.13.17.21.1.06-.03.12-.07.19-.1.12-.07.25-.13.37-.2.25-.13.5-.26.75-.39.35-.18.72-.36.96-.69.25-.34.23-.74.17-1.14-.07-.5-.22-.97-.42-1.43-.1-.23-.48-.11-.47.13.07,1.77.15,3.55.22,5.32.01.32.51.32.5,0-.07-1.77-.15-3.55-.22-5.32l-.47.13c.22.49.37,1.03.39,1.56s-.45.77-.88.99c-.25.13-.5.26-.75.39s-.51.23-.73.39c-.32.23-.26.72.16.76.12.01.27-.12.25-.25l-.27-2.1c-.04-.31-.54-.32-.5,0h0Z"/>
  <path class="cls-1" d="m117.5,43.79c-.88,1.3-1.85,2.54-2.9,3.71-.21.24.14.59.35.35,1.08-1.2,2.07-2.48,2.98-3.81.18-.27-.25-.52-.43-.25h0Z"/>
  <path class="cls-1" d="m117.78,46.07c1.09.24,2.2.41,3.32.51.32.03.32-.47,0-.5-1.07-.09-2.14-.26-3.19-.5-.31-.07-.45.41-.13.48h0Z"/>
  <path class="cls-1" d="m121.69,40.21c.08.74.24,1.48.48,2.18.04.13.17.21.31.17.12-.03.22-.18.17-.31-.23-.66-.38-1.35-.46-2.05-.01-.13-.1-.25-.25-.25-.12,0-.26.11-.25.25h0Z"/>
  <path class="cls-1" d="m123.4,39.32c.26.65.42,1.34.45,2.04.03.58.04,1.32-.46,1.72-.18.15-.47.25-.69.1-.26-.18,0-.48.19-.59.28-.14.62-.19.92-.24.37-.06.74-.1,1.12-.12.32-.02.32-.52,0-.5-.69.03-1.46.09-2.11.35-.3.12-.55.31-.67.62-.11.27-.06.58.14.79.41.44,1.1.28,1.49-.09.49-.46.57-1.17.57-1.8-.01-.82-.17-1.64-.47-2.4-.12-.3-.6-.17-.48.13h0Z"/>
  <path class="cls-1" d="m125.53,38.93c.22,1.68.38,3.36.47,5.05.02.32.52.32.5,0-.09-1.69-.25-3.37-.47-5.05-.04-.31-.54-.32-.5,0h0Z"/>
  <path class="cls-1" d="m123.47,44.6c.41-.09.83-.18,1.24-.27.21-.04.41-.09.62-.13.05-.01.31-.03.34-.07l-.02-.15s-.06.06-.09.09c-.15.1-.34.16-.5.23-.21.09-.42.19-.63.28-.39.17-.78.35-1.17.52-.26.12-.07.54.19.46.5-.15,1-.31,1.51-.46l.73-.22c.13-.04.41-.18.53-.06v-.35c-.54.43-1.15.76-1.81.97l.13.48c.73-.28,1.54-.27,2.27.03.37.15.64.4.96.63.28.2.64.25.9,0,.23-.22-.12-.58-.35-.35-.12.12-.32-.1-.42-.18-.13-.11-.27-.22-.42-.31-.3-.18-.63-.32-.98-.41-.69-.17-1.43-.14-2.09.11-.3.11-.18.58.13.48.75-.24,1.42-.61,2.03-1.1.11-.09.08-.26,0-.35-.34-.39-.95-.09-1.35.03-.63.19-1.26.38-1.89.58l.19.46c.54-.24,1.08-.48,1.62-.72.33-.15,1.03-.32,1.02-.8-.01-.55-.72-.34-1.03-.27-.59.12-1.18.25-1.77.38-.31.07-.18.55.13.48h0Z"/>
  <path class="cls-1" d="m130.25,41.19c-.29.35-.56.71-.81,1.09-.23.34-.53.72-.65,1.12s.14.75.54.85.86-.05,1.24-.21c.74-.3,1.44-.76,1.97-1.35.26-.29.48-.65.48-1.05,0-.37-.19-.72-.54-.87-.39-.17-.87-.1-1.27,0-.44.13-.84.35-1.18.66-.24.21.11.57.35.35.43-.39,1.03-.64,1.62-.62.27,0,.48.13.51.42s-.15.55-.33.75c-.41.46-.92.82-1.47,1.1-.28.14-.58.27-.88.33-.14.03-.3.04-.44,0-.17-.06-.17-.15-.1-.3.15-.34.39-.67.6-.97s.45-.63.7-.93c.2-.25-.15-.6-.35-.35h0Z"/>
  <path class="cls-1" d="m134.26,39.32l-.95,8.49c-.04.32.46.32.5,0l.95-8.49c.04-.32-.46-.32-.5,0h0Z"/>
  <path class="cls-1" d="m8.04,57.63c1.17-.07,2.34-.13,3.51-.2.32-.02.32-.52,0-.5-1.17.07-2.34.13-3.51.2-.32.02-.32.52,0,.5h0Z"/>
  <path class="cls-1" d="m8.94,59.23c.5-.14,1-.25,1.52-.3.12-.01.52-.09.55.1.02.14-.26.4-.35.5-.58.65-1.31,1.15-2.13,1.45l.19.46c.3-.2.62-.38.95-.54.3-.14.61-.3.94-.36s.59.06.87.17.59.19.91.12.18-.55-.13-.48c-.3.07-.6-.11-.86-.21-.32-.12-.64-.15-.98-.07s-.68.24-.99.39-.64.34-.95.54c-.22.15-.09.56.19.46,1.04-.38,1.99-1.05,2.66-1.95.16-.22.26-.51.11-.76s-.43-.34-.71-.34c-.64,0-1.3.17-1.91.34-.31.09-.18.57.13.48h0Z"/>
  <path class="cls-1" d="m12.58,56.94c.14,1.31.2,2.64.19,3.96,0,.32.5.32.5,0,.01-1.32-.05-2.64-.19-3.96-.03-.32-.53-.32-.5,0h0Z"/>
  <path class="cls-1" d="m14.05,59.42c.54-.19,1.09-.31,1.65-.35.13,0,.25-.11.25-.25,0-.13-.11-.26-.25-.25-.61.04-1.21.16-1.78.37-.13.05-.21.17-.17.31.03.12.18.22.31.17h0Z"/>
  <path class="cls-1" d="m12.15,62.51c-.2.25-.38.51-.53.8-.14.26-.27.55-.35.84s.03.64.37.7c.28.05.54-.11.77-.26.48-.32.9-.73,1.25-1.19.17-.22.33-.46.44-.72.06-.13.1-.28.06-.43-.05-.18-.22-.3-.4-.31-.15-.02-.3.03-.44.08-.17.06-.35.13-.51.22-.31.15-.6.34-.88.56-.11.08-.09.27,0,.35.11.11.25.08.35,0,.36-.28.78-.51,1.21-.66.05-.02.1-.04.16-.05.01,0,.08,0,.08,0-.02.02-.06-.05-.05-.05,0,0-.05.13-.06.14-.1.19-.21.37-.34.55-.25.34-.55.65-.88.91-.16.12-.34.26-.52.34-.04.02-.08.03-.12.04,0,0-.04,0-.04,0,.01.04.05-.11.05-.11.14-.5.42-.98.74-1.38.08-.1.1-.25,0-.35-.09-.09-.27-.11-.35,0h0Z"/>
  <path class="cls-1" d="m16.23,57.97c-.13.12-.25.25-.37.38-.11.12-.24.24-.32.38-.15.26,0,.55.29.61s.54-.06.79-.17c.29-.12.57-.27.84-.44s.51-.36.74-.57c.21-.19.52-.44.54-.75.02-.34-.32-.56-.63-.54s-.65.19-.94.32c-.7.3-1.35.67-1.96,1.13-.11.08-.16.22-.09.34.06.11.23.17.34.09.4-.3.81-.56,1.25-.79.22-.12.45-.23.68-.32.22-.09.46-.21.7-.25.02,0,.15-.02.16.01.02.05-.15.19-.18.22-.17.17-.34.32-.53.46-.37.28-.77.51-1.2.69-.09.04-.19.09-.29.1-.01,0-.1,0-.11,0,0,0,.06.12.05.12.04,0,.12-.14.14-.16.05-.05.09-.1.14-.15.11-.12.22-.23.33-.34.23-.22-.12-.58-.35-.35h0Z"/>
  <path class="cls-1" d="m15.89,60.6c1.4-.62,2.89-1.04,4.41-1.24.31-.04.32-.54,0-.5-1.61.21-3.17.65-4.66,1.31-.29.13-.04.56.25.43h0Z"/>
  <path class="cls-1" d="m15.64,62.56c.57-.07,1.15-.13,1.73-.13.27,0,.55.02.82.07.11.02.23.05.34.1.04.02.11.09.15.09.03.04.04.03.04-.02.02-.05,0-.06-.04,0-.11.02-.23.09-.34.12-.13.04-.27.07-.4.09-.26.05-.51.1-.77.16-.52.13-1.03.33-1.51.58-.23.12-.11.46.13.47,1.03.01,2.01-.33,2.96-.69.3-.11.17-.59-.13-.48-.59.2-1.14.48-1.65.85-.21.15-.49.33-.62.56s-.03.54.21.68c.26.16.58.07.86.01.33-.07.65-.14.98-.23.65-.18,1.29-.42,1.91-.69.29-.13.04-.56-.25-.43-.91.4-1.87.7-2.85.89-.1.02-.22.06-.32.04-.15-.03-.05-.08.03-.15.18-.16.37-.3.57-.43.4-.26.82-.46,1.27-.62l-.13-.48c-.91.34-1.84.68-2.83.67l.13.47c.59-.31,1.22-.51,1.87-.63.38-.07,1.47-.17,1.43-.76-.02-.28-.31-.45-.55-.55-.28-.11-.59-.14-.89-.17-.71-.05-1.42.03-2.12.11-.32.04-.32.54,0,.5h0Z"/>
  <path class="cls-1" d="m27.77,56.99c1.07-.21,2.16-.3,3.25-.3.32,0,.32-.5,0-.5-1.14,0-2.27.1-3.38.32-.32.06-.18.54.13.48h0Z"/>
  <path class="cls-1" d="m27.96,58.26c.89-.32,1.81-.5,2.76-.52l-.13-.47c-.69.35-1.47.45-2.18.73-.48.19-1.42.62-1.17,1.29s1.38.59,1.92.51c.86-.13,1.65-.54,2.5-.66l-.13-.48c-1.04.33-1.68,1.23-2.31,2.07-.76,1.02-1.67,1.86-2.79,2.47-.28.15-.03.58.25.43,1.34-.68,2.78-1.13,4.27-1.36.32-.05.18-.53-.13-.48-1.53.23-3.01.71-4.39,1.41l.25.43c1.06-.57,1.97-1.35,2.71-2.3.63-.82,1.22-1.85,2.27-2.19.31-.1.18-.53-.13-.48-.65.1-1.26.35-1.89.53-.31.09-.63.16-.96.17-.2,0-.93,0-.95-.26s.46-.45.66-.54c.27-.12.55-.21.83-.29.56-.16,1.11-.3,1.63-.56.22-.11.11-.47-.13-.47-.99.02-1.96.2-2.89.54-.3.11-.17.59.13.48h0Z"/>
  <path class="cls-1" d="m27.83,64.45c-.29.17-.56.39-.77.65-.2.24-.51.61-.43.95.15.66,1.17.46,1.62.34.64-.17,1.24-.51,1.71-.99.22-.22.53-.54.46-.88s-.41-.44-.72-.42c-.8.04-1.55.34-2.17.84-.11.08-.09.26,0,.35.1.11.25.08.35,0,.4-.32.87-.53,1.37-.63.21-.04.45-.08.66-.04.06.01.01,0,0,0-.01.05-.05.1-.08.15-.07.1-.16.19-.24.28-.33.33-.73.6-1.17.76-.23.08-.46.15-.7.18-.14.02-.45.08-.58-.02-.07-.05,0-.12.04-.19.07-.12.15-.23.23-.34.19-.22.41-.4.65-.55.28-.16.03-.6-.25-.43h0Z"/>
  <path class="cls-1" d="m32.93,58.27c.06.02.11.04.17.06.01,0,.03.01.04.02-.02,0-.02,0,0,0,.03.01.05.02.08.04.11.05.22.11.33.17s.2.12.3.19c.02.02.05.03.07.05.01,0,.02.02.04.03,0,0,.04.03.02.01s.02.01.02.01c.01,0,.02.02.03.03.03.02.05.04.08.06.1.08.26.1.35,0,.09-.09.11-.26,0-.35-.42-.35-.89-.63-1.4-.81-.12-.04-.28.05-.31.17-.03.14.04.26.17.31h0Z"/>
  <path class="cls-1" d="m32.56,60.7c.63-.13,1.29-.13,1.92,0l-.17-.31c-.12.36-.38.64-.66.89-.31.27-.64.52-.92.81s-.76.87-.3,1.21c.19.14.43.14.65.11.24-.03.48-.09.71-.18.53-.2,1.01-.52,1.38-.94.13-.14.07-.36-.11-.42-.55-.18-1.13-.06-1.67.08l.28.37c.04-.06.1-.1.17-.13.12-.06.15-.23.09-.34-.07-.12-.22-.15-.34-.09-.15.07-.25.18-.35.31-.13.19.09.42.28.37.46-.12.94-.23,1.41-.08l-.11-.42c-.28.32-.62.57-1,.75-.32.15-.73.29-1.09.23,0,0,.01.02.01.03,0-.03.03-.07.04-.1.04-.07.08-.14.13-.2.11-.14.24-.27.37-.39.27-.24.56-.46.82-.71.3-.28.56-.61.69-1.01.04-.12-.05-.28-.17-.31-.73-.15-1.46-.15-2.19,0-.32.06-.18.55.13.48h0Z"/>
  <path class="cls-1" d="m35.86,59.43c-.39.55-.75,1.39-.58,2.08.14.58.76.77,1.27.55.65-.28.79-1.01.89-1.64.08-.51.16-1.02.24-1.52.07-.42.15-.89.56-1.1l-.37-.15c.42,3.02.71,6.07.87,9.12.02.32.52.32.5,0-.16-3.09-.46-6.18-.89-9.25-.02-.17-.24-.22-.37-.15-.4.21-.6.6-.71,1.03-.16.65-.22,1.33-.33,1.99-.05.3-.09.63-.25.9-.13.23-.51.53-.79.33-.52-.37.14-1.57.39-1.92.19-.26-.25-.51-.43-.25h0Z"/>
  <path class="cls-1" d="m47.43,60.41c2.52-.42,5.05-.81,7.58-1.17.32-.04.18-.53-.13-.48-2.53.35-5.06.74-7.58,1.17-.32.05-.18.54.13.48h0Z"/>
  <path class="cls-1" d="m50.05,59.26c-.26.41-.53.9-.34,1.4.1.25.28.43.54.53.22.08.46.08.69.07.13,0,.26-.11.25-.25s-.11-.25-.25-.25c-.09,0-.18,0-.27,0-.02,0-.05,0-.07,0-.08,0,.05,0-.03,0-.04,0-.08-.02-.12-.03-.02,0-.05-.01-.07-.02.04.02-.02-.01-.03-.02-.02,0-.03-.02-.05-.03-.02-.01.01.02-.02-.01-.02-.02-.03-.03-.05-.05.03.04-.01-.02-.01-.03,0-.02-.02-.03-.03-.05,0-.02,0-.01,0,0,0-.01,0-.02-.01-.03,0-.02-.01-.04-.02-.06,0,0-.01-.08,0-.03,0-.04,0-.09,0-.13,0-.02,0-.04,0-.06,0,.05,0-.02,0-.03,0-.05.02-.1.04-.14.02-.06.02-.06.04-.11.02-.05.05-.09.07-.14.05-.09.11-.18.17-.28.07-.11.03-.28-.09-.34-.12-.07-.27-.03-.34.09h0Z"/>
  <path class="cls-1" d="m52.68,60.84c-.86,1.45-2.16,2.59-3.71,3.26-.26.11-.07.56.19.46,1.9-.76,3.86-1.36,5.87-1.8.31-.07.18-.55-.13-.48-2,.44-3.96,1.04-5.87,1.8l.19.46c1.62-.71,2.99-1.92,3.89-3.44.16-.28-.27-.53-.43-.25h0Z"/>
  <path class="cls-1" d="m55.04,57.21c.18,2.64.28,5.27.3,7.92,0,.32.5.32.5,0-.02-2.64-.12-5.28-.3-7.92-.02-.32-.52-.32-.5,0h0Z"/>
  <path class="cls-1" d="m56.95,57.85l.51,1.53c.04.12.17.22.31.17.12-.04.22-.17.17-.31l-.51-1.53c-.04-.12-.17-.22-.31-.17-.12.04-.22.17-.17.31h0Z"/>
  <path class="cls-1" d="m58.98,57.59c-.05.47-.13.94-.23,1.4-.04.2-.07.44-.19.61-.07.11-.19.19-.31.23-.16.06-.32.08-.49.1-.09,0-.17,0-.26.01-.01,0-.21-.02-.21-.02,0,0,.02.05.02.04,0,0,0,.08-.01.07,0,0,.03-.03.04-.03.09-.05.18-.1.28-.14.2-.09.42-.16.64-.21s.44-.1.66-.1c.14,0,.34.02.43.14.08.11.22.16.34.09.11-.06.17-.23.09-.34-.34-.46-.92-.42-1.42-.32-.29.05-.57.14-.84.25-.24.1-.59.21-.67.5s.13.5.39.55c.23.05.48.02.7,0,.51-.06.97-.27,1.17-.77.12-.31.17-.66.23-.98.06-.35.11-.71.15-1.06.01-.13-.13-.25-.25-.25-.15,0-.24.12-.25.25h0Z"/>
  <path class="cls-1" d="m57.07,61.74c1.69-.58,3.43-1.02,5.2-1.3l-.13-.48c-.52.15-1.08.15-1.59.37-.55.24-.81.73-.96,1.3-.17.68-.29,1.4-.32,2.1-.02.54.25,1.25.91,1.16.32-.04.32-.54,0-.5-.83.1-.18-2.45-.05-2.86.14-.45.42-.71.88-.83.41-.11.84-.14,1.25-.26.32-.09.18-.53-.13-.48-1.77.28-3.51.71-5.2,1.3-.3.1-.17.59.13.48h0Z"/>
  <path class="cls-1" d="m69.25,58.72c.03.33.22.61.53.73.26.11.57.03.76-.19s.25-.52.1-.78c-.17-.3-.57-.4-.89-.37-.38.04-.71.21-1.04.39-.11.06-.16.23-.09.34s.22.16.34.09c.1-.06.21-.12.32-.17.03-.01.05-.02.08-.04.03-.02,0,0,.04-.02.06-.02.12-.04.18-.06.13-.04.18-.05.3-.04.03,0,.05,0,.08,0-.04,0,.03,0,.04,0,.03,0,.05.01.08.02,0,0,.04.01.02,0-.02,0,.04.02.04.02,0,0,.06.04.03.02.01,0,.05.05.02.02.01.01.02.03.03.05,0,0-.01-.04,0-.02,0,.01,0,.02,0,.03.02.06,0-.03,0,.01,0,0,0,.05,0,.05,0,0,.01-.05,0-.02,0,0,0,.02,0,.03,0,.01-.03.07-.01.04.02-.03-.02.03-.02.03-.01.02-.03.04,0,0-.01.01-.02.03-.04.04,0,0-.01.01-.02.02-.02.02.03-.02,0,0-.01,0-.03.02-.05.03-.02.01.01,0,.02,0-.01,0-.02,0-.03.01-.04.01.04,0-.01,0-.01,0-.02,0-.03,0,0,0-.05,0-.02,0,.03,0-.04-.01-.05-.02,0,0-.04-.02,0,0,.03.01-.03-.02-.03-.02,0,0-.02-.01-.03-.02-.03-.01.02.02,0,0-.02-.02-.04-.03-.06-.05,0,0-.01-.02-.02-.02-.02-.03.02.03,0,0-.01-.02-.03-.04-.04-.07-.02-.04,0-.01,0,0,0-.01,0-.03-.01-.04,0-.01,0-.02,0-.03-.01-.03,0,.05,0,0-.01-.13-.11-.26-.25-.25-.13,0-.26.11-.25.25h0Z"/>
  <path class="cls-1" d="m66.98,60.98h1.77c.41,0,.94-.07,1.31.13.45.23.12.78-.09,1.07-.26.36-.58.68-.95.94-.43.3-.9.52-1.41.65-.31.08-.18.56.13.48,1.05-.27,1.99-.9,2.63-1.78.31-.43.61-1.04.25-1.53-.3-.41-.85-.45-1.32-.45-.77,0-1.55,0-2.32,0-.32,0-.32.5,0,.5h0Z"/>
  <path class="cls-1" d="m72.43,57.13c-.01,2.79.07,5.58.24,8.36.02.32.52.32.5,0-.17-2.78-.25-5.57-.24-8.36,0-.32-.5-.32-.5,0h0Z"/>
  <path class="cls-1" d="m75.43,58.44c.25.11.49.24.71.4.11.08.27.14.2.32-.04.11-.27.21-.36.28-.49.36-.97.71-1.46,1.07-.17.13-.15.49.13.47.82-.09,1.65-.17,2.47-.26l-.18-.43c-.71.56-1.43,1.13-2.14,1.69-.17.14-.03.44.18.43l1.54-.07c.19,0,.42-.05.61,0,.36.07.1.39-.05.56-.63.7-1.36,1.31-2.15,1.83-.19.13-.14.49.13.47,2.18-.19,4.35-.44,6.51-.76.32-.05.18-.53-.13-.48-2.12.31-4.25.55-6.38.74l.13.47c.54-.36,1.05-.75,1.52-1.19.24-.22.47-.44.68-.68.18-.2.39-.41.44-.68.09-.47-.31-.74-.72-.77-.69-.06-1.44.05-2.13.08l.18.43c.71-.56,1.43-1.13,2.14-1.69.16-.13.03-.45-.18-.43-.82.09-1.65.17-2.47.26l.13.47c.4-.29.79-.58,1.19-.87.28-.21.68-.41.86-.72.39-.66-.69-1.14-1.14-1.34-.29-.13-.55.3-.25.43h0Z"/>
  <path class="cls-1" d="m88.81,57.29c-.92,1.76-2.05,3.4-3.39,4.88-.22.24.14.59.35.35,1.36-1.51,2.53-3.18,3.47-4.98.15-.29-.28-.54-.43-.25h0Z"/>
  <path class="cls-1" d="m89.03,60.61c1.11.05,2.22.18,3.31.39.31.06.45-.42.13-.48-1.14-.22-2.29-.36-3.45-.41-.32-.01-.32.49,0,.5h0Z"/>
  <path class="cls-1" d="m86.16,64.33c2.88-.22,5.73-.63,8.55-1.24.31-.07.18-.55-.13-.48-2.78.6-5.59,1.01-8.42,1.22-.32.02-.32.52,0,.5h0Z"/>
  <path class="cls-1" d="m93.51,59.66c-.07.48-.11.97-.13,1.46,0,.24-.01.47,0,.71,0,.21,0,.43.05.63.12.46.56.55.97.46s.84-.27,1.23-.48.85-.49.88-.99c.02-.32-.48-.32-.5,0,0,.16-.16.27-.28.35-.18.12-.38.23-.59.32s-.41.17-.63.24c-.14.04-.37.14-.51.08s-.12-.33-.12-.45c0-.25,0-.49,0-.74.01-.49.05-.98.12-1.47.02-.13-.03-.27-.17-.31-.12-.03-.29.04-.31.17h0Z"/>
  <path class="cls-1" d="m94.65,59.69c.37-.22.77-.39,1.19-.49.15-.04.37-.12.5,0,.06.05.1.17.11.26.04.33-.1.69-.24.98-.18.37-.42.69-.71.97-.23.22.12.57.35.35.28-.27.52-.57.71-.91.17-.32.33-.67.38-1.03.04-.32.02-.67-.2-.92-.27-.32-.69-.26-1.06-.17-.45.12-.89.3-1.29.54-.28.16-.03.6.25.43h0Z"/>
  <path class="cls-1" d="m98.04,59.21c.52-.17,1.04-.25,1.59-.23.13,0,.26-.12.25-.25s-.11-.25-.25-.25c-.58-.01-1.17.07-1.72.25-.13.04-.21.17-.17.31.03.13.18.22.31.17h0Z"/>
  <path class="cls-1" d="m98.03,60.54c.64-.14,1.22-.45,1.71-.89.1-.09.1-.27,0-.35-.1-.1-.25-.09-.35,0-.42.37-.93.63-1.49.76-.13.03-.21.18-.17.31.04.13.17.21.31.17h0Z"/>
  <path class="cls-1" d="m100.13,56.08c-.74,3.95-1.26,7.94-1.57,11.94-.02.32.48.32.5,0,.3-3.96.82-7.9,1.55-11.81.06-.31-.42-.45-.48-.13h0Z"/>
  <path class="cls-1" d="m102.44,57.61c1.02-.28,2.05-.5,3.1-.64l-.07-.49c-.76.29-1.51.6-2.21,1.01-.33.2-.65.42-.95.67-.25.21-.64.5-.45.87.16.33.64.38.97.38.42,0,.84-.11,1.25-.21.88-.22,1.75-.5,2.66-.5l-.18-.43c-.09.07-.18.14-.27.21-.25.2.1.55.35.35.09-.07.18-.14.27-.21.18-.14.02-.43-.18-.43-.74,0-1.45.17-2.16.36-.35.09-.7.19-1.06.26s-.79.17-1.13.03c-.03,0-.05-.02-.07-.04-.03-.02-.03-.02,0,.01.01-.05.12-.12.16-.16.13-.12.26-.23.4-.33.26-.19.54-.37.83-.53.6-.33,1.24-.6,1.89-.84.24-.09.23-.53-.07-.49-1.09.15-2.17.36-3.23.66-.31.09-.18.57.13.48h0Z"/>
  <path class="cls-1" d="m101.29,61.42c1.72-.21,3.45-.42,5.17-.63l-.13-.47c-.81.43-1.62.87-2.37,1.41-.39.28-1.57,1.02-1.08,1.63.22.28.68.26,1,.22.49-.06.97-.21,1.44-.35.98-.28,1.96-.58,2.92-.92.3-.11.17-.59-.13-.48-.73.26-1.47.5-2.22.72-.36.11-.73.21-1.09.31s-.81.27-1.21.24c-.06,0-.29-.01-.31-.08-.01-.05.12-.18.16-.22.12-.13.27-.24.4-.36.28-.23.57-.43.87-.63.6-.39,1.24-.73,1.88-1.07.21-.11.13-.5-.13-.47-1.72.21-3.45.42-5.17.63-.32.04-.32.54,0,.5h0Z"/>
  <path class="cls-1" d="m110.86,57.92l2.83-.13-.07-.49c-1.03.31-2.09.65-2.96,1.29-.61.45-1.7,1.53-.66,2.16.46.28,1.05.3,1.58.27s1.1-.12,1.63-.24c1.17-.27,2.28-.75,3.29-1.39.27-.17.02-.61-.25-.43-.81.52-1.69.93-2.62,1.2-.88.25-1.93.51-2.85.35-.21-.04-.48-.1-.63-.25-.19-.2,0-.48.14-.65.29-.35.66-.62,1.04-.85.75-.44,1.59-.7,2.42-.96.26-.08.22-.5-.07-.49l-2.83.13c-.32.01-.32.51,0,.5h0Z"/>
  <path class="cls-1" d="m116.73,56.85c-.11,1.81-.19,3.62-.23,5.43,0,.32.49.32.5,0,.04-1.81.12-3.62.23-5.43.02-.32-.48-.32-.5,0h0Z"/>
  <path class="cls-1" d="m117.24,60.47c2.09-.49,4.24-.65,6.38-.48.32.03.32-.47,0-.5-2.18-.17-4.38,0-6.52.5-.31.07-.18.56.13.48h0Z"/>
  <path class="cls-1" d="m122.67,63.42c.64,0,.64-1,0-1s-.64,1,0,1h0Z"/>
</svg>