<?xml version="1.0" encoding="UTF-8"?>
<svg id="_레이어_2" data-name="레이어 2" xmlns="http://www.w3.org/2000/svg" viewBox="0 0 215.21 31.36">
  <defs>
    <style>
      .cls-1 {
        stroke-width: 0px;
      }
    </style>
  </defs>
  <path class="cls-1" d="m7.53,8.57c.38-.31.83-.53,1.31-.63.13-.03.4-.08.47.08.08.17-.06.45-.13.6-.41.9-1.13,1.6-1.83,2.29-.23.23.12.58.35.35.67-.65,1.35-1.33,1.79-2.16.2-.37.46-.88.25-1.3s-.73-.4-1.13-.31c-.53.13-1.02.39-1.44.74-.25.21.11.56.35.35h0Z"/>
  <path class="cls-1" d="m10.04,8.83c.37-.25.75-.52,1.19-.65.26-.08.86-.2.91.2.05.37-.21.79-.4,1.09-.24.37-.55.69-.85,1-.22.23.13.59.35.35.55-.58,1.15-1.22,1.35-2.02.1-.38.06-.83-.31-1.06s-.86-.16-1.23-.04c-.46.15-.87.42-1.26.69-.26.18-.01.61.25.43h0Z"/>
  <path class="cls-1" d="m7.29,12.96c1.83-.92,3.93-1.24,5.95-.87.31.06.45-.43.13-.48-2.16-.39-4.38-.06-6.34.93-.29.15-.03.58.25.43h0Z"/>
  <path class="cls-1" d="m10.27,12.5c-.17.88-.23,1.77-.17,2.66,0,.13.11.25.25.25.13,0,.26-.11.25-.25-.06-.85-.01-1.7.15-2.53.03-.13-.04-.27-.17-.31-.12-.03-.28.04-.31.17h0Z"/>
  <path class="cls-1" d="m13.91,9.42c.12-.09.24-.17.37-.24.06-.04.13-.07.19-.1.02,0,.18-.06.18-.08-.01.04-.05-.08-.03,0,0-.03.01.05.01.04,0,.03,0,.01,0,.03,0,.11,0,.23-.02.34-.08.51-.29,1-.62,1.4-.09.1-.1.25,0,.35.09.09.27.1.35,0,.45-.54.73-1.2.79-1.9.03-.31-.06-.72-.44-.76-.2-.02-.39.09-.56.18s-.32.19-.47.3c-.11.08-.16.22-.09.34.06.11.23.17.34.09h0Z"/>
  <path class="cls-1" d="m15.37,10.12l.64-.13c.1-.02.21-.04.31-.06.05-.01-.06,0-.01,0,.02,0,.04,0,.06,0-.04,0-.05,0-.03,0,0,0,.01,0,.02,0-.05,0-.1-.06-.11-.11.04.12.18.22.31.17.12-.04.22-.17.17-.31-.05-.16-.19-.25-.35-.26-.12-.01-.24.03-.36.05l-.78.16c-.13.03-.21.18-.17.31.04.14.17.2.31.17h0Z"/>
  <path class="cls-1" d="m12.97,12.7c.63-.42,1.29-.81,1.96-1.16.33-.17.65-.33.99-.49.17-.08.33-.15.5-.22s.39-.2.59-.16l-.15-.37c-.07.14-.21.19-.34.27-.14.08-.27.17-.37.28-.21.24-.3.54-.34.85-.08.66.23,1.43-.14,2.02-.17.27.26.52.43.25.4-.63.18-1.34.19-2.03,0-.29.06-.62.29-.82s.55-.27.71-.57c.07-.13.01-.33-.15-.37-.4-.09-.76.12-1.12.27-.38.17-.76.35-1.14.54-.75.38-1.47.8-2.17,1.27-.27.18-.02.61.25.43h0Z"/>
  <path class="cls-1" d="m15.01,14.01c.35.23.78.26,1.18.19s.79-.29,1.16-.49c.28-.16.03-.59-.25-.43-.53.3-1.24.69-1.83.31-.11-.07-.28-.02-.34.09-.07.12-.02.27.09.34h0Z"/>
  <path class="cls-1" d="m18.64,9.26c-.17.58-.19,1.19-.08,1.79.02.13.19.21.31.17.14-.04.2-.17.17-.31-.09-.5-.06-1.03.08-1.53.04-.13-.04-.28-.17-.31s-.27.04-.31.17h0Z"/>
  <path class="cls-1" d="m17.99,11.81c.3-.23.62-.44.95-.62.16-.09.33-.17.49-.25.08-.04.16-.07.24-.11.04-.02.09-.04.13-.05h.04c.06-.03.05-.03,0-.02l-.09-.09s.01-.04-.01,0c-.02.02-.03.06-.05.09-.03.06-.07.11-.11.17-.07.11-.15.22-.23.33-.16.21-.33.42-.49.63-.21.29-.9,1.28-.19,1.39.27.04.56-.1.79-.23.26-.15.5-.33.73-.52s.47-.38.68-.59c.19-.18.48-.42.4-.72-.1-.38-.51-.29-.78-.18-.32.13-.63.29-.91.49-.26.18-.01.61.25.43s.56-.35.87-.47c.03-.01.07-.03.1-.04.07-.02.1,0,.03-.09-.07-.09-.04-.07-.09-.01-.03.03-.06.06-.09.09-.12.12-.24.24-.37.35-.24.22-.5.42-.77.61-.13.09-.27.18-.41.26-.06.03-.13.07-.2.09-.03,0-.07.02-.1.02-.02,0-.04,0-.05,0-.04,0-.03,0,.03.02l.06.11c-.02-.06.09-.22.12-.27.05-.1.11-.2.18-.3.13-.19.27-.37.41-.55s.27-.35.4-.53.3-.41.29-.64c-.01-.27-.27-.4-.51-.34s-.46.18-.68.29c-.47.23-.9.5-1.31.81-.11.08-.16.22-.09.34.06.11.23.17.34.09h0Z"/>
  <path class="cls-1" d="m23.6,8.87c-.29,1.67-.43,3.36-.39,5.05,0,.32.51.32.5,0-.03-1.65.09-3.29.37-4.91.06-.31-.43-.45-.48-.13h0Z"/>
  <path class="cls-1" d="m24.22,14.07s-.02.06-.03.09c0,.02-.01.03,0,0,0,.01-.01.03-.02.04-.03.06-.05.12-.08.18-.06.11-.12.22-.18.33s-.13.21-.2.3c0,.01-.06.07-.03.04-.02.03-.04.05-.06.08-.04.05-.08.1-.13.15-.09.1-.1.26,0,.35.1.09.26.1.35,0,.38-.42.67-.9.87-1.43.05-.12-.05-.28-.17-.31-.14-.03-.26.04-.31.17h0Z"/>
  <path class="cls-1" d="m35.87,9.22c-.27.18-.57.39-.68.72-.1.29-.04.63.2.83.57.46,1.49-.22,1.91-.61.25-.23.57-.57.64-.92s-.15-.6-.47-.68c-.76-.19-1.69.12-2.33.52-.25.16-.08.5.19.46.21-.03.33-.14.45-.3.17-.23-.2-.51-.39-.3-.37.41-.52.94-.66,1.47-.15.57-.26,1.16-.33,1.74-.13,1.01-.26,2.22.4,3.09.19.25.63,0,.43-.25-.58-.76-.46-1.82-.35-2.71.07-.54.17-1.08.3-1.61.12-.47.23-1,.56-1.37l-.39-.3-.15.07.19.46c.4-.24.83-.41,1.3-.47.15-.02.52-.09.65,0,.23.16-.15.51-.26.62-.28.29-.64.56-1.02.7-.23.08-.49.03-.39-.27.07-.21.29-.34.46-.45.27-.18.02-.61-.25-.43h0Z"/>
  <path class="cls-1" d="m35.4,15.04c1.11-.61,2.31-1.03,3.55-1.26.32-.06.18-.54-.13-.48-1.28.24-2.52.69-3.67,1.31-.28.15-.03.59.25.43h0Z"/>
  <path class="cls-1" d="m39.82,10.35c.35.02.7.08,1.02.21.41.17-.22.56-.4.68-.54.38-1.15.64-1.79.78l.19.46c.84-.41,1.73-.7,2.65-.87l-.24-.42c-.66.52-1.39.95-2.15,1.3l.25.43c.33-.15.66-.3.99-.43.16-.06.32-.12.48-.18.08-.03.16-.06.24-.09.13,0,.15-.03.08-.09-.03-.15-.19.27-.21.32-.07.16-.15.31-.22.47-.15.31-.29.63-.44.94-.06.13-.02.34.15.37.94.15,1.65-.88,2.16-1.53.64-.81,1.17-1.68,1.6-2.61.13-.29-.29-.54-.43-.25-.29.61-.48,1.25-.55,1.92-.04.41-.04,1.28.63,1.06.25-.08.4-.31.52-.52.19-.32.37-.64.54-.97.33-.64.62-1.3.88-1.98l-.49-.07c.12,2.16-.59,4.29-.22,6.45.05.32.54.18.48-.13-.35-2.1.36-4.2.24-6.31-.02-.29-.39-.33-.49-.07-.34.9-.76,1.78-1.24,2.62-.06.1-.27.56-.37.39-.08-.13.04-.56.06-.7.08-.5.23-.98.45-1.43l-.43-.25c-.35.77-.78,1.51-1.28,2.19-.26.36-.54.7-.84,1.02-.26.29-.64.77-1.08.69l.15.37c.22-.47.44-.94.65-1.41.12-.26.39-.66.13-.92s-.76.02-1.04.13c-.46.17-.91.37-1.35.58-.29.14-.04.57.25.43.8-.37,1.55-.84,2.25-1.38.22-.17-.03-.46-.24-.42-.96.18-1.89.49-2.77.92-.26.13-.07.52.19.46.5-.11.98-.29,1.43-.53.41-.23.89-.52,1.18-.9.71-.91-1.04-1.19-1.58-1.22-.32-.02-.32.48,0,.5h0Z"/>
  <path class="cls-1" d="m47.82,13.32c.64,0,.64-1,0-1s-.64,1,0,1h0Z"/>
  <path class="cls-1" d="m50.25,13.15c.64,0,.64-1,0-1s-.64,1,0,1h0Z"/>
  <path class="cls-1" d="m52.71,13.19c.64,0,.64-1,0-1s-.64,1,0,1h0Z"/>
  <path class="cls-1" d="m63.93,8.38c.81-.32,1.63-.62,2.48-.84.01,0,.08-.01.08-.02,0,0-.09-.09-.08-.09h0s0,.01-.01.02c-.04.07-.08.15-.12.22-.1.17-.2.33-.32.48-.21.3-.46.57-.72.82-.3.29-.63.54-.99.76-.27.17-.02.6.25.43.76-.47,1.42-1.09,1.93-1.82.12-.18.24-.36.35-.55s.19-.42.06-.62c-.16-.23-.44-.18-.66-.11-.24.07-.49.14-.73.22-.56.18-1.11.38-1.65.6-.13.05-.21.17-.17.31.03.12.18.23.31.17h0Z"/>
  <path class="cls-1" d="m66.24,8.99c.29-.14.6-.24.91-.32.16-.04.32-.08.48-.1.08-.01.13-.02.2-.03.07,0,.09,0,.13.02.11.07.28.02.34-.09.07-.12.02-.27-.09-.34-.17-.11-.37-.1-.57-.07-.18.03-.37.06-.55.11-.38.09-.74.23-1.1.39-.12.06-.15.23-.09.34.07.13.22.15.34.09h0Z"/>
  <path class="cls-1" d="m66.05,9.94c-.06.42-.1.84-.1,1.26,0,.13.12.26.25.25s.25-.11.25-.25c0-.2,0-.39.02-.59,0-.09.02-.19.03-.28,0-.05.01-.09.02-.14,0-.02,0-.03,0-.05,0-.03,0-.03,0-.01,0,.02,0,.01,0-.01,0-.02,0-.03,0-.05,0-.07.01-.13-.03-.19-.03-.05-.09-.1-.15-.11-.12-.03-.29.04-.31.17h0Z"/>
  <path class="cls-1" d="m64.84,12.06c.87-.47,1.76-.9,2.68-1.29.12-.05.15-.24.09-.34-.08-.13-.22-.14-.34-.09-.91.39-1.8.82-2.68,1.29-.28.15-.03.58.25.43h0Z"/>
  <path class="cls-1" d="m65.74,12.48c-.41.18-.97.44-1.06.94-.05.29.13.52.4.6s.54,0,.79-.12c.47-.21.9-.51,1.27-.87.19-.18.41-.39.34-.68-.07-.26-.33-.37-.57-.4-.59-.06-1.13.27-1.6.59-.11.08-.16.22-.09.34.06.11.23.17.34.09.3-.2.61-.42.97-.5.13-.03.31-.05.43,0,.01,0,.03.02.04.02.04,0,0,.01,0,0,0,0-.02-.05,0-.05,0,0-.13.16-.15.17-.27.27-.57.49-.9.68-.16.09-.32.18-.5.22-.06.02-.15.02-.2.02-.03,0-.05-.01-.07-.02-.02-.02,0,0,0,0-.02-.12.19-.28.28-.33.17-.11.36-.2.54-.28.12-.05.15-.23.09-.34-.07-.13-.22-.14-.34-.09h0Z"/>
  <path class="cls-1" d="m68.51,9.16l-.16,1.76c-.04.47-.14,1.12.39,1.38s.98-.29,1.32-.6c.4-.37.77-.76,1.13-1.16.21-.24-.14-.6-.35-.35-.3.34-.61.67-.93.98-.17.16-.34.32-.52.47-.1.09-.28.29-.43.22-.16-.08-.15-.32-.14-.47.01-.24.04-.48.06-.72l.14-1.5c.03-.32-.47-.32-.5,0h0Z"/>
  <path class="cls-1" d="m71.58,8.05c0,1.22-.09,2.44-.26,3.66l.49.07c-.12-.89.54-1.53.98-2.22.38-.6.5-1.39,1.02-1.89l-.43-.18c-.06,2.45-.03,4.89.1,7.34.02.32.52.32.5,0-.13-2.44-.16-4.89-.1-7.34,0-.22-.27-.32-.43-.18-.59.57-.72,1.43-1.17,2.1-.48.73-1.1,1.44-.98,2.37.03.25.45.37.49.07.17-1.26.27-2.52.28-3.79,0-.32-.5-.32-.5,0h0Z"/>
  <path class="cls-1" d="m83.14,10.27c-.37.54-.74,1.12-.79,1.78-.02.31.11.62.44.68s.59-.13.81-.35c.45-.44.81-.98,1.02-1.58.15-.45.4-1.44-.25-1.62-.32-.09-.68.1-.93.29-.27.21-.46.48-.57.8s.38.44.48.13c.06-.18.17-.34.31-.48.12-.12.33-.27.5-.27.28-.01.02.86-.03.99-.14.42-.39.81-.68,1.15-.13.14-.29.36-.48.43-.2.07-.16-.15-.13-.29.09-.53.41-.99.71-1.42.18-.27-.25-.52-.43-.25h0Z"/>
  <path class="cls-1" d="m86.63,8.58c-.64,1.98-.87,4.08-.67,6.15.03.32.53.32.5,0-.2-2.03.02-4.08.65-6.02.1-.31-.38-.44-.48-.13h0Z"/>
  <path class="cls-1" d="m91.18,7.85c.47-.23,1.08-.42,1.61-.35.31.04.09.33-.03.48-.16.19-.36.34-.56.48-.97.63-2.06,1.07-3.12,1.51-.13.05-.21.16-.17.31.03.12.18.22.31.17,1.27-.46,2.54-.92,3.87-1.21l-.32-.24v-.02c-.27.17-.02.6.25.43.16-.1.23-.23.25-.41s-.17-.27-.32-.24c-1.32.28-2.6.74-3.87,1.21l.13.48c.7-.29,1.4-.59,2.07-.92.6-.29,1.25-.6,1.73-1.08.21-.21.43-.48.45-.78.03-.32-.18-.56-.49-.64-.32-.08-.69-.02-1.01.04-.36.07-.7.19-1.03.35-.29.14-.03.58.25.43h0Z"/>
  <path class="cls-1" d="m90.78,12c.32-.11.68-.22,1.02-.25.04,0,.07,0,.11,0,.03.01.03,0,0-.03,0,.05-.06.12-.09.16-.1.13-.21.25-.33.36-.47.45-1.04.77-1.59,1.09l.25.43c.61-.35,1.25-.64,1.91-.86.03,0,.17-.03.19-.06-.04-.19-.09-.23-.13-.12l-.03.05c-.09.13-.21.25-.32.36-.2.2-.41.4-.58.64s-.21.55.09.68c.28.13.64-.03.91-.11.67-.2,1.32-.48,1.94-.81.28-.15.03-.59-.25-.43-.62.34-1.28.61-1.96.8-.03,0-.41.08-.42.1.01.05.03.09.07.12.02-.04.04-.07.07-.1.03-.05.07-.1.11-.14.19-.23.43-.42.62-.64.17-.2.44-.52.22-.78-.2-.23-.54-.08-.77,0-.66.23-1.29.52-1.9.87-.28.16-.03.59.25.43.75-.43,1.53-.88,2.06-1.58.13-.16.24-.37.18-.59-.05-.18-.21-.3-.4-.33-.2-.03-.42.02-.62.06-.24.05-.48.12-.72.2-.3.11-.17.59.13.48h0Z"/>
  <path class="cls-1" d="m96.38,7.08c-.76.33-1.45.77-2.07,1.32-.08.07-.09.21-.04.3.15.26.45.27.71.2.37-.09.75-.21,1.11-.33.72-.23,1.43-.51,2.11-.85.21-.1.12-.39-.06-.46-.34-.13-.7-.08-1.06-.02s-.67.13-.99.22c-.67.19-1.32.47-1.94.8-.28.16-.03.59.25.43.56-.31,1.14-.55,1.75-.73.3-.09.61-.16.92-.22s.62-.12.92,0l-.06-.46c-.56.28-1.13.51-1.72.71-.29.1-.58.19-.87.27-.15.04-.29.08-.44.12-.04.01-.09.03-.13.03-.03,0-.06,0-.09,0-.03-.01-.02,0,.01,0l-.04.3c.59-.52,1.25-.93,1.97-1.24.13-.05.15-.24.09-.34-.07-.13-.22-.14-.34-.09h0Z"/>
  <path class="cls-1" d="m94.46,10.22c1.26-.05,2.41-.65,3.67-.67l-.24-.32c-.07.27-.55.43-.76.55-.33.19-.67.37-1,.55-.66.35-1.32.7-2,1.03-.29.14-.04.56.25.43.87-.39,1.77-.78,2.73-.9.1-.01.2-.02.3-.03.07,0,.05-.01.02,0-.04-.02-.06,0-.08.03-.02.03-.04.05-.06.07-.15.18-.33.34-.51.5-.37.32-.75.64-1.13.96-.17.15-.03.42.18.43,1.04.01,2.05.18,3.07.37.31.06.45-.42.13-.48-1.06-.2-2.12-.38-3.2-.39l.18.43c.48-.41.99-.8,1.44-1.24.18-.18.45-.43.48-.7.02-.24-.15-.41-.37-.46-.25-.06-.55.02-.8.06-.31.05-.61.13-.9.23-.59.19-1.16.44-1.72.69l.25.43c.75-.37,1.5-.75,2.24-1.16.36-.2.72-.4,1.08-.6.29-.16.59-.33.67-.67.04-.15-.07-.32-.24-.32-1.26.02-2.42.62-3.67.67-.32.01-.32.51,0,.5h0Z"/>
  <path class="cls-1" d="m107.29,6.33c.06.57.19,1.13.39,1.66.05.12.17.22.31.17.12-.04.22-.18.17-.31-.18-.49-.31-1.03-.37-1.53-.01-.13-.1-.26-.25-.25-.12,0-.27.11-.25.25h0Z"/>
  <path class="cls-1" d="m110.04,5.18c0,.92.63,2.32-.21,3.04-.37.32-.94.38-1.41.36-.13,0-.34.03-.3-.18.01-.07.21-.19.27-.23.23-.17.49-.31.76-.4.17-.06.49-.17.66-.07.19.1.11.31.02.49-.07.13-.18.27-.27.39-.17.21-.35.4-.56.58-.15.13-.33.24-.44.42-.08.13-.12.28-.08.43s.27.23.31.35c.1.35-1.48.77-1.71.83l.13.48c1.27-.41,2.55-.82,3.89-.91l-.07-.49c-1,.34-2.46,1.07-2.01,2.39.17.48.63.76,1.12.81.64.06,1.22-.27,1.75-.59.27-.17.02-.6-.25-.43-.53.33-1.95,1.04-2.17-.04-.19-.97.99-1.41,1.69-1.65.25-.09.23-.51-.07-.49-1.39.09-2.71.5-4.03.92-.3.1-.18.57.13.48.58-.16,1.33-.37,1.8-.77.15-.13.28-.3.29-.51,0-.09-.02-.19-.07-.27-.04-.06-.2-.15-.21-.21-.05-.2.49-.54.62-.67.23-.24.44-.51.61-.79.24-.39.35-.89-.13-1.15-.42-.23-.95-.08-1.36.09s-1.1.53-1.21,1c-.26,1.07,1.85.66,2.31.42,1.39-.75.68-2.41.67-3.62,0-.32-.5-.32-.5,0h0Z"/>
  <path class="cls-1" d="m123.41,7.35c-.53.69-1.08,1.35-1.66,1.99-.51.57-1.06,1.3-1.78,1.6l.28.37c.29-.59.96-.81,1.58-.85.88-.05,1.74.18,2.62.06.32-.04.18-.53-.13-.48-.93.13-1.86-.18-2.79-.04-.69.1-1.38.42-1.71,1.07-.09.17.06.46.28.37.8-.34,1.38-1.04,1.95-1.67.63-.69,1.22-1.41,1.79-2.16.2-.26-.24-.5-.43-.25h0Z"/>
  <path class="cls-1" d="m125.18,4.86c-.69,2.71-.96,5.51-.8,8.3.02.32.52.32.5,0-.15-2.75.11-5.5.78-8.17.08-.31-.4-.45-.48-.13h0Z"/>
  <path class="cls-1" d="m125.54,9.55c.49-.21,1.01-.4,1.53-.57.12-.04.22-.18.17-.31-.04-.12-.17-.22-.31-.17-.56.18-1.11.39-1.65.62-.12.05-.16.24-.09.34.08.13.21.14.34.09h0Z"/>
  <path class="cls-1" d="m128.16,6.25c.34-.07.68-.06,1.02-.04,0,0,.02,0,.03,0,.02,0,.02,0,0,0,0,0-.02-.04-.02-.04,0,0-.06.09-.07.1-.09.1-.22.18-.33.26-.51.36-1.08.63-1.69.8-.14.04-.2.17-.17.31.04.21.28.29.47.24s.39-.16.57-.23c.43-.18.85-.35,1.28-.53l-.31-.31s-.07.15-.1.19c-.06.08-.13.14-.2.21-.14.12-.31.22-.47.33-.35.24-.69.51-.79.94-.04.17.08.3.24.32.76.1,1.55-.1,2.18-.54.11-.08.16-.22.09-.34-.06-.11-.23-.17-.34-.09-.56.4-1.24.56-1.93.47l.24.32c.04-.17.13-.28.26-.41s.29-.23.45-.34c.36-.24.7-.5.85-.92.06-.17-.13-.38-.31-.31-.33.14-.66.28-.99.41-.16.07-.32.13-.47.2-.09.04-.17.07-.26.11-.03.01-.07.02-.1.04h-.03c.06-.01.11.02.14.12l-.17.31c.78-.22,1.55-.59,2.17-1.12.14-.12.26-.29.28-.48.02-.21-.11-.39-.31-.46s-.44-.06-.64-.06c-.24,0-.48.03-.71.08-.13.03-.21.18-.17.31.04.14.17.2.31.17h0Z"/>
  <path class="cls-1" d="m130.04,6.45l-.02,1.98.43-.18c-.07-.08-.15-.16-.22-.25-.03-.03-.05-.06-.07-.09s-.06-.1-.09-.13c0-.01-.01-.02,0-.01l-.02.11s0,0,.02-.01c.05-.02.09-.06.14-.08.09-.06.19-.11.28-.16.36-.2.74-.36,1.14-.49.13-.04.21-.17.17-.31-.03-.13-.18-.22-.31-.17-.5.17-.99.38-1.45.65-.24.14-.56.3-.45.64.05.14.16.26.25.37.08.11.17.21.26.31.15.16.42.03.43-.18l.02-1.98c0-.32-.5-.32-.5,0h0Z"/>
  <path class="cls-1" d="m128.69,10.28c-.06.48-.21,1.73.62,1.57.15-.03.28-.11.41-.19.15-.09.29-.17.44-.26.29-.17.58-.34.87-.52s.03-.6-.25-.43c-.47.28-.94.57-1.42.84-.04.02-.08.04-.12.06,0,0-.07.01-.04.01-.09,0-.02,0-.02,0,.02.02,0,0,0-.03-.02-.06-.01-.05-.02-.13-.02-.26-.02-.53.01-.79.02-.13-.03-.27-.17-.31-.12-.03-.29.04-.31.17h0Z"/>
  <path class="cls-1" d="m129.95,10.45c.12-.06.24-.13.36-.18.06-.03.09-.04.14-.06.06-.02.12-.05.18-.07.25-.09.5-.16.75-.21l-.31-.31s-.02.06-.03.09c.02-.05,0,.01-.01.02-.02.05-.05.1-.07.14s-.06.09-.09.14c-.02.03-.04.05-.05.07.03-.04-.02.02-.03.03-.07.08-.15.16-.23.23,0,0-.07.06-.03.03-.02.02-.04.03-.06.05-.05.03-.1.06-.15.09-.11.07-.16.23-.09.34s.22.16.34.09c.46-.26.8-.69.98-1.18.07-.19-.14-.34-.31-.31-.54.11-1.07.3-1.55.57-.11.06-.16.23-.09.34s.22.16.34.09h0Z"/>
  <path class="cls-1" d="m133.85,6.69c-.39.27-.7.59-.96.98-.09.14,0,.32.15.37.61.21,1.26-.17,1.79-.45s1.09-.64,1.58-1.03c.19-.15.47-.31.55-.56.07-.22-.04-.43-.24-.54-.45-.25-1.12.03-1.54.23-1.17.54-2.25,1.44-3.15,2.35-.27.27-.97.83-.54,1.26.35.35,1.06.09,1.46-.02,1.47-.39,2.87-1.12,4.42-1.12l-.13-.47c-.85.56-1.7,1.12-2.55,1.68-.41.27-.84.52-1.24.82-.22.17-.46.45-.35.75.27.77,1.79.14,2.28,0,.96-.29,1.9-.63,2.82-1.01.29-.12.16-.61-.13-.48-.71.3-1.43.57-2.17.81-.24.08-2.27.72-2.29.49-.01-.17.72-.54.85-.62.34-.22.67-.44,1.01-.67.67-.44,1.35-.89,2.02-1.33.2-.13.13-.47-.13-.47-.97,0-1.9.27-2.81.58-.47.16-.93.33-1.41.47-.22.06-.44.12-.66.17-.11.02-.22.05-.33.07-.05,0-.11.02-.16.02-.03,0-.06,0-.09,0-.07,0-.06-.02.01-.06.08-.17.34-.36.47-.5.17-.18.35-.35.54-.51.38-.34.78-.66,1.2-.96s.82-.57,1.27-.78c.24-.11.49-.2.74-.25.08-.01.24-.05.33,0,.01,0,.04-.11-.02,0-.02.05-.12.1-.16.14-.44.36-.91.68-1.4.96-.46.26-1.16.75-1.7.56l.15.37c.21-.32.47-.59.78-.8.26-.18.01-.62-.25-.43h0Z"/>
  <path class="cls-1" d="m146.87,6.96c.65-.13,1.31-.23,1.97-.28.31-.02.63-.06.94-.04.08,0,.19.01.25.07.1.08.06.24.04.35-.13.53-.62.95-1.03,1.28-.48.37-1.01.67-1.53.97-.28.16-.03.59.25.43.92-.52,1.96-1.09,2.55-2,.25-.39.48-1.05.04-1.4-.18-.15-.42-.19-.64-.19-.29,0-.58.02-.87.04-.7.06-1.41.16-2.1.3-.32.06-.18.55.13.48h0Z"/>
  <path class="cls-1" d="m146.42,11.03c1.88-.89,3.92-1.45,5.99-1.65.32-.03.32-.53,0-.5-2.17.2-4.28.78-6.24,1.72-.29.14-.04.57.25.43h0Z"/>
  <path class="cls-1" d="m157.03,6.35c-.33.29-.62.61-.89.96-.12.16-.24.33-.36.5-.12.18-.25.38-.3.59-.1.41.18.74.58.78.36.04.72-.1,1.05-.23.38-.16.73-.35,1.06-.6s.66-.51.85-.86c.21-.38.17-.79-.12-1.12-.24-.27-.59-.41-.94-.45s-.76.06-1.07.26c-.35.23-.65.61-.58,1.04.02.13.19.21.31.17.14-.04.2-.17.17-.31-.04-.21.27-.44.42-.52.2-.11.42-.16.65-.15s.44.08.61.22c.23.2.23.44.07.68s-.42.45-.66.63-.51.34-.79.47c-.24.11-.52.23-.79.27-.08.01-.21.03-.29-.02-.1-.06-.04-.19,0-.27.32-.64.84-1.21,1.37-1.68.24-.22-.11-.57-.35-.35h0Z"/>
  <path class="cls-1" d="m161.11,5.3c-.59,1.82-.93,3.71-1.03,5.62-.02.32.48.32.5,0,.1-1.87.44-3.71,1.02-5.49.1-.31-.38-.44-.48-.13h0Z"/>
  <path class="cls-1" d="m161.29,8.26c.87-.51,1.79-.92,2.76-1.23.31-.1.17-.58-.13-.48-1,.32-1.97.75-2.88,1.28-.28.16-.03.59.25.43h0Z"/>
  <path class="cls-1" d="m165.29,3.64c-.47,1.12-.4,2.41.13,3.49.14.29.57.04.43-.25-.48-.97-.49-2.11-.08-3.1.05-.13-.06-.27-.17-.31-.14-.04-.26.05-.31.17h0Z"/>
  <path class="cls-1" d="m165.79,4.15c.41,0,.87.03,1.22.28.26.18.46.56.33.88-.08.2-.28.34-.44.47-.19.16-.38.31-.57.45-.39.29-.8.55-1.23.79-.28.16-.03.59.25.43.51-.29,1.01-.61,1.47-.97.4-.31.95-.66,1.04-1.2.08-.49-.17-.97-.56-1.26-.43-.31-.99-.37-1.51-.37-.32,0-.32.5,0,.5h0Z"/>
  <path class="cls-1" d="m164.03,8.18c1.7.12,3.39-.15,5.06-.43.29-.05.2-.48-.07-.49-1.28-.06-2.56.53-3.35,1.54-.4.51-.77,1.2-.62,1.87.13.57.71,1.01,1.29.84.31-.09.18-.58-.13-.48-.22.07-.43-.04-.57-.22-.16-.21-.15-.5-.08-.75.13-.49.45-.94.81-1.29.7-.69,1.67-1.05,2.65-1.01l-.07-.49c-1.63.27-3.27.53-4.93.41-.32-.02-.32.48,0,.5h0Z"/>
  <path class="cls-1" d="m170.01,4.82c.84-.25,1.68-.45,2.54-.6l-.19-.46c-.36.19-.73.27-1.13.32-.33.04-.52.2-.72.45-.28.33-.55.65-.83.98-.25.3-.56.59-.76.91-.15.24-.04.52.24.58.31.07.72-.09,1.02-.16.82-.18,1.65-.35,2.47-.53l-.13-.48c-.43.14-.87.26-1.29.42-.35.13-.5.4-.47.76.02.41-.01.72-.29,1.05s-.64.53-.99.74c-.25.15-.08.52.19.46,1.47-.35,2.95-.7,4.42-1.06.31-.07.18-.56-.13-.48-1.47.35-2.95.7-4.42,1.06l.19.46c.62-.37,1.3-.81,1.49-1.56.04-.16.06-.32.04-.49-.01-.18-.08-.36.09-.46s.45-.14.63-.2c.22-.07.44-.14.66-.21.31-.1.18-.55-.13-.48-.65.14-1.29.27-1.94.41-.32.07-.65.14-.97.21-.05,0-.26.03-.29.06h-.04s.08.07.12.1c.03,0,.17-.2.19-.23.05-.06.11-.13.16-.19.42-.49.82-1.01,1.26-1.48.19-.2.5-.16.76-.22.3-.06.59-.18.86-.32s.07-.5-.19-.46c-.86.15-1.71.35-2.54.6-.31.09-.18.58.13.48h0Z"/>
  <path class="cls-1" d="m179.91,3.81c-.38-.58-.93-.93-1.55-.44-.58.46-.99,1.17-1.19,1.87-.08.3-.19.71-.06,1.01s.44.37.73.32c.69-.11,1.4-.63,1.92-1.07.44-.38,1.17-1.01,1.17-1.66,0-.8-1.11-.58-1.59-.41-.22.08-.54.19-.5.48.04.35.5.44.78.48.76.12,1.56-.13,2.26-.41.74-.3,1.46-.73,2-1.33.4-.44,1.07-1.32.61-1.9-.12-.16-.37-.05-.42.11-.52,1.71-1.04,3.42-1.56,5.13-.09.31.39.44.48.13.52-1.71,1.04-3.42,1.56-5.13l-.42.11c.11.14-.16.54-.23.67-.13.22-.28.42-.45.6-.32.34-.7.61-1.1.83s-.85.4-1.3.53c-.29.08-.58.15-.88.17-.26.02-.72.04-.91-.18l.07.18v-.08c-.02.06-.05.12-.07.18.12-.13,1.05-.4,1.16-.17.1.21-.38.67-.49.79-.46.52-1.03.94-1.65,1.24-.14.07-.28.14-.43.18-.3.08-.29-.2-.25-.41.06-.34.18-.68.35-.98s.36-.56.6-.79c.16-.15.36-.32.59-.22.15.07.27.27.35.4.18.27.61.02.43-.25h0Z"/>
  <path class="cls-1" d="m180.32,6.68c-.03.46-.06.93-.06,1.39,0,.37-.05.87.26,1.14.1.09.25.1.35,0,.09-.09.1-.26,0-.35s-.11-.21-.11-.34c0-.2,0-.39,0-.59,0-.42.04-.84.06-1.25,0-.13-.12-.25-.25-.25-.14,0-.24.11-.25.25h0Z"/>
  <path class="cls-1" d="m181.91,6.81c-.02.48-.04.97-.12,1.44-.06.34-.13.86-.55.92-.09.01-.3,0-.3-.13,0-.15.2-.29.31-.36.33-.22.74-.32,1.13-.37.13-.02.25-.1.25-.25,0-.12-.12-.27-.25-.25-.44.06-.87.15-1.26.36-.36.2-.78.58-.67,1.03s.71.56,1.1.39c.44-.19.6-.63.69-1.06.12-.57.14-1.15.17-1.73.01-.32-.49-.32-.5,0h0Z"/>
  <path class="cls-1" d="m182.86,7.22c-.32.57-.66,1.12-1.03,1.65-.16.23.22.53.39.3.28-.35.68-.72,1.16-.62.24.05.47.16.7.24.26.09.52.13.79.09.13-.02.21-.19.17-.31-.04-.14-.17-.2-.31-.17-.24.04-.49-.07-.71-.16-.26-.1-.51-.19-.79-.2-.56-.02-1.04.36-1.37.78l.39.3c.37-.54.71-1.09,1.03-1.65.16-.28-.27-.53-.43-.25h0Z"/>
  <path class="cls-1" d="m184.58,5.26c.28.05.55.02.83.04.19.01.54.08.55.33,0,.22-.29.47-.45.58-.21.15-.44.23-.68.28l.19.46c1.33-.65,2.68-1.31,3.86-2.2.23-.18.54-.36.65-.64.1-.25.01-.58-.26-.68-.78-.29-.83,1.06-.9,1.49-.16.92-.32,1.84-.49,2.76-.06.31.43.45.48.13.14-.82.29-1.63.43-2.45.07-.39.13-.79.21-1.18.02-.09.05-.17.08-.25.02-.09-.03.03-.06.06-.1.13-.26.23-.39.32-1.19.9-2.53,1.55-3.86,2.2-.27.13-.07.51.19.46.34-.06.67-.21.94-.43s.57-.55.57-.92c0-.33-.25-.58-.53-.71-.39-.17-.81-.06-1.21-.13-.31-.06-.45.43-.13.48h0Z"/>
  <path class="cls-1" d="m189.5,4.38c-.09,1.09-.32,2.16-.68,3.19-.11.3.38.44.48.13.37-1.08.6-2.19.7-3.33.03-.32-.47-.32-.5,0h0Z"/>
  <path class="cls-1" d="m187.75,8.11c-.22.32-.5.6-.8.84-.15.12-.31.22-.48.32-.13.07-.35.23-.5.21l.11.42c.4-.34.92-.57,1.44-.62.14-.01.27-.02.41,0,.11,0,.24.01.32.09s.05.21.09.31c.05.14.2.26.36.24.13-.02.25-.1.25-.25,0-.12-.12-.27-.25-.25.08.1.11.11.1.05,0-.02,0-.03,0-.04,0-.04,0-.08-.02-.13-.02-.07-.05-.13-.1-.19-.1-.13-.23-.22-.39-.27-.29-.09-.63-.07-.92-.03-.61.08-1.18.34-1.65.75-.13.12-.07.39.11.42.28.04.52-.06.77-.19.2-.11.39-.23.57-.37.39-.29.72-.64,1-1.04.08-.11.02-.28-.09-.34-.13-.07-.26-.02-.34.09h0Z"/>
  <path class="cls-1" d="m189.55,8.19c-.4.43-.82.85-1.26,1.25-.21.19.07.56.3.39.41-.3.95-.33,1.44-.33.56,0,1.1.06,1.64.2.31.08.44-.4.13-.48-.6-.16-1.22-.23-1.84-.22-.55.01-1.17.06-1.63.4l.3.39c.44-.4.86-.81,1.26-1.25.22-.24-.13-.59-.35-.35h0Z"/>
  <path class="cls-1" d="m192.18,4.66c.54,0,1.09-.04,1.63.01.2.02.34.07.25.29s-.28.39-.45.54c-.75.67-1.65,1.19-2.56,1.6l.25.43c.62-.31,1.23-.81,1.96-.8.35,0,.63.19.93.36.31.18.64.33.99.43.31.09.44-.39.13-.48-.38-.11-.71-.28-1.05-.48s-.68-.33-1.07-.32c-.8.02-1.45.52-2.14.87-.29.15-.04.56.25.43.57-.25,1.11-.55,1.63-.9s1.04-.7,1.4-1.18c.16-.22.31-.48.25-.77-.05-.25-.24-.41-.48-.48-.27-.08-.57-.06-.84-.06-.36,0-.72,0-1.09,0-.32,0-.32.5,0,.5h0Z"/>
  <path class="cls-1" d="m196.03,3.61c-.26,1.6-.53,3.21-.79,4.81-.05.31.43.45.48.13.26-1.6.53-3.21.79-4.81.05-.31-.43-.45-.48-.13h0Z"/>
  <path class="cls-1" d="m198.02,4.76c-.02.81-.14,1.61-.37,2.39h.48c-.09-.45-.12-.92-.09-1.38,0-.18,0-.42.08-.58.06-.13.21-.12.33-.11.3.02.71.12.7.49s-.34.68-.6.9c-.33.29-.72.5-1.11.7-.25.13-.08.55.19.46.55-.19,1.12-.31,1.7-.37.13-.01.25-.11.25-.25,0-.13-.11-.26-.25-.25-.62.06-1.24.19-1.83.39l.19.46c.44-.22.88-.47,1.25-.81s.75-.8.71-1.31c-.04-.57-.52-.81-1.03-.89-.23-.03-.48-.04-.69.09-.22.14-.31.38-.34.63-.09.65-.05,1.32.07,1.96.05.25.42.22.48,0,.24-.82.37-1.67.39-2.53,0-.32-.49-.32-.5,0h0Z"/>
  <path class="cls-1" d="m200.64,4.99c.09.97.05,1.94-.11,2.9-.02.13.04.27.17.31.12.03.28-.04.31-.17.18-1,.23-2.02.13-3.03-.01-.13-.11-.25-.25-.25-.13,0-.26.11-.25.25h0Z"/>
  <path class="cls-1" d="m201.18,6.79c.28-.05.56-.08.84-.11.14-.01.27-.03.41-.03.03,0,.06,0,.09,0,.01,0,.08.01.03,0,.02,0,.05,0,.07.02-.02,0-.02,0,0,0-.02-.02-.02-.01,0,0,.1.1.26.1.35,0s.1-.26,0-.35c-.24-.24-.59-.19-.9-.16-.35.03-.69.07-1.04.13-.13.02-.21.19-.17.31.04.14.17.2.31.17h0Z"/>
  <path class="cls-1" d="m198.26,7.73c-.19.38-.34.78-.42,1.19-.04.19-.06.38.03.56.09.19.28.28.48.31.82.12,1.68-.06,2.42-.4.12-.06.15-.23.09-.34-.07-.13-.22-.15-.34-.09-.59.27-1.25.39-1.9.36-.07,0-.26.01-.3-.05-.05-.07.02-.26.03-.34.08-.32.19-.64.34-.93s-.29-.54-.43-.25h0Z"/>
  <path class="cls-1" d="m202.67,9.39c.05.16.03.32-.03.48s-.17.31-.29.43c-.28.3-.62.53-.88.84-.09.1-.1.25,0,.35.09.09.27.1.35,0,.29-.35.68-.59.97-.94s.51-.83.37-1.31c-.09-.31-.58-.18-.48.13h0Z"/>
  <path class="cls-1" d="m24.11,24.65c.37-.16.83-.36,1.24-.18.36.16.44.62.47.96.05.68-.12,1.47-.76,1.82-.28.16-.03.59.25.43.85-.48,1.1-1.54.98-2.45-.07-.51-.26-1.03-.77-1.24-.56-.23-1.14-.01-1.66.21-.13.05-.15.24-.09.34.07.13.22.14.34.09h0Z"/>
  <path class="cls-1" d="m22.7,28.28c2.31.59,4.64-.32,6.96.05.31.05.45-.43.13-.48-2.32-.37-4.67.54-6.96-.05-.31-.08-.44.4-.13.48h0Z"/>
  <path class="cls-1" d="m28.89,24.76c.16-.09.32-.17.48-.25.08-.04.16-.07.24-.11.04-.02.13-.07.18-.06.09.02.13.16.14.24.01.12-.03.24-.09.35-.14.25-.37.41-.62.54-.29.16-.58.3-.83.51l.35.35c.32-.36.71-.63,1.15-.82l-.34-.34c-.22.42-.45.83-.67,1.25-.15.28-.3.69-.03.96.33.32.85,0,1.18-.17.38-.19.74-.43,1.08-.69.11-.08.16-.22.09-.34-.06-.11-.23-.17-.34-.09-.27.2-.55.39-.84.55-.15.08-.3.16-.45.23-.05.02-.33.18-.37.15-.03-.02.02-.17.03-.19.05-.14.14-.27.21-.4.18-.33.36-.67.54-1,.13-.24-.12-.44-.34-.34-.48.2-.91.51-1.25.89-.22.24.11.56.35.35.32-.26.73-.4,1.06-.64.3-.22.54-.53.6-.9s-.09-.83-.49-.94c-.23-.06-.44.05-.64.14-.22.1-.43.2-.64.32-.28.16-.03.59.25.43h0Z"/>
  <path class="cls-1" d="m32.28,24.86c.5-.09,1.01-.14,1.53-.14.13,0,.26-.11.25-.25s-.11-.25-.25-.25c-.56,0-1.11.06-1.66.16-.13.02-.21.19-.17.31.04.14.17.2.31.17h0Z"/>
  <path class="cls-1" d="m33.65,23.45c-.25,1.62-.51,3.26-1.08,4.81-.11.3.37.43.48.13.57-1.55.83-3.18,1.08-4.81.05-.31-.43-.45-.48-.13h0Z"/>
  <path class="cls-1" d="m30.94,29.01c.03.38.09.75.17,1.12.05.24.43.24.48,0,.06-.28-.07-.46-.22-.68s-.08-.42.11-.59.48-.3.72-.4c.23-.1.49-.18.74-.12.53.14.34.7.05.98-.19.18-.45.3-.68.41-.26.13-.5.26-.72.44s.06.54.3.39c.85-.52,1.75-.96,2.68-1.32.3-.11.17-.6-.13-.48-.97.37-1.91.83-2.8,1.37l.3.39c.41-.33.95-.45,1.35-.8.34-.29.6-.8.45-1.25-.16-.52-.73-.72-1.23-.63-.27.05-.53.17-.78.29s-.48.24-.67.44c-.2.21-.32.49-.28.78.02.14.08.26.16.38.04.06.17.19.15.28h.48c-.07-.33-.13-.65-.15-.98s-.52-.32-.5,0h0Z"/>
  <path class="cls-1" d="m35.28,26.77c-.08.24-.27.43-.38.66s-.14.49-.01.71c.11.19.3.33.52.32.24,0,.43-.19.6-.33.33-.28.66-.68.6-1.15-.05-.41-.37-.81-.82-.77l.07.49c.79-.29,1.61-.48,2.45-.57.32-.04.66-.1.85-.38s.13-.66.04-.98c-.08-.28-.47-.21-.49.07-.09,1.26-.17,2.53-.26,3.79-.02.32.48.32.5,0,.09-1.26.17-2.53.26-3.79l-.49.07c.06.21.16.53-.09.65-.11.05-.24.06-.36.08-.18.02-.36.04-.54.07-.69.11-1.36.28-2.02.52-.25.09-.23.52.07.49.2-.02.32.18.33.37,0,.27-.24.49-.42.66-.06.05-.22.23-.3.23-.11-.01-.09-.18-.07-.25.09-.29.34-.51.43-.81s-.39-.44-.48-.13h0Z"/>
  <path class="cls-1" d="m40.52,23.9c-.43,1.86-.57,3.78-.4,5.68.03.32.53.32.5,0-.17-1.86-.04-3.73.38-5.55.07-.31-.41-.45-.48-.13h0Z"/>
  <path class="cls-1" d="m42.3,24.99c.57-.23,1.16-.38,1.77-.43l-.24-.18c.05.27-.59.48-.76.56-.39.18-.78.37-1.17.55-.15.07-.15.28-.05.39.27.29.65.31,1.01.31s.82.01.81.51c-.01.44-.33.85-.62,1.15-.34.34-.73.62-1.13.89-.21.14-.13.45.13.47,1.09.06,2.17-.02,3.24-.23.32-.06.18-.54-.13-.48-1.03.2-2.07.26-3.11.21l.13.47c.83-.56,1.91-1.3,2-2.4.04-.48-.23-.92-.71-1.03-.22-.05-.44-.04-.66-.04s-.44,0-.6-.16l-.05.39c.52-.24,1.05-.47,1.56-.74.37-.19.68-.5.6-.94-.02-.1-.14-.19-.24-.18-.66.05-1.29.19-1.9.44-.29.12-.16.61.13.48h0Z"/>
  <path class="cls-1" d="m53.25,25.83l-.66,2.11c-.08.25-.28.64-.04.86.23.21.58.05.82-.02.68-.19,1.37-.38,2.05-.57.3-.08.6-.17.84-.38s.33-.49.29-.8c-.02-.13-.19-.21-.31-.17-.14.04-.19.17-.17.31.07.45-.84.57-1.12.65-.54.15-1.07.3-1.61.45-.13.03-.25.07-.38.1,0,0-.13.03-.13.03.06.14.1.17.11.07l.02-.07c.08-.27.17-.54.26-.82l.51-1.63c.1-.31-.39-.44-.48-.13h0Z"/>
  <path class="cls-1" d="m55.97,25.25c.18,1.31.19,2.64.06,3.96-.03.32.47.32.5,0,.14-1.36.11-2.73-.08-4.09-.02-.13-.19-.21-.31-.17-.14.04-.19.17-.17.31h0Z"/>
  <path class="cls-1" d="m57.04,28.09l1.47-.63c.12-.05.16-.24.09-.34-.08-.13-.21-.14-.34-.09l-1.47.63c-.12.05-.16.24-.09.34.08.13.21.14.34.09h0Z"/>
  <path class="cls-1" d="m59.12,24.8c-.19.3-.35.61-.48.93-.07.17-.15.35-.08.54.06.17.22.27.4.31.34.07.71.04,1.05,0,.36-.05.71-.14,1.05-.27.13-.05.21-.17.17-.31-.03-.12-.18-.22-.31-.17-.54.21-1.11.31-1.69.29-.06,0-.11,0-.15-.01-.01,0-.06-.02-.05-.01,0,0-.02-.03-.01,0,.03.09.04-.03.06-.08.02-.06.05-.12.07-.18.12-.27.26-.52.41-.76.17-.27-.26-.52-.43-.25h0Z"/>
  <path class="cls-1" d="m59.41,27.99c.84-.24,1.68-.48,2.53-.73l-.28-.37c-.22.49-.65.81-1.05,1.16-.35.31-.96.86-.53,1.35.35.4,1.01.28,1.45.18.59-.13,1.15-.39,1.63-.75.26-.19,0-.62-.25-.43-.4.3-.85.52-1.33.65-.23.06-.47.11-.71.12-.11,0-.35,0-.42-.11-.09-.15.22-.39.31-.48.16-.15.33-.3.5-.44.33-.29.65-.6.83-1.01.08-.19-.06-.43-.28-.37-.84.24-1.68.48-2.53.73-.31.09-.18.57.13.48h0Z"/>
  <path class="cls-1" d="m70.95,24.93c-.06.64-.03,1.28.08,1.92.02.13.19.21.31.17.14-.04.2-.17.17-.31-.11-.59-.12-1.19-.07-1.78.01-.13-.12-.25-.25-.25-.15,0-.24.12-.25.25h0Z"/>
  <path class="cls-1" d="m73.26,23.4c.12.83.24,1.67.25,2.51,0,.4-.01.8-.08,1.19-.06.33-.16.64-.53.7-.35.06-.74-.03-1.06-.18-.06-.03-.39-.17-.38-.24,0,.03.19-.12.21-.13.07-.05.13-.09.2-.13.61-.39,1.31-.64,2.03-.73.31-.04.32-.54,0-.5-.73.09-1.43.31-2.08.68-.27.15-.66.35-.8.64-.16.33.1.57.36.73.54.33,1.42.57,2.01.22s.61-1.34.62-1.97c.02-.98-.12-1.95-.26-2.92-.05-.32-.53-.18-.48.13h0Z"/>
  <path class="cls-1" d="m75.36,22.05c-.18,2.19-.24,4.38-.17,6.57l.47-.13c-.13-.23-.24-.47-.3-.73-.03-.14-.11-.3.04-.39.09-.05.27-.05.37-.06.53-.09,1.06-.18,1.59-.27.32-.05.18-.54-.13-.48-.41.07-.81.14-1.22.21-.3.05-.78.04-1.02.25-.45.39.03,1.34.25,1.73.12.21.47.12.47-.13-.07-2.19,0-4.39.17-6.57.03-.32-.47-.32-.5,0h0Z"/>
  <path class="cls-1" d="m77.78,24.34c.31.09.62.04.94.09.11.02.22.05.29.14.08.11.07.29.05.42-.1.65-.51,1.24-1.07,1.57l.34.34c.2-.27.81-.84,1.14-.45.13.16.16.37.2.56.08.35.55.27.64-.03s-.39-.44-.48-.13v.03s.03-.07.06-.11l.06-.02.13.03h-.03s.08.09.11.14c-.07-.47-.29-1-.82-1.08-.58-.09-1.11.38-1.43.81-.15.21.14.46.34.34.72-.43,1.23-1.19,1.32-2.03.04-.43-.14-.83-.56-.97-.35-.12-.73-.02-1.09-.13-.31-.09-.44.39-.13.48h0Z"/>
  <path class="cls-1" d="m80.28,24.1c.41,1.96.76,3.94,1.02,5.93.04.31.54.32.5,0-.27-2.03-.62-4.06-1.04-6.07-.07-.31-.55-.18-.48.13h0Z"/>
  <path class="cls-1" d="m83.1,24.34c.15.15.35.23.53.33.09.05.3.18.18.29-.07.06-.18.11-.26.16-.1.07-.21.13-.31.2-.21.14-.41.29-.61.44-.18.14-.38.27-.5.47s-.1.45.08.61c.17.15.45.19.66.23.24.05.49.08.74.09.56.02,1.12-.06,1.65-.24.3-.1.17-.59-.13-.48-.43.15-.88.22-1.34.22-.22,0-.44-.02-.66-.05-.11-.02-.22-.04-.33-.07-.05-.01-.1-.03-.15-.04,0,0-.1-.04-.12-.04.02,0,0,.05.02.04,0,0,0-.01,0-.02.02-.01.06-.08.08-.1.08-.07.17-.14.25-.21.18-.14.37-.28.57-.41s.38-.24.56-.36.32-.28.32-.51-.15-.44-.33-.57-.41-.18-.57-.34c-.23-.23-.58.13-.35.35h0Z"/>
  <path class="cls-1" d="m85.51,25.37c.56-.03,1.11-.09,1.67-.18.13-.02.21-.19.17-.31-.05-.14-.17-.2-.31-.17-.5.08-1.02.13-1.53.16-.13,0-.26.11-.25.25,0,.13.11.26.25.25h0Z"/>
  <path class="cls-1" d="m86.66,23.72c.11,1.39.29,2.78.53,4.15.06.32.54.18.48-.13-.24-1.33-.41-2.67-.51-4.02-.02-.32-.53-.32-.5,0h0Z"/>
  <path class="cls-1" d="m85.8,27.93c-.05.32-.09.67.04.98.14.34.46.52.81.55.73.08,1.45-.32,2.05-.68.28-.16.03-.6-.25-.43-.49.29-1.02.6-1.6.62-.21,0-.45-.03-.54-.23s-.05-.46-.02-.67c.02-.13-.03-.27-.17-.31-.12-.03-.29.04-.31.17h0Z"/>
  <path class="cls-1" d="m89.79,24.48v1.21c0,.13.11.26.25.25s.25-.11.25-.25v-1.21c0-.13-.11-.26-.25-.25s-.25.11-.25.25h0Z"/>
  <path class="cls-1" d="m88.89,26.51l1.73-.07c.14,0,.28-.02.42-.02.02,0,.05.01.06,0l-.02-.2-.03.02s-.07.05-.1.06c-.21.13-.41.29-.6.45s-.36.34-.52.52-.37.4-.42.64c-.05.27.18.47.44.46.24,0,.5-.12.72-.22.54-.22,1.03-.53,1.47-.9.14-.12.07-.3-.05-.39-.42-.32-.99-.41-1.49-.25-.31.1-.18.58.13.48.39-.12.78-.05,1.11.2l-.05-.39c-.37.31-.78.57-1.22.76-.1.05-.21.09-.31.12-.06.02-.11.04-.17.06-.03.01-.11.02-.14.04-.03.02-.08-.07.02.06.08.1.02.05.07.01.04-.03.07-.1.1-.14.07-.09.15-.18.23-.27.32-.36.68-.62,1.08-.89.2-.13.3-.4.11-.59-.17-.17-.43-.14-.65-.14-.64.03-1.27.05-1.91.08-.32.01-.32.51,0,.5h0Z"/>
  <path class="cls-1" d="m92.86,24.23c-.02,1.79-.12,3.58-.28,5.36-.03.32.47.32.5,0,.16-1.78.26-3.57.28-5.36,0-.32-.5-.32-.5,0h0Z"/>
  <path class="cls-1" d="m100.78,25.27c-.6.55-1.08,1.22-1.4,1.97-.07.16-.16.34-.17.53,0,.23.13.43.35.49.4.11.82-.09,1.15-.29.67-.42,1.24-1.01,1.62-1.7.19-.34.34-.76.23-1.15s-.46-.62-.85-.66c-.83-.08-1.7.93-1.26,1.71.16.28.59.03.43-.25-.24-.44.37-1.01.8-.96.7.07.33.9.11,1.25-.3.48-.71.91-1.18,1.23-.23.16-.5.34-.78.36-.03,0-.06,0-.09,0-.07,0-.05-.03-.03,0-.01-.03.03-.13.04-.16.05-.14.12-.28.19-.42.3-.6.7-1.14,1.2-1.59.24-.22-.12-.57-.35-.35h0Z"/>
  <path class="cls-1" d="m104.05,23.52c-.54,2.24-.7,4.55-.46,6.83.03.32.53.32.5,0-.23-2.25-.09-4.51.44-6.7.08-.31-.41-.45-.48-.13h0Z"/>
  <path class="cls-1" d="m113.11,23.54c-.24.3-.44.62-.6.97-.13.3-.3.68-.26,1.01.04.4.42.55.77.45.31-.08.61-.28.86-.47.53-.39.96-.9,1.24-1.5.15-.32.31-.71.12-1.05-.17-.3-.55-.39-.87-.38-.38,0-.75.14-1.06.37-.15.12-.3.25-.34.45-.04.21.08.44.3.48.13.02.27-.04.31-.17.03-.12-.04-.28-.17-.31l.06.07v.03s.02-.02.02-.02c.04-.02.09-.09.13-.12.09-.07.19-.13.29-.17.2-.08.43-.13.65-.1.18.03.32.1.28.3-.04.23-.17.46-.28.66-.23.39-.53.74-.89,1.01-.18.14-.38.26-.58.36-.08.04-.16.08-.24.09-.09.01-.1,0-.09-.08.02-.26.14-.54.25-.77.13-.27.28-.53.47-.76.08-.11.1-.25,0-.35-.09-.09-.27-.11-.35,0h0Z"/>
  <path class="cls-1" d="m116.78,22.82l-.27,2.74c-.01.13.12.25.25.25.15,0,.24-.12.25-.25l.27-2.74c.01-.13-.12-.25-.25-.25-.15,0-.24.12-.25.25h0Z"/>
  <path class="cls-1" d="m114.53,26.89c.31-.3.76-1.22,1.3-.86.66.44.14,1.24-.3,1.6-.21.17.02.46.24.42,1.31-.26,2.57-.7,3.76-1.29.29-.14.04-.57-.25-.43-1.15.57-2.38.99-3.64,1.24l.24.42c.69-.55,1.13-1.65.31-2.31-.33-.27-.77-.3-1.13-.07s-.57.64-.88.93c-.23.22.12.58.35.35h0Z"/>
  <path class="cls-1" d="m119.02,23.26c.49-.03,1.02-.3,1.51-.16.53.15.35.72.19,1.1-.4.96-.98,1.84-1.69,2.6-.22.24.13.59.35.35.42-.45.8-.94,1.12-1.47s.64-1.09.81-1.67c.16-.54.03-1.12-.52-1.35-.6-.25-1.17.06-1.78.1-.32.02-.32.52,0,.5h0Z"/>
  <path class="cls-1" d="m123.62,20.91c-.13,2.06-.26,4.13-.39,6.19-.02.32.48.32.5,0,.13-2.06.26-4.13.39-6.19.02-.32-.48-.32-.5,0h0Z"/>
  <path class="cls-1" d="m125.4,22.1c.21.08.43.09.64.14.1.03.27.09.28.2.01.08-.04.17-.08.24-.05.1-.11.19-.18.28-.13.18-.28.33-.44.47-.2.17.01.47.24.42.69-.16,1.38-.31,2.08-.47.31-.07.18-.55-.13-.48-.69.16-1.38.31-2.08.47l.24.42c.21-.19.4-.41.56-.64s.33-.53.26-.82c-.06-.26-.27-.43-.51-.52s-.52-.08-.76-.18c-.13-.05-.27.05-.31.17-.04.14.05.26.17.31h0Z"/>
  <path class="cls-1" d="m125.66,24.8c1.01-.35,2.05-.61,3.12-.75.13-.02.25-.1.25-.25,0-.12-.12-.27-.25-.25-1.11.15-2.19.4-3.25.76-.3.1-.17.59.13.48h0Z"/>
  <path class="cls-1" d="m126.36,26.04c.16-.09,1.4-.67,1.36-.26-.03.24-.34.49-.48.66-.22.27-.45.53-.67.8-.09.11-.11.32.05.39.61.28,1.32.07,1.95-.05.72-.13,1.43-.29,2.14-.45.31-.07.18-.55-.13-.48-.63.14-1.26.27-1.89.4-.31.06-.62.12-.93.17-.29.05-.61.1-.88-.02l.05.39c.32-.38.64-.75.95-1.13.23-.27.45-.6.3-.97-.31-.78-1.59-.15-2.06.11-.28.16-.03.59.25.43h0Z"/>
  <path class="cls-1" d="m136.19,22.53c.4-.27.84-.5,1.29-.67.12-.04.38-.15.44.03.05.16-.1.43-.16.58-.34.82-.89,1.53-1.58,2.08l.39.3c.37-.54,1.07-1.21,1.78-.82.53.3.86.92,1.53.9.32,0,.32-.51,0-.5s-.55-.24-.77-.44c-.27-.25-.56-.49-.94-.55-.88-.15-1.58.48-2.04,1.15-.17.25.19.47.39.3.44-.35.82-.76,1.14-1.23.3-.44.58-.95.71-1.46.06-.25.06-.53-.13-.73s-.44-.2-.69-.16c-.27.05-.53.18-.78.3-.29.14-.57.3-.84.48s-.02.61.25.43h0Z"/>
  <path class="cls-1" d="m139.57,23.31c1.16-.04,2.3-.38,3.27-1,.27-.17.02-.61-.25-.43-.91.58-1.95.9-3.02.94-.32,0-.32.51,0,.5h0Z"/>
  <path class="cls-1" d="m142.12,20.9c-.17,1.38-.34,2.77-.51,4.15-.04.32.46.32.5,0,.17-1.38.34-2.77.51-4.15.04-.32-.46-.32-.5,0h0Z"/>
  <path class="cls-1" d="m139.49,25.87c.4-.32.88-.53,1.38-.64.2-.04.46-.1.66,0,.18.08.21.28.21.46,0,.43-.24.88-.47,1.24-.26.4-.59.74-.99,1-.27.18-.02.61.25.43.77-.51,1.37-1.29,1.63-2.18.11-.4.13-.89-.17-1.21-.35-.37-.92-.29-1.36-.19-.55.13-1.05.39-1.5.74-.11.08-.09.27,0,.35.1.1.25.08.35,0h0Z"/>
  <path class="cls-1" d="m144.91,23.08c-.22.32-.41.67-.56,1.03-.12.3-.32.71-.2,1.05.21.59.96.37,1.34.14.52-.31,1.22-.86,1.38-1.47.21-.79-.88-.9-1.41-.85l.07.49c1.73-.41,3.45-.85,5.16-1.34.31-.09.18-.57-.13-.48-1.71.49-3.43.93-5.16,1.34-.27.06-.22.52.07.49.22-.02.49-.03.71.05.16.06.23.11.18.28-.03.09-.13.2-.18.26-.26.32-.58.59-.93.81-.14.08-.29.17-.45.18-.28,0-.14-.32-.08-.49.15-.44.37-.84.63-1.23.18-.27-.25-.52-.43-.25h0Z"/>
  <path class="cls-1" d="m149.98,21.61c-.15,1.51-.22,3.02-.2,4.53,0,.32.5.32.5,0-.02-1.51.04-3.03.2-4.53.03-.32-.47-.32-.5,0h0Z"/>
  <path class="cls-1" d="m151.64,22.31c.03.69-.23,1.57.41,2.06.59.45,1.34.09,1.75-.43.96-1.21.82-2.86,1.25-4.27h-.48c.22.66.2,1.38.23,2.06.04.73.07,1.47.11,2.2,0,.18.21.33.38.22.76-.52,1.63-.87,2.54-.99.31-.04.32-.54,0-.5-1.01.13-1.96.48-2.8,1.06l.38.22c-.04-.77-.07-1.55-.11-2.32-.03-.69-.02-1.41-.24-2.08-.08-.23-.41-.24-.48,0-.34,1.12-.31,2.35-.77,3.43-.2.47-.66,1.27-1.29,1.08s-.35-1.27-.37-1.74c-.01-.32-.51-.32-.5,0h0Z"/>
  <path class="cls-1" d="m158.6,21.24c.37-.05.82-.13,1.14.12s.17.65.05.96c-.26.66-.76,1.22-1.37,1.58-.28.16-.03.59.25.43.78-.46,1.39-1.2,1.66-2.06.15-.46.14-.96-.27-1.28s-.96-.31-1.47-.24c-.13.02-.25.1-.25.25,0,.12.12.27.25.25h0Z"/>
  <path class="cls-1" d="m161.16,20.52c.2,1.53.4,3.07.61,4.6.04.31.54.32.5,0-.2-1.53-.4-3.07-.61-4.6-.04-.31-.54-.32-.5,0h0Z"/>
  <path class="cls-1" d="m162.3,23.57c.21-.06.43-.11.65-.16.11-.02.22-.04.33-.06,0,0,.08-.01.04,0,.03,0,.05,0,.08,0,.06,0,.12-.01.18-.02.13-.01.26-.11.25-.25,0-.12-.11-.26-.25-.25-.48.05-.95.13-1.41.26-.13.04-.22.18-.17.31s.17.21.31.17h0Z"/>
  <path class="cls-1" d="m164.59,21.21c.64-.08,1.96-.48,2.24.42.12.39-.32.69-.62.84-.36.17-.76.22-1.15.14l.17.31s.05-.05.08-.03c.09.06.11.11.11.23,0,.19-.1.38-.18.54-.18.35-.44.64-.71.93-.22.24-.58.49-.7.8s.1.52.38.54c.42.03.89-.06,1.31-.1.45-.04.89-.07,1.34-.11.93-.07,1.85-.15,2.78-.22.32-.03.32-.53,0-.5-1.04.08-2.08.17-3.12.25-.52.04-1.04.08-1.56.13-.05,0-.72.02-.73.06.03.13.08.15.13.04.03-.03.06-.07.1-.1.07-.08.15-.16.22-.23.51-.53,1.25-1.26,1.23-2.06,0-.33-.2-.63-.53-.68-.28-.05-.57.1-.64.39-.03.12.04.28.17.31.54.11,1.09.04,1.58-.21.44-.23.89-.64.85-1.17-.03-.48-.42-.87-.84-1.04-.61-.25-1.29-.04-1.91.04-.31.04-.32.54,0,.5h0Z"/>
  <path class="cls-1" d="m178.98,19.56c-1.06,1.45-2.21,2.83-3.44,4.14l.42.24c.31-.82.73-1.74,1.74-1.71.48.02.96.13,1.43.21.52.09,1.03.18,1.55.28.31.06.45-.42.13-.48-.6-.11-1.19-.22-1.79-.32-.54-.09-1.12-.24-1.67-.17-1.07.13-1.54,1.16-1.88,2.06-.09.24.25.42.42.24,1.26-1.33,2.44-2.75,3.52-4.24.19-.26-.24-.51-.43-.25h0Z"/>
  <path class="cls-1" d="m180.68,20.27l.52,2.68c.03.13.18.21.31.17.14-.04.2-.17.17-.31-.17-.89-.34-1.79-.52-2.68-.03-.13-.18-.21-.31-.17-.14.04-.2.17-.17.31h0Z"/>
  <path class="cls-1" d="m178.13,24.85c1.28-.41,2.55-.87,3.8-1.37.22-.09.25-.41,0-.48-.7-.21-1.44.1-1.91.62-.53.58-.74,1.37-.91,2.12-.07.31.41.45.48.13.15-.63.3-1.3.71-1.81.35-.44.94-.75,1.5-.58v-.48c-1.25.5-2.52.96-3.8,1.37-.31.1-.17.58.13.48h0Z"/>
  <path class="cls-1" d="m181.24,23.84c0,1.16-1.32,1.6-2.22,1.87-.31.09-.18.56.13.48,1.11-.26,2.18-.66,3.18-1.19.29-.15.03-.58-.25-.43-.97.51-2,.89-3.06,1.14l.13.48c.63-.19,1.27-.4,1.78-.81.47-.37.8-.93.8-1.54,0-.32-.5-.32-.5,0h0Z"/>
  <path class="cls-1" d="m182.46,21.03c1.03-.07,2.05-.22,3.05-.46.28-.07.21-.49-.07-.49-.97-.02-2.12.14-2.41,1.24-.07.25-.08.52-.07.78s.02.56.09.81c.17.59.87.62,1.39.56.71-.07,1.38-.36,2.03-.65.29-.13.04-.56-.25-.43-.58.26-1.2.53-1.84.58-.2.02-.65.07-.8-.11-.07-.09-.07-.27-.08-.38-.01-.13-.03-.26-.03-.4-.02-.5.06-1.04.54-1.3.43-.24.96-.23,1.44-.22l-.07-.49c-.96.23-1.93.38-2.92.44-.32.02-.32.52,0,.5h0Z"/>
  <path class="cls-1" d="m187.94,17.72c-1.11,2.26-1.45,4.81-.99,7.28.06.32.54.18.48-.13-.44-2.33-.11-4.77.94-6.9.14-.29-.29-.54-.43-.25h0Z"/>
  <path class="cls-1" d="m187.32,22.05c1.34-.54,2.77-.8,4.21-.76.32,0,.32-.49,0-.5-1.48-.04-2.97.22-4.34.78-.29.12-.17.6.13.48h0Z"/>
  <path class="cls-1" d="m191.27,24.41c.64,0,.64-1,0-1s-.64,1,0,1h0Z"/>
</svg>