<?xml version="1.0" encoding="UTF-8"?>
<svg id="_레이어_4" data-name="레이어 4" xmlns="http://www.w3.org/2000/svg" viewBox="0 0 228.09 225.97">
  <defs>
    <style>
      .cls-1 {
        stroke-width: 0px;
      }

      .cls-1, .cls-2 {
        fill: #fff;
      }

      .cls-2 {
        font-family: SDJebib-aLt-KSCpc-EUC-H, 'Sandoll Jebi2';
        font-size: 85.53px;
      }
    </style>
  </defs>
  <path class="cls-1" d="m225.19,113.37c-.02,11.68-1.8,23.32-5.37,34.44-3.44,10.72-8.51,20.91-14.98,30.13-6.4,9.12-14.15,17.29-22.93,24.16-8.8,6.88-18.61,12.45-29.05,16.45-11.21,4.3-23.1,6.38-35.09,6.62-11.7.23-23.43-1.34-34.65-4.7-10.8-3.24-21.1-8.12-30.46-14.42s-17.56-13.82-24.59-22.47-12.84-18.45-17.04-28.85-6.96-22.06-7.83-33.56.04-23.51,2.77-34.91,6.97-21.62,12.78-31.34,12.87-18.29,21.13-25.78,17.69-13.78,27.82-18.54c10.79-5.06,22.18-8.18,34.05-9.32,11.74-1.12,23.66-.41,35.18,2.13s21.78,6.59,31.62,12.24,18.43,12.49,26.04,20.57,14.11,17.42,19.05,27.44,8.52,21.27,10.24,32.56c.87,5.67,1.29,11.41,1.3,17.15,0-.24,2.9-.5,2.9-.78-.02-11.96-1.88-23.88-5.62-35.24-3.59-10.9-8.87-21.23-15.58-30.54s-14.76-17.5-23.89-24.35-19.38-12.35-30.2-16.14C141.55,2.38,129.69.26,117.78.02s-23.46,1.53-34.86,4.7c-10.99,3.05-21.49,7.68-31.08,13.84-9.56,6.14-18.19,13.73-25.5,22.44s-13.42,18.71-17.81,29.32S1.27,92.73.35,104.45s.03,24.2,2.91,35.92,7.31,22.08,13.39,31.95,13.39,18.45,21.96,25.92,18.43,13.76,28.95,18.35,22.21,7.68,33.88,8.83,24.04.46,35.74-2.14c11.08-2.46,21.86-6.19,31.85-11.6s19.27-12.43,27.24-20.63c7.94-8.17,14.63-17.54,19.77-27.71s8.9-21.7,10.71-33.26c.9-5.78,1.34-11.63,1.35-17.49,0,.24-2.9.49-2.9.78Z"/>
  <text class="cls-2" transform="translate(73.85 138.64)"><tspan x="0" y="0">瑛</tspan></text>
</svg>